SplineFontDB: 3.0
FontName: RWGaramond-BoldItalic
FullName: RW Garamond Bold Italic
FamilyName: RWGaramond
Weight: Bold
Copyright: RW Garamond is a modified version of URW Garamond No. 8. and GaramondX, with changes being made to support OpenType.\n(c) 2000, (URW)++ Design & Development.\n(c) 2005, Ralf Stubner. \n(c) 2009, Gael Varoquaux.\n(c) 2012-2017, Michael Sharpe.\n(c) 2019, Daniel Benjamin Miller.\nUsage of this font is subject to the Aladdin Free Public License.
Version: 1.00
ItalicAngle: -16
UnderlinePosition: -225
UnderlineWidth: 51
Ascent: 800
Descent: 200
InvalidEm: 0
LayerCount: 2
Layer: 0 0 "Back" 1
Layer: 1 0 "Fore" 0
StyleMap: 0x0000
FSType: 0
OS2Version: 0
OS2_WeightWidthSlopeOnly: 0
OS2_UseTypoMetrics: 0
CreationTime: 1482010166
ModificationTime: 1554666920
OS2TypoAscent: 0
OS2TypoAOffset: 1
OS2TypoDescent: 0
OS2TypoDOffset: 1
OS2TypoLinegap: 90
OS2WinAscent: 0
OS2WinAOffset: 1
OS2WinDescent: 0
OS2WinDOffset: 1
HheadAscent: 0
HheadAOffset: 1
HheadDescent: 0
HheadDOffset: 1
OS2Vendor: 'PfEd'
Lookup: 1 0 0 "'swsh' Swash lookup 0" { "'swsh' Swash lookup 0-1" ("swsh") } ['swsh' ('DFLT' <'dflt' > 'grek' <'dflt' > 'latn' <'dflt' > ) ]
Lookup: 1 0 0 "'cv01' Character Variants 01 lookup 1" { "'cv01' Character Variants 01 lookup 1-1" ("cv01") } ['cv01' ('DFLT' <'dflt' > 'grek' <'dflt' > 'latn' <'dflt' > ) ]
Lookup: 1 0 0 "'onum' Oldstyle Figures lookup 2" { "'onum' Oldstyle Figures lookup 2-1" ("onum") } ['onum' ('DFLT' <'dflt' > 'grek' <'dflt' > 'latn' <'dflt' > ) ]
Lookup: 4 0 1 "'liga' Standard Ligatures lookup 3" { "'liga' Standard Ligatures lookup 3-1"  } ['liga' ('DFLT' <'dflt' > 'grek' <'dflt' > 'latn' <'dflt' > ) ]
Lookup: 1 0 0 "'smcp' Lowercase to Small Capitals lookup 4" { "'smcp' Lowercase to Small Capitals lookup 4-1" ("smcp") } ['smcp' ('DFLT' <'dflt' > 'grek' <'dflt' > 'latn' <'dflt' > ) ]
MarkAttachClasses: 1
DEI: 91125
Encoding: UnicodeBmp
UnicodeInterp: none
NameList: AGL For New Fonts
DisplaySize: -128
AntiAlias: 1
FitToEm: 0

StartChar: exclam
Encoding: 33 33 1
Width: 258
Flags: W
HStem: -19 153<89.5 124> 675 20G<221.5 266.5>
VStem: 36 142<39.5 74> 161 157<553 648.5>
LayerCount: 2
Fore
SplineSet
150 192 m 1xd0
 120 201 l 1
 161 553 l 2
 173 658 196 695 247 695 c 0
 286 695 318 666 318 631 c 0
 318 611 310 582 288 529 c 2
 150 192 l 1xd0
111 134 m 0
 151 134 178 105 178 63 c 0
 178 16 146 -19 102 -19 c 0
 62 -19 36 8 36 50 c 0xe0
 36 98 68 134 111 134 c 0
EndSplineSet
Validated: 1
EndChar

StartChar: quotedbl
Encoding: 34 34 2
Width: 424
Flags: MW
HStem: 430 274<145.5 246.5 150 246.5 224 317 224 332>
VStem: 155 122<606 676.5> 322 122<606 676.5>
LayerCount: 2
Fore
SplineSet
258 606 m 2
 184 442 l 2
 179 432 176 430 165 430 c 2
 150 430 l 2
 141 430 138 432 138 438 c 0
 138 439 138 439 140 455 c 2
 155 606 l 2
 159 648 163 661 175 675 c 0
 190 693 213 704 235 704 c 0
 258 704 277 687 277 666 c 0
 277 652 273 640 258 606 c 2
425 606 m 2
 351 442 l 2
 347 432 343 430 332 430 c 2
 317 430 l 2
 308 430 305 432 305 438 c 2
 305 442 l 1
 307 455 l 1
 322 606 l 2
 326 648 330 661 342 675 c 0
 357 693 380 704 402 704 c 0
 425 704 444 687 444 666 c 0
 444 652 440 638 425 606 c 2
EndSplineSet
Validated: 1
EndChar

StartChar: numbersign
Encoding: 35 35 3
Width: 498
Flags: MW
HStem: -15 21G<63 66 66 89 236.5 239 239 262> 201 81<57.5 153 84 126 84 174 202 300 373 408> 375 82<117 212 148 184 148 233 260 358 432 465> 654 20G<293 323 323 325 470 493 493 495.5>
LayerCount: 2
Fore
SplineSet
126 201 m 1
 61 201 l 2
 54 201 48 206 48 213 c 0
 48 216 49 220 51 225 c 2
 65 265 l 2
 68 274 77 282 84 282 c 2
 153 282 l 1
 184 375 l 1
 121 375 l 2
 113 375 108 380 108 387 c 0
 108 390 109 394 110 397 c 2
 125 441 l 2
 128 451 137 457 148 457 c 2
 212 457 l 1
 280 658 l 2
 284 671 287 674 293 674 c 2
 323 674 l 2
 327 674 329 672 329 667 c 0
 329 662 329 659 328 656 c 2
 260 457 l 1
 386 457 l 1
 453 653 l 2
 459 669 462 674 470 674 c 2
 493 674 l 2
 498 674 501 671 501 665 c 0
 501 660 500 657 499 653 c 2
 432 457 l 1
 497 457 l 2
 503 457 507 453 507 446 c 0
 507 444 507 442 506 441 c 2
 487 385 l 2
 484 378 479 375 465 375 c 2
 405 375 l 1
 373 282 l 1
 438 282 l 2
 445 282 449 280 449 276 c 0
 449 274 448 271 446 266 c 2
 430 219 l 2
 426 206 419 201 408 201 c 2
 345 201 l 1
 277 0 l 2
 273 -12 270 -15 262 -15 c 2
 239 -15 l 2
 234 -15 229 -11 229 -8 c 0
 229 -6 230 -3 231 1 c 2
 300 201 l 1
 174 201 l 1
 106 0 l 2
 102 -12 99 -15 89 -15 c 2
 66 -15 l 2
 60 -15 57 -12 57 -6 c 0
 57 -4 57 -1 58 1 c 2
 126 201 l 1
202 282 m 1
 327 282 l 1
 358 375 l 1
 233 375 l 1
 202 282 l 1
EndSplineSet
Validated: 1
EndChar

StartChar: dollar
Encoding: 36 36 4
Width: 498
Flags: W
HStem: -13 49<194 273.5 194 273.5>
VStem: 39 112 153 83<449 550> 347 83<146.5 153> 394 99
LayerCount: 2
Fore
SplineSet
137 -63 m 2xf0
 153 -7 l 1
 111 7 95 18 72 49 c 0
 51 77 39 107 39 133 c 0
 39 168 59 190 91 190 c 0
 124 190 137 169 151 88 c 0
 156 66 159 60 170 53 c 1
 240 301 l 1
 175 377 153 422 153 476 c 0
 153 540 188 604 242 639 c 0
 271 659 296 667 345 675 c 1
 355 711 l 2
 359 723 364 728 375 728 c 2
 391 728 l 2
 397 728 400 725 400 721 c 0
 400 719 399 716 398 712 c 2
 387 672 l 1
 452 658 493 615 493 561 c 0
 493 530 474 509 446 509 c 0
 418 509 406 524 394 573 c 0xe8
 388 597 385 603 372 620 c 1
 312 405 l 1
 413 286 430 257 430 205 c 0
 430 88 329 -13 212 -13 c 2
 194 -13 l 1
 179 -67 l 2
 174 -85 172 -87 160 -87 c 2
 144 -87 l 2
 138 -87 134 -83 134 -78 c 0
 134 -74 135 -69 137 -63 c 2xf0
276 277 m 1
 209 41 l 1
 223 37 229 36 240 36 c 0
 307 36 347 72 347 131 c 0xf0
 347 175 332 206 276 277 c 1
277 433 m 1
 333 632 l 1
 304 631 290 626 272 610 c 0
 247 589 236 566 236 534 c 0
 236 501 244 482 277 433 c 1
EndSplineSet
Validated: 1
EndChar

StartChar: percent
Encoding: 37 37 5
Width: 830
Flags: W
HStem: -18 41<570.5 598 570.5 638.5> 283 41<636 667.5> 313 41<210.5 238 210.5 279.5> 623 41<276 307>
VStem: 101 75<413 436.5 398.5 480.5> 169 53<-28 -28> 344 76<534.5 566 470 579> 461 75<80 103 66.5 145.5> 652 53<681 681> 704 76<197 228.5 135 240.5>
LayerCount: 2
Fore
SplineSet
652 681 m 1x9780
 705 681 l 1
 222 -28 l 1
 169 -28 l 1
 652 681 l 1x9780
652 324 m 0xd380
 726 324 780 267 780 190 c 0xd340
 780 80 690 -18 587 -18 c 0
 515 -18 461 40 461 120 c 0
 461 171 488 231 528 271 c 0
 564 306 606 324 652 324 c 0xd380
651 283 m 0
 621 283 596 262 573 219 c 0
 553 181 536 120 536 86 c 0
 536 47 555 23 586 23 c 0
 610 23 631 36 648 60 c 0
 682 107 704 172 704 222 c 0
 704 259 684 283 651 283 c 0
292 664 m 0
 366 664 420 606 420 526 c 0
 420 414 330 313 229 313 c 0
 155 313 101 372 101 454 c 0xbb
 101 507 128 569 168 610 c 0
 204 646 246 664 292 664 c 0
291 623 m 0
 261 623 236 601 213 557 c 0
 193 518 176 454 176 419 c 0
 176 378 195 354 226 354 c 0
 250 354 271 367 288 392 c 0
 322 441 344 509 344 560 c 0
 344 598 323 623 291 623 c 0
EndSplineSet
Validated: 1
Substitution2: "'cv01' Character Variants 01 lookup 1-1" percent.cv01
EndChar

StartChar: ampersand
Encoding: 38 38 6
Width: 701
Flags: MW
HStem: -21 79<335.5 347.5> 378 84<386.5 410.5 382.5 415.5> 642 40<360 403>
VStem: 74 104<198 223.5> 194 95<513.5 553 501.5 581.5> 522 51<170.5 198 161 200.5>
LayerCount: 2
Fore
SplineSet
719 314 m 1
 550 265 l 1
 568 231 573 213 573 183 c 0
 573 139 555 96 525 65 c 0
 472 12 388 -21 307 -21 c 0
 172 -21 74 65 74 185 c 0
 74 262 111 330 182 382 c 0
 203 397 225 409 268 430 c 1
 214 459 194 489 194 538 c 0
 194 625 283 682 416 682 c 0
 509 682 558 656 558 608 c 0
 558 577 538 556 509 556 c 0
 485 556 482 559 454 603 c 0
 437 630 417 642 389 642 c 0
 331 642 289 589 289 517 c 0
 289 486 298 461 317 446 c 1
 349 457 372 462 393 462 c 0
 428 462 452 446 452 421 c 0
 452 394 432 378 399 378 c 0
 374 378 359 382 317 403 c 2
 306 409 l 1
 230 377 178 302 178 223 c 0
 178 173 201 125 237 97 c 0
 269 74 316 58 355 58 c 0
 393 58 440 74 474 98 c 0
 506 120 522 151 522 190 c 0
 522 211 518 224 506 247 c 1
 363 190 l 1
 343 261 l 1
 504 308 577 332 698 382 c 1
 719 314 l 1
EndSplineSet
Validated: 1
EndChar

StartChar: quoteright
Encoding: 8217 8217 7
Width: 258
Flags: MW
HStem: 416 34<103 109> 675 20G<201 248>
VStem: 233 79<523 617.5>
LayerCount: 2
Fore
SplineSet
103 416 m 1
 109 450 l 1
 199 475 233 501 233 545 c 0
 233 565 225 574 201 584 c 0
 165 599 155 611 155 637 c 0
 155 671 182 695 220 695 c 0
 276 695 312 651 312 584 c 0
 312 532 286 493 229 459 c 0
 195 438 162 427 103 416 c 1
EndSplineSet
Validated: 1
EndChar

StartChar: parenleft
Encoding: 40 40 8
Width: 295
Flags: MW
VStem: 39 106<152 226 88 322.5>
LayerCount: 2
Fore
SplineSet
232 -161 m 1
 199 -184 l 1
 97 -66 39 82 39 222 c 0
 39 423 164 610 400 760 c 1
 426 728 l 1
 328 662 270 597 219 500 c 0
 169 401 145 293 145 159 c 0
 145 17 164 -51 232 -161 c 1
EndSplineSet
Validated: 1
EndChar

StartChar: parenright
Encoding: 41 41 9
Width: 295
Flags: MW
VStem: 170 106<349.5 424 253.5 487>
LayerCount: 2
Fore
SplineSet
83 736 m 1
 116 760 l 1
 218 643 276 494 276 354 c 0
 276 153 149 -37 -85 -184 c 1
 -111 -152 l 1
 -14 -86 45 -21 95 76 c 0
 146 174 170 283 170 416 c 0
 170 558 151 628 83 736 c 1
EndSplineSet
Validated: 1
EndChar

StartChar: asterisk
Encoding: 42 42 10
Width: 498
Flags: W
HStem: 411 20G<272 272 330 332.5> 419 118<472 490.5 471.5 491.5> 672 20G<328 361.5>
VStem: 115 162<373 443 441 574> 296 117<641.5 655 633.5 659> 304 117<297 314.5>
LayerCount: 2
Fore
SplineSet
360 494 m 2x70
 432 524 l 2
 457 534 466 537 477 537 c 0
 504 537 522 513 522 477 c 0
 522 441 505 419 478 419 c 0
 466 419 456 422 437 430 c 2
 360 463 l 2
 347 469 347 469 347 476 c 2
 347 482 l 2
 347 488 347 489 360 494 c 2x70
304 539 m 2x34
 297 617 l 2
 296 628 296 638 296 645 c 0
 296 673 314 692 342 692 c 0
 381 692 413 669 413 641 c 0x38
 413 626 406 613 388 592 c 2
 333 529 l 2
 325 521 325 520 322 520 c 0
 321 520 319 520 317 521 c 2
 311 523 l 2
 305 525 305 526 304 539 c 2x34
252 490 m 2
 176 509 l 2
 129 520 115 531 115 558 c 0
 115 590 148 628 176 628 c 0
 195 628 210 616 227 587 c 2
 270 515 l 2
 273 510 275 505 275 503 c 0
 275 502 274 500 273 498 c 2
 269 493 l 2
 266 489 265 488 262 488 c 0
 261 488 261 488 252 490 c 2
272 431 m 2xb0
 231 364 l 2
 209 327 199 319 178 319 c 0
 149 319 115 357 115 389 c 0
 115 413 132 428 172 437 c 2
 253 456 l 1
 261 457 l 2
 262 458 264 458 265 458 c 0
 267 458 269 457 271 453 c 2
 275 448 l 2
 276 446 277 444 277 442 c 0
 277 440 276 438 272 431 c 2xb0
342 422 m 2
 393 363 l 2
 416 336 421 326 421 311 c 0
 421 283 387 258 349 258 c 0
 320 258 304 278 304 311 c 0xb4
 304 318 304 323 305 329 c 2
 312 412 l 2
 314 426 314 426 321 429 c 2
 326 430 l 2
 328 431 329 431 331 431 c 0
 334 431 335 430 342 422 c 2
EndSplineSet
Validated: 1
EndChar

StartChar: plus
Encoding: 43 43 11
Width: 830
Flags: MW
HStem: -3 21G<380.5 384 384 445> 214 81<165.5 374 170 374 455 659>
VStem: 374 81<10 214 295 498>
LayerCount: 2
Fore
SplineSet
374 295 m 1
 374 498 l 2
 374 507 377 511 384 511 c 2
 445 511 l 2
 452 511 455 507 455 498 c 2
 455 295 l 1
 659 295 l 2
 667 295 671 292 671 285 c 2
 671 224 l 2
 671 217 667 214 659 214 c 2
 455 214 l 1
 455 10 l 2
 455 1 452 -3 445 -3 c 2
 384 -3 l 2
 377 -3 374 1 374 10 c 2
 374 214 l 1
 170 214 l 2
 161 214 157 217 157 224 c 2
 157 285 l 2
 157 292 161 295 170 295 c 2
 374 295 l 1
EndSplineSet
Validated: 1
EndChar

StartChar: comma
Encoding: 44 44 12
Width: 258
Flags: MW
HStem: -139 30<23 30>
VStem: 139 70<-37 62.5>
LayerCount: 2
Fore
SplineSet
30 -139 m 1
 23 -109 l 1
 103 -87 139 -58 139 -16 c 0
 139 4 131 13 107 24 c 0
 70 39 60 51 60 78 c 0
 60 112 86 135 124 135 c 0
 173 135 209 92 209 33 c 0
 209 -18 179 -68 130 -101 c 0
 103 -119 74 -130 30 -139 c 1
EndSplineSet
Validated: 1
EndChar

StartChar: hyphen
Encoding: 45 45 13
Width: 258
Flags: MW
HStem: 199 72<35.5 224 45 222>
VStem: 28 214<252 255 255 260 252 262.5>
LayerCount: 2
Fore
SplineSet
45 271 m 2
 224 271 l 2
 240 271 242 270 242 260 c 2
 242 252 l 1
 241 214 l 2
 241 199 241 199 222 199 c 2
 43 199 l 2
 28 199 28 199 28 217 c 2
 28 255 l 2
 28 270 29 271 45 271 c 2
EndSplineSet
Validated: 1
EndChar

StartChar: period
Encoding: 46 46 14
Width: 258
Flags: MW
HStem: -15 147<108.5 140.5>
VStem: 60 130<39 77.5>
LayerCount: 2
Fore
SplineSet
127 132 m 0
 163 132 190 101 190 60 c 0
 190 18 160 -15 121 -15 c 0
 86 -15 60 16 60 57 c 0
 60 98 90 132 127 132 c 0
EndSplineSet
Validated: 1
EndChar

StartChar: slash
Encoding: 47 47 15
Width: 498
Flags: MW
HStem: 675 20G<531 604 604 604>
VStem: 7 72<-49 -49> 531 73<695 695>
LayerCount: 2
Fore
SplineSet
531 695 m 1
 604 695 l 1
 79 -49 l 1
 7 -49 l 1
 531 695 l 1
EndSplineSet
Validated: 1
EndChar

StartChar: zero
Encoding: 48 48 16
Width: 498
Flags: MW
HStem: -17 107<215 254> 562 107<294.5 329>
VStem: 53 60<214.5 222.5> 437 59<419.5 437.5>
LayerCount: 2
Fore
SplineSet
345 669 m 0
 390 669 426 654 452 623 c 0
 481 587 496 534 496 464 c 0
 496 375 478 287 444 203 c 0
 385 57 305 -17 203 -17 c 0
 155 -17 118 0 94 33 c 0
 67 70 53 120 53 183 c 0
 53 262 69 345 101 431 c 0
 159 590 240 669 345 669 c 0
312 562 m 0
 277 562 245 550 215 525 c 0
 183 498 158 456 138 396 c 0
 121 345 113 292 113 239 c 0
 113 190 124 152 148 125 c 0
 169 102 197 90 233 90 c 0
 295 90 344 123 379 188 c 0
 417 258 437 332 437 411 c 0
 437 464 423 504 396 531 c 0
 375 552 346 562 312 562 c 0
EndSplineSet
Validated: 1
Substitution2: "'onum' Oldstyle Figures lookup 2-1" zero.onum
EndChar

StartChar: one
Encoding: 49 49 17
Width: 498
Flags: MW
HStem: -5 39<86 113 96 113 96 116 374 382.5> 651 20G<405 458 458 458>
LayerCount: 2
Fore
SplineSet
405 671 m 1
 458 671 l 1
 321 174 l 2
 305 116 297 80 297 66 c 0
 297 53 303 44 316 40 c 0
 326 37 349 34 382 34 c 0
 392 34 397 31 396 26 c 2
 395 21 l 1
 395 15 l 1
 393 7 l 2
 392 3 391 -1 390 -2 c 0
 389 -4 385 -5 380 -5 c 0
 368 -5 352 -4 332 -3 c 0
 295 -1 259 0 224 0 c 0
 203 0 167 -2 116 -5 c 2
 92 -5 l 2
 80 -5 75 -3 75 0 c 0
 75 1 75 3 76 7 c 2
 80 23 l 2
 81 27 82 31 84 32 c 0
 86 33 92 34 100 34 c 0
 126 34 146 39 161 48 c 0
 172 54 181 64 187 77 c 0
 193 89 199 105 204 125 c 2
 325 565 l 1
 315 561 292 550 256 533 c 0
 221 517 201 508 197 508 c 0
 195 508 191 512 189 518 c 2
 185 529 l 1
 182 533 l 2
 181 535 180 538 180 538 c 2
 180 539 187 543 201 549 c 0
 288 585 357 626 405 671 c 1
EndSplineSet
Validated: 1
Substitution2: "'onum' Oldstyle Figures lookup 2-1" one.onum
Substitution2: "'cv01' Character Variants 01 lookup 1-1" one.cv01
EndChar

StartChar: two
Encoding: 50 50 18
Width: 498
Flags: MW
HStem: -5 102<391.5 434> 587 84<235 330.5>
VStem: 367 121<484.5 489.5>
LayerCount: 2
Fore
SplineSet
142 93 m 1
 422 97 l 1
 434 97 l 2
 440 97 443 94 443 90 c 2
 443 90 441 86 439 79 c 2
 414 9 l 2
 412 4 409 -1 408 -2 c 0
 405 -4 401 -5 395 -5 c 0
 388 -5 378 -4 365 -4 c 0
 310 -1 255 0 201 0 c 0
 187 0 140 -1 57 -4 c 0
 44 -4 31 -5 18 -5 c 0
 9 -5 4 -3 4 1 c 0
 4 2 5 7 7 14 c 2
 12 33 l 1
 162 162 l 2
 191 187 225 224 267 273 c 0
 305 317 331 354 346 386 c 0
 360 417 367 447 367 474 c 0
 367 505 357 531 337 553 c 0
 316 576 288 587 253 587 c 0
 217 587 185 573 157 547 c 0
 150 541 140 530 127 514 c 0
 123 509 120 506 117 506 c 0
 115 506 111 508 107 512 c 2
 96 522 l 2
 92 526 89 529 89 530 c 0
 89 531 90 534 92 536 c 2
 92 536 94 539 97 543 c 0
 103 552 112 564 127 581 c 0
 179 641 239 671 307 671 c 0
 354 671 394 658 427 631 c 0
 445 617 459 601 469 580 c 0
 481 556 488 533 488 510 c 0
 488 459 467 405 425 347 c 0
 397 308 351 261 286 205 c 0
 247 172 214 144 184 123 c 2
 142 93 l 1
EndSplineSet
Validated: 1
Substitution2: "'onum' Oldstyle Figures lookup 2-1" two.onum
EndChar

StartChar: three
Encoding: 51 51 19
Width: 498
Flags: W
HStem: -17 50<69 178.5> 321 37 600 69<249 331.5>
VStem: 312 126<216.5 244> 345 115<501.5 566.5>
LayerCount: 2
Fore
SplineSet
322 394 m 1xe8
 352 383 375 371 391 357 c 0
 422 330 438 294 438 250 c 0
 438 183 404 124 338 74 c 0
 302 47 261 25 218 9 c 0
 171 -8 127 -17 85 -17 c 0
 53 -17 28 -10 9 2 c 0
 -7 12 -15 27 -15 48 c 0
 -15 63 -11 75 -3 85 c 0
 5 95 16 101 30 101 c 0
 43 101 55 96 66 87 c 0
 69 85 79 75 95 59 c 0
 112 41 133 33 160 33 c 0
 197 33 230 47 258 76 c 0
 294 113 312 159 312 217 c 0xf0
 312 271 296 303 263 313 c 0
 251 316 226 320 188 321 c 0
 182 321 177 325 175 331 c 2
 172 344 l 2
 172 346 171 349 171 351 c 0
 171 354 174 357 180 358 c 0
 206 365 231 376 256 390 c 0
 284 407 306 424 321 443 c 0
 337 464 345 488 345 515 c 0
 345 540 338 561 323 576 c 0
 308 592 288 600 265 600 c 0
 233 600 203 585 175 555 c 0
 163 543 155 537 153 537 c 0
 151 537 149 539 145 543 c 2
 131 556 l 2
 127 560 125 563 125 564 c 0
 125 566 134 578 153 597 c 0
 199 645 252 669 311 669 c 0
 352 669 386 660 414 639 c 0
 445 617 460 586 460 547 c 0
 460 516 452 491 435 470 c 0
 413 443 374 418 322 394 c 1xe8
EndSplineSet
Validated: 1
Substitution2: "'onum' Oldstyle Figures lookup 2-1" three.onum
EndChar

StartChar: four
Encoding: 52 52 20
Width: 498
Flags: MW
HStem: -5 21G<218 218 218 324> 179 85<42 292 107 269 107 375 397 454> 651 20G<424 489 489 494>
VStem: 218 106<-5 -5>
LayerCount: 2
Fore
SplineSet
218 -5 m 1
 269 179 l 1
 47 179 l 2
 37 179 30 179 28 180 c 0
 24 181 22 185 22 189 c 0
 22 190 23 196 25 205 c 2
 30 225 l 2
 33 239 36 248 37 250 c 0
 38 253 43 259 51 267 c 2
 424 671 l 1
 489 671 l 2
 499 671 505 669 505 664 c 0
 505 663 504 657 502 650 c 2
 397 264 l 1
 476 264 l 2
 486 264 491 261 491 257 c 0
 491 254 490 249 489 244 c 2
 475 193 l 2
 473 187 471 182 470 181 c 0
 468 180 463 179 454 179 c 2
 375 179 l 1
 324 -5 l 1
 218 -5 l 1
292 264 m 1
 373 552 l 1
 107 264 l 1
 292 264 l 1
EndSplineSet
Validated: 1
Substitution2: "'onum' Oldstyle Figures lookup 2-1" four.onum
EndChar

StartChar: five
Encoding: 53 53 21
Width: 498
Flags: MW
HStem: -13 21G<88.5 102.5> 567 96<251 504 255 487>
VStem: 324 118<238.5 264>
LayerCount: 2
Fore
SplineSet
251 567 m 1
 226 515 l 1
 274 490 309 471 332 455 c 0
 355 440 376 422 396 401 c 0
 427 369 442 328 442 280 c 0
 442 197 398 127 311 67 c 0
 270 39 224 17 172 1 c 0
 141 -8 114 -13 91 -13 c 0
 86 -13 83 -9 82 -3 c 2
 78 13 l 1
 76 21 l 1
 76 22 l 2
 76 24 79 26 82 27 c 0
 138 43 185 64 223 88 c 0
 254 108 279 134 299 165 c 0
 316 191 324 219 324 249 c 0
 324 279 313 306 291 330 c 0
 272 351 250 369 224 384 c 0
 208 393 189 404 165 417 c 0
 149 425 141 430 141 432 c 2
 148 446 l 1
 255 663 l 1
 504 663 l 2
 515 663 521 660 521 655 c 0
 521 654 519 650 516 641 c 2
 487 567 l 1
 251 567 l 1
EndSplineSet
Validated: 1
Substitution2: "'onum' Oldstyle Figures lookup 2-1" five.onum
EndChar

StartChar: six
Encoding: 54 54 22
Width: 498
Flags: MW
HStem: -17 40<211.5 233.5> 315 50<244.5 339.5> 638 35<486 505>
VStem: 45 102<157.5 166 121 256.5> 343 126<185.5 236 185.5 238>
LayerCount: 2
Fore
SplineSet
180 319 m 1
 226 350 272 365 317 365 c 0
 362 365 400 350 429 320 c 0
 456 293 469 257 469 215 c 0
 469 156 448 105 406 62 c 0
 380 35 349 15 313 1 c 0
 282 -11 250 -17 217 -17 c 0
 168 -17 130 -2 102 27 c 0
 64 66 45 121 45 194 c 0
 45 319 100 429 208 525 c 0
 274 583 353 628 446 661 c 0
 468 669 483 673 489 673 c 0
 493 673 497 670 500 664 c 2
 505 652 l 2
 507 647 509 644 509 643 c 0
 509 642 507 639 505 638 c 0
 504 638 492 631 468 621 c 0
 397 589 334 544 280 484 c 0
 233 431 200 376 180 319 c 1
261 315 m 0
 228 315 202 302 184 275 c 0
 159 238 147 193 147 139 c 0
 147 103 154 75 167 54 c 0
 180 33 199 23 224 23 c 0
 253 23 279 36 300 64 c 0
 329 101 343 146 343 199 c 0
 343 277 316 315 261 315 c 0
EndSplineSet
Validated: 1
Substitution2: "'onum' Oldstyle Figures lookup 2-1" six.onum
EndChar

StartChar: seven
Encoding: 55 55 23
Width: 498
Flags: MW
HStem: -13 21G<157 157> 562 101<117.5 551 178 404>
LayerCount: 2
Fore
SplineSet
551 663 m 1
 558 638 l 1
 157 -13 l 1
 100 22 l 1
 416 540 l 2
 421 547 423 552 423 554 c 0
 423 559 417 562 404 562 c 2
 124 562 l 2
 111 562 105 564 105 569 c 0
 105 570 108 575 113 585 c 2
 146 648 l 2
 150 655 154 660 156 661 c 0
 158 662 166 663 178 663 c 2
 551 663 l 1
EndSplineSet
Validated: 1
Substitution2: "'onum' Oldstyle Figures lookup 2-1" seven.onum
EndChar

StartChar: eight
Encoding: 56 56 24
Width: 498
Flags: W
HStem: -17 40<223 252 223 268> 630 39<315 336>
VStem: 50 84<121.5 152 121.5 157> 123 107<470.5 547> 340 119<138 152.5> 418 83<499.5 540>
LayerCount: 2
Fore
SplineSet
357 344 m 1xd4
 371 330 l 1
 381 321 l 2
 407 295 425 274 436 256 c 0
 451 232 459 202 459 166 c 0
 459 110 437 65 394 32 c 0
 351 -1 299 -17 237 -17 c 0
 173 -17 124 1 90 35 c 0
 63 61 50 95 50 137 c 0xe8
 50 177 62 208 86 234 c 0
 111 260 155 289 217 322 c 1
 191 348 172 368 162 382 c 0
 136 415 123 451 123 490 c 0
 123 539 139 580 174 613 c 0
 193 632 218 646 247 656 c 0
 273 665 301 669 329 669 c 0
 375 669 414 658 445 635 c 0
 483 607 501 570 501 524 c 0
 501 475 478 432 434 396 c 0
 414 380 389 363 357 344 c 1xd4
329 374 m 2
 332 376 335 380 339 383 c 0
 391 424 418 470 418 522 c 0
 418 558 408 586 387 606 c 0
 370 622 349 630 323 630 c 0
 298 630 277 622 260 606 c 0
 240 587 230 562 230 532 c 0xd4
 230 506 236 482 250 461 c 0
 264 440 283 418 305 397 c 2
 329 374 l 2
249 293 m 1
 239 288 l 1
 223 279 l 2
 195 263 173 242 156 216 c 0
 141 192 134 166 134 138 c 0
 134 105 144 77 164 55 c 0
 184 34 208 23 238 23 c 0
 266 23 289 31 307 48 c 0
 329 69 340 98 340 137 c 0xe8
 340 168 332 195 317 218 c 0
 306 235 290 253 270 272 c 2
 249 293 l 1
EndSplineSet
Validated: 1
Substitution2: "'onum' Oldstyle Figures lookup 2-1" eight.onum
EndChar

StartChar: nine
Encoding: 57 57 25
Width: 498
Flags: MW
HStem: -10 35<44 62> 299 50<218 312> 640 40<323 343>
VStem: 86 126<426.5 478.5> 409 101<396 545.5>
LayerCount: 2
Fore
SplineSet
62 -10 m 1
 44 25 l 1
 116 51 184 92 245 148 c 0
 287 188 320 230 344 274 c 0
 353 291 364 315 375 344 c 1
 355 331 339 322 326 316 c 0
 302 305 273 299 241 299 c 0
 195 299 158 313 129 340 c 0
 100 367 86 404 86 449 c 0
 86 508 107 560 148 602 c 0
 171 626 200 645 235 659 c 0
 270 673 305 680 341 680 c 0
 388 680 427 664 456 634 c 0
 492 595 510 542 510 471 c 0
 510 321 436 195 288 94 c 0
 218 47 144 11 62 -10 c 1
332 640 m 0
 302 640 276 626 254 598 c 0
 226 562 212 518 212 465 c 0
 212 387 240 349 295 349 c 0
 329 349 355 361 372 387 c 0
 383 404 392 425 398 449 c 0
 405 475 409 501 409 526 c 0
 409 565 401 595 384 616 c 0
 371 632 354 640 332 640 c 0
EndSplineSet
Validated: 1
Substitution2: "'onum' Oldstyle Figures lookup 2-1" nine.onum
EndChar

StartChar: colon
Encoding: 58 58 26
Width: 258
Flags: W
HStem: -15 147<74.5 106.5> 324 147<166 198.5>
VStem: 26 130<39 77.5> 118 130<378 416>
LayerCount: 2
Fore
SplineSet
93 132 m 0xe0
 129 132 156 101 156 60 c 0
 156 18 126 -15 87 -15 c 0
 52 -15 26 16 26 57 c 0
 26 98 56 132 93 132 c 0xe0
184 471 m 0
 221 471 248 440 248 399 c 0
 248 357 218 324 179 324 c 0
 144 324 118 355 118 395 c 0xd0
 118 437 148 471 184 471 c 0
EndSplineSet
Validated: 1
EndChar

StartChar: semicolon
Encoding: 59 59 27
Width: 258
Flags: W
HStem: -139 30<9 16> 324 147<156 188>
VStem: 108 129<378 416> 125 70<-37 62.5>
LayerCount: 2
Fore
SplineSet
16 -139 m 1xd0
 9 -109 l 1
 89 -87 125 -58 125 -16 c 0
 125 4 117 13 93 24 c 0
 56 39 46 51 46 78 c 0
 46 112 72 135 110 135 c 0
 159 135 195 92 195 33 c 0
 195 -18 165 -68 116 -101 c 0
 89 -119 60 -130 16 -139 c 1xd0
174 471 m 0
 210 471 237 440 237 399 c 0
 237 357 207 324 169 324 c 0
 134 324 108 354 108 395 c 0xe0
 108 437 138 471 174 471 c 0
EndSplineSet
Validated: 1
EndChar

StartChar: less
Encoding: 60 60 28
Width: 996
Flags: W
LayerCount: 2
Fore
SplineSet
797 616 m 1
 797 522 l 1
 321 309 l 1
 797 97 l 1
 797 2 l 1
 199 271 l 1
 199 348 l 1
 797 616 l 1
EndSplineSet
Validated: 1
EndChar

StartChar: equal
Encoding: 61 61 29
Width: 830
Flags: MW
HStem: 124 81<165.5 657 170 657> 285 81<165.5 657 170 657>
LayerCount: 2
Fore
SplineSet
157 134 m 2
 157 195 l 2
 157 202 161 205 170 205 c 2
 657 205 l 2
 666 205 670 202 670 195 c 2
 670 134 l 2
 670 127 666 124 657 124 c 2
 170 124 l 2
 161 124 157 127 157 134 c 2
157 295 m 2
 157 356 l 2
 157 363 161 366 170 366 c 2
 657 366 l 2
 666 366 670 363 670 356 c 2
 670 295 l 2
 670 288 666 285 657 285 c 2
 170 285 l 2
 161 285 157 288 157 295 c 2
EndSplineSet
Validated: 1
EndChar

StartChar: greater
Encoding: 62 62 30
Width: 996
Flags: W
LayerCount: 2
Fore
SplineSet
199 616 m 1
 797 348 l 1
 797 271 l 1
 199 2 l 1
 199 97 l 1
 675 309 l 1
 199 522 l 1
 199 616 l 1
EndSplineSet
Validated: 1
EndChar

StartChar: question
Encoding: 63 63 31
Width: 387
Flags: W
HStem: -19 153<145 174> 192 89<257 266> 625 70<235 337>
VStem: 88 143<43.5 70> 107 51<315.5 331 304.5 371.5> 371 52<560 581.5 511.5 590>
LayerCount: 2
Fore
SplineSet
261 281 m 0xec
 286 281 304 263 304 237 c 0
 304 210 283 192 249 192 c 0
 179 192 107 275 107 356 c 0
 107 387 118 416 135 435 c 0
 165 467 169 468 288 506 c 0
 348 525 371 544 371 576 c 0
 371 604 350 625 324 625 c 0
 313 625 308 623 285 614 c 0
 263 604 245 599 232 599 c 0
 206 599 187 617 187 643 c 0
 187 675 214 695 256 695 c 0
 353 695 423 628 423 535 c 0
 423 488 402 446 364 422 c 0
 346 409 317 399 254 381 c 0
 180 360 158 345 158 317 c 0
 158 292 177 277 208 277 c 0
 214 277 224 278 234 279 c 0
 246 280 253 281 261 281 c 0xec
167 134 m 0
 206 134 231 108 231 68 c 0
 231 19 197 -19 151 -19 c 0
 112 -19 88 5 88 45 c 0xf4
 88 95 123 134 167 134 c 0
EndSplineSet
Validated: 1
EndChar

StartChar: at
Encoding: 64 64 32
Width: 830
Flags: W
HStem: -157 76<397 456.5> -19 85<586 610.5 586 631.5> -9 55<351.5 371.5> 435 55<483 506 452 514.5> 568 76<442 577>
VStem: 9 108<152 242.5 151 323.5> 208 106<94 128 85 176.5> 768 80<300 402>
LayerCount: 2
Fore
SplineSet
743 15 m 1xdf
 788 -17 l 1
 733 -61 708 -77 660 -99 c 0
 579 -137 496 -157 417 -157 c 0
 307 -157 199 -118 121 -51 c 0
 49 11 9 102 9 202 c 0
 9 445 223 644 483 644 c 0
 696 644 848 512 848 326 c 0
 848 155 703 -19 560 -19 c 0xdf
 519 -19 495 -2 480 41 c 1
 423 2 393 -9 350 -9 c 0xbf
 268 -9 208 52 208 136 c 0
 208 217 246 315 306 391 c 0
 358 455 420 490 484 490 c 0
 528 490 556 472 592 420 c 1
 611 464 l 1
 711 464 l 1
 573 109 l 2
 570 100 568 92 568 86 c 0
 568 75 579 66 593 66 c 0
 628 66 677 98 711 144 c 0
 746 193 768 266 768 334 c 0
 768 470 656 568 498 568 c 0
 386 568 286 523 213 439 c 0
 149 364 117 286 117 199 c 0
 117 103 156 28 232 -23 c 0
 289 -61 360 -81 434 -81 c 0
 532 -81 623 -53 743 15 c 1xdf
499 435 m 0
 467 435 435 407 403 353 c 0
 354 268 314 155 314 101 c 0
 314 69 336 46 367 46 c 0xbf
 398 46 434 76 465 129 c 0
 516 215 553 319 553 375 c 0
 553 410 530 435 499 435 c 0
EndSplineSet
Validated: 1
EndChar

StartChar: A
Encoding: 65 65 33
Width: 738
Flags: MW
HStem: -3 36 268 50<259 259 259 469 232 259>
LayerCount: 2
Fore
SplineSet
469 268 m 1
 232 268 l 1
 187 185 l 2
 152 119 136 83 136 67 c 0
 136 61 139 54 143 50 c 0
 154 39 154 39 203 33 c 0
 209 32 212 30 212 26 c 0
 212 24 211 19 210 17 c 2
 207 7 l 2
 204 -2 202 -5 195 -5 c 2
 136 -3 l 2
 114 -1 98 0 95 0 c 0
 92 0 76 -1 54 -3 c 2
 -7 -5 l 2
 -17 -5 -21 -2 -21 3 c 0
 -21 5 -21 9 -20 12 c 2
 -18 22 l 2
 -15 33 -14 34 4 34 c 0
 36 36 45 46 100 140 c 2
 431 705 l 1
 465 708 504 713 521 718 c 1
 606 113 l 2
 615 42 621 35 668 33 c 0
 691 32 692 32 692 27 c 0
 692 26 692 22 691 19 c 2
 689 8 l 2
 687 -2 684 -5 674 -5 c 0
 660 -5 613 -4 596 -3 c 0
 568 -1 548 0 542 0 c 0
 536 0 517 -1 493 -3 c 0
 475 -4 429 -6 413 -6 c 0
 404 -6 399 -4 399 1 c 0
 399 2 399 2 401 9 c 2
 404 22 l 2
 405 28 406 31 409 33 c 2
 416 35 l 1
 437 35 l 2
 471 36 488 50 488 78 c 0
 488 89 488 89 482 146 c 2
 469 268 l 1
462 317 m 1
 427 618 l 1
 259 318 l 1
 462 317 l 1
EndSplineSet
Validated: 1
EndChar

StartChar: B
Encoding: 66 66 34
Width: 627
Flags: W
HStem: -5 36 -5 44<251 313.5 238 356.5> 346 45<281 294 281 294> 666 45<377.5 427.5>
VStem: 447 132<165.5 229 144.5 243.5> 506 115<524.5 595>
LayerCount: 2
Fore
SplineSet
139 667 m 2xb8
 139 681 l 2
 140 691 143 694 156 696 c 0
 250 708 292 711 364 711 c 0
 537 711 621 658 621 551 c 0xb4
 621 489 590 438 537 410 c 0
 501 392 474 384 410 371 c 1
 472 364 504 350 535 318 c 0
 563 291 579 250 579 208 c 0
 579 81 451 -5 262 -5 c 0x78
 240 -5 212 -4 183 -2 c 0
 154 -1 132 0 119 0 c 0
 104 0 33 -2 23 -3 c 0
 7 -4 -8 -5 -13 -5 c 0
 -20 -5 -22 -3 -22 3 c 2
 -22 8 l 1
 -20 20 l 2
 -19 28 -19 29 -16 31 c 0
 -13 33 -12 33 9 36 c 0
 51 41 62 54 86 133 c 2
 210 550 l 2
 226 601 230 620 230 636 c 0
 230 652 219 661 199 661 c 0
 191 661 179 659 165 656 c 0
 160 655 154 654 151 654 c 0
 142 654 139 658 139 667 c 2xb8
281 391 m 1
 294 391 l 2
 330 391 360 395 389 403 c 0
 459 424 506 488 506 561 c 0
 506 629 465 666 390 666 c 0
 365 666 364 666 353 630 c 2
 281 391 l 1
270 346 m 1
 202 108 l 2
 194 79 193 76 193 70 c 0
 193 50 217 39 259 39 c 0
 368 39 447 114 447 217 c 0x78
 447 270 419 314 374 331 c 0
 343 342 318 346 270 346 c 1
EndSplineSet
Validated: 1
EndChar

StartChar: C
Encoding: 67 67 35
Width: 738
Flags: MW
HStem: -20 44<349.5 447> 667 44<434 539>
VStem: 82 131<207.5 383 194 417.5>
LayerCount: 2
Fore
SplineSet
764 617 m 1
 719 499 l 2
 714 485 714 485 711 485 c 2
 708 485 l 1
 701 487 l 1
 686 489 l 2
 676 491 673 493 673 498 c 0
 673 501 674 504 675 509 c 0
 680 522 684 545 684 558 c 0
 684 591 669 614 635 635 c 0
 604 655 560 667 518 667 c 0
 350 667 213 491 213 275 c 0
 213 113 285 24 414 24 c 0
 485 24 539 49 582 103 c 0
 592 116 592 116 624 166 c 0
 625 169 628 171 629 171 c 0
 630 171 630 171 637 169 c 2
 657 162 l 2
 662 160 663 159 663 157 c 0
 663 155 663 155 660 147 c 2
 617 27 l 1
 534 -7 480 -20 414 -20 c 0
 217 -20 82 112 82 303 c 0
 82 532 267 711 504 711 c 0
 606 711 689 681 764 617 c 1
EndSplineSet
Validated: 1
EndChar

StartChar: D
Encoding: 68 68 36
Width: 774
Flags: W
HStem: -5 43<313.5 411.5 282.5 457.5> 655 45 666 43<408.5 504>
VStem: 653 131<313.5 504.5>
LayerCount: 2
Fore
SplineSet
105 132 m 2xb0
 220 515 l 2
 236 568 244 606 244 624 c 0
 244 647 229 659 200 659 c 0
 193 659 185 658 177 657 c 0
 168 656 161 655 156 655 c 0
 151 655 147 658 147 663 c 2
 148 671 l 1
 152 684 l 2
 155 694 161 697 190 700 c 0xd0
 241 705 340 709 396 709 c 0
 662 709 784 614 784 406 c 0
 784 167 591 -5 324 -5 c 0
 303 -5 275 -4 239 -2 c 0
 205 -1 183 0 168 0 c 0
 108 0 55 -2 24 -4 c 0
 19 -5 12 -5 7 -5 c 0
 0 -5 -2 -3 -2 3 c 2
 -2 8 l 1
 0 20 l 2
 1 28 2 29 4 31 c 0
 5 32 7 33 9 33 c 2
 29 34 l 1
 73 44 82 55 105 132 c 2xb0
362 601 m 2
 230 140 l 2
 215 84 215 84 215 76 c 0
 215 53 253 38 312 38 c 0
 511 38 653 200 653 427 c 0
 653 582 576 666 432 666 c 0xb0
 385 666 380 661 362 601 c 2
EndSplineSet
Validated: 1
EndChar

StartChar: E
Encoding: 69 69 37
Width: 627
Flags: MW
HStem: 0 39<249.5 379.5> 346 46<290 369 369 379 278 369> 653 41
VStem: 576 44<548 559 550 559>
LayerCount: 2
Fore
SplineSet
290 392 m 1
 369 392 l 2
 435 392 463 406 491 456 c 0
 495 462 498 464 506 464 c 2
 523 464 l 2
 532 464 535 462 535 457 c 0
 535 454 534 452 530 442 c 0
 515 401 489 316 479 273 c 0
 476 260 474 258 458 258 c 2
 441 258 l 2
 431 258 428 260 428 265 c 0
 428 268 428 268 433 285 c 0
 438 300 441 312 441 320 c 0
 441 341 429 346 379 346 c 2
 278 346 l 1
 221 140 l 2
 206 81 206 81 206 72 c 0
 206 44 228 39 343 39 c 0
 416 39 446 43 476 58 c 0
 505 72 528 94 545 123 c 0
 564 155 565 157 570 157 c 0
 572 157 572 157 578 154 c 2
 594 146 l 2
 602 142 604 140 604 136 c 0
 604 133 604 133 599 122 c 2
 564 42 l 2
 560 33 556 23 552 12 c 0
 546 -2 544 -5 535 -5 c 0
 532 -5 522 -5 514 -4 c 0
 495 -3 296 0 257 0 c 0
 242 0 221 0 192 -1 c 2
 125 -1 l 1
 36 -3 l 2
 21 -4 6 -5 1 -5 c 0
 -6 -5 -8 -3 -8 3 c 2
 -8 8 l 1
 -6 20 l 2
 -5 28 -5 29 -2 31 c 0
 -1 32 1 33 3 33 c 2
 18 35 l 2
 64 41 75 55 99 132 c 2
 217 556 l 2
 227 592 230 605 230 617 c 0
 230 641 214 651 169 653 c 0
 146 655 144 656 144 662 c 0
 144 665 144 667 145 670 c 2
 147 681 l 2
 150 693 152 694 165 694 c 2
 441 689 l 2
 511 689 598 691 625 693 c 0
 632 694 639 694 643 694 c 0
 650 694 654 692 654 687 c 0
 654 685 654 685 651 674 c 2
 620 559 l 2
 616 539 616 539 605 539 c 2
 589 539 l 2
 578 539 576 540 576 548 c 2
 576 550 l 2
 577 562 577 574 577 581 c 0
 577 636 558 650 482 650 c 2
 415 650 l 2
 369 650 362 643 343 574 c 2
 290 392 l 1
EndSplineSet
Validated: 1
EndChar

StartChar: F
Encoding: 70 70 38
Width: 572
Flags: MW
HStem: -5 36 346 45<304 395 292 409> 649 40<408 408 408 409 408 466>
LayerCount: 2
Fore
SplineSet
304 391 m 1
 409 391 l 2
 466 391 471 394 494 450 c 0
 498 460 500 461 512 461 c 2
 526 461 l 2
 536 461 541 458 541 451 c 0
 541 447 541 447 528 414 c 0
 511 370 492 305 485 264 c 0
 484 257 481 254 475 254 c 0
 473 254 470 254 466 255 c 2
 451 256 l 2
 437 257 435 258 435 263 c 0
 435 265 435 265 440 284 c 0
 445 302 447 311 447 318 c 0
 447 338 433 346 395 346 c 2
 292 346 l 1
 233 132 l 2
 223 95 221 84 221 72 c 0
 221 48 238 37 282 35 c 0
 305 34 307 33 307 27 c 2
 306 19 l 1
 303 9 l 2
 301 -4 299 -5 286 -5 c 0
 277 -5 256 -4 229 -3 c 0
 194 -1 163 0 133 0 c 0
 97 0 84 -1 23 -4 c 0
 16 -5 6 -5 -1 -5 c 0
 -8 -5 -10 -3 -10 3 c 2
 -10 8 l 1
 -8 20 l 2
 -7 27 -6 30 -5 31 c 0
 -3 33 0 33 20 34 c 0
 78 39 87 48 109 132 c 2
 229 557 l 2
 238 591 241 605 241 617 c 0
 241 642 225 651 180 654 c 0
 157 655 155 656 155 662 c 0
 155 663 155 663 157 670 c 2
 159 680 l 2
 161 692 164 694 175 694 c 2
 408 689 l 1
 572 692 l 2
 602 693 626 694 638 694 c 0
 647 694 652 691 652 685 c 0
 652 682 650 674 648 663 c 2
 621 561 l 2
 617 545 614 541 606 541 c 2
 601 541 l 1
 588 543 l 2
 578 544 574 547 574 556 c 0
 574 562 574 567 575 573 c 0
 577 584 578 594 578 600 c 0
 578 637 550 649 466 649 c 2
 409 649 l 2
 378 649 375 646 362 600 c 2
 304 391 l 1
EndSplineSet
Validated: 1
EndChar

StartChar: G
Encoding: 71 71 39
Width: 793
Flags: W
HStem: -20 44<385.5 465 365 475.5> 266 41 667 44<494.5 550>
VStem: 91 132<262 348.5 210.5 415.5> 713 45<499.5 506> 720 80<539.5 622>
LayerCount: 2
Fore
SplineSet
772 266 m 2xf4
 752 266 l 2
 716 263 706 249 690 184 c 0
 671 104 654 48 639 11 c 1
 553 -13 508 -20 443 -20 c 0
 328 -20 244 12 178 81 c 0
 121 141 91 219 91 305 c 0
 91 526 287 711 519 711 c 0
 606 711 720 680 776 643 c 0
 793 631 800 624 800 620 c 0xf4
 800 618 799 614 797 610 c 2
 786 583 l 1
 758 506 l 2
 753 493 752 491 747 491 c 0
 745 491 745 491 736 492 c 2
 723 494 l 2
 716 495 713 497 713 502 c 0xf8
 713 505 713 505 716 514 c 0
 719 525 720 535 720 544 c 0
 720 577 701 607 665 628 c 0
 625 651 571 667 529 667 c 0
 460 667 383 632 328 574 c 0
 261 506 223 403 223 294 c 0
 223 127 302 24 428 24 c 0
 502 24 541 49 557 109 c 2
 574 168 l 2
 586 212 590 229 590 240 c 0
 590 262 579 266 519 267 c 0
 484 267 484 267 484 272 c 0
 484 274 484 274 486 281 c 2
 489 291 l 2
 492 304 495 307 506 307 c 0
 523 307 557 306 586 304 c 0
 614 302 635 301 643 301 c 0
 647 301 656 301 747 306 c 0
 758 307 770 307 777 307 c 0
 785 307 789 304 789 299 c 0
 789 297 789 296 786 286 c 2
 784 279 l 2
 782 271 781 270 779 268 c 0
 778 267 775 266 772 266 c 2xf4
EndSplineSet
Validated: 1
EndChar

StartChar: H
Encoding: 72 72 40
Width: 812
Flags: MW
HStem: -5 36 342 50<299 592 285 606> 654 40
LayerCount: 2
Fore
SplineSet
299 392 m 1
 606 392 l 1
 653 556 l 2
 666 599 667 605 667 617 c 0
 667 642 651 651 606 654 c 0
 583 655 581 656 581 662 c 2
 582 670 l 1
 585 680 l 2
 587 692 589 694 602 694 c 0
 610 694 612 694 659 691 c 0
 690 690 721 689 752 689 c 0
 792 689 820 690 867 693 c 0
 874 694 881 694 884 694 c 0
 891 694 893 692 893 687 c 2
 893 681 l 1
 891 669 l 2
 890 661 890 660 888 658 c 0
 885 656 884 656 862 655 c 0
 811 650 800 637 777 556 c 2
 655 132 l 2
 645 98 642 83 642 71 c 0
 642 47 659 37 702 35 c 0
 725 34 727 33 727 27 c 2
 726 19 l 1
 724 9 l 2
 721 -3 719 -5 707 -5 c 0
 698 -5 696 -5 649 -2 c 0
 618 -1 587 0 555 0 c 0
 513 0 500 0 441 -4 c 0
 434 -5 427 -5 424 -5 c 0
 417 -5 415 -3 415 3 c 2
 415 8 l 1
 417 20 l 2
 418 28 419 29 421 31 c 0
 424 33 424 33 446 34 c 0
 497 39 508 52 532 132 c 2
 592 342 l 1
 285 342 l 1
 225 132 l 2
 216 100 212 83 212 71 c 0
 212 47 229 37 272 35 c 0
 295 34 297 33 297 27 c 2
 296 19 l 1
 294 9 l 2
 291 -3 289 -5 277 -5 c 0
 268 -5 266 -5 219 -2 c 0
 188 -1 157 0 126 0 c 0
 87 0 57 -1 11 -4 c 0
 4 -5 -3 -5 -6 -5 c 0
 -13 -5 -15 -3 -15 3 c 2
 -15 8 l 1
 -13 20 l 2
 -12 28 -11 29 -9 31 c 0
 -6 33 -6 33 16 34 c 0
 67 39 78 52 101 132 c 2
 223 556 l 2
 232 588 236 606 236 617 c 0
 236 642 220 651 176 654 c 0
 153 655 151 656 151 662 c 0
 151 664 151 667 152 670 c 2
 154 680 l 2
 157 693 159 694 172 694 c 0
 180 694 182 694 229 691 c 0
 260 690 291 689 322 689 c 0
 362 689 389 690 437 693 c 0
 444 694 451 694 454 694 c 0
 461 694 463 692 463 687 c 2
 463 681 l 1
 461 669 l 2
 460 660 460 660 457 658 c 0
 454 656 453 656 432 655 c 0
 381 650 370 637 347 556 c 2
 299 392 l 1
EndSplineSet
Validated: 1
EndChar

StartChar: I
Encoding: 73 73 41
Width: 387
Flags: MW
HStem: -5 36 654 40
LayerCount: 2
Fore
SplineSet
107 132 m 2
 229 557 l 2
 238 588 242 606 242 617 c 0
 242 642 226 651 182 654 c 0
 159 655 157 656 157 662 c 0
 157 664 157 667 158 670 c 2
 160 680 l 2
 163 693 165 694 178 694 c 0
 186 694 188 694 235 691 c 0
 266 690 297 689 329 689 c 0
 371 689 384 689 443 693 c 0
 450 694 458 694 462 694 c 0
 469 694 471 692 471 686 c 2
 471 681 l 1
 469 669 l 2
 468 661 468 660 465 658 c 0
 463 656 461 656 440 655 c 0
 387 650 377 638 353 557 c 2
 231 132 l 2
 222 101 218 83 218 71 c 0
 218 47 235 37 278 35 c 0
 301 34 303 33 303 27 c 2
 302 19 l 1
 300 9 l 2
 297 -3 295 -5 283 -5 c 0
 274 -5 272 -5 225 -2 c 0
 194 -1 163 0 132 0 c 0
 93 0 63 -1 17 -4 c 0
 10 -5 3 -5 0 -5 c 0
 -7 -5 -9 -3 -9 3 c 2
 -9 8 l 1
 -7 20 l 2
 -6 28 -5 29 -3 31 c 0
 0 33 0 33 22 34 c 0
 73 39 84 52 107 132 c 2
EndSplineSet
Validated: 1
EndChar

StartChar: J
Encoding: 74 74 42
Width: 351
Flags: MW
HStem: -233 58<-59.5 31> 654 40<147 157>
VStem: -116 110
LayerCount: 2
Fore
SplineSet
83 56 m 2
 213 556 l 2
 223 594 225 604 225 616 c 0
 225 642 205 653 157 654 c 0
 137 654 132 656 132 663 c 0
 132 664 132 667 133 670 c 2
 135 680 l 2
 137 692 139 694 151 694 c 0
 169 694 180 694 216 692 c 0
 251 690 281 689 308 689 c 0
 340 689 380 690 422 693 c 0
 429 694 436 694 439 694 c 0
 447 694 449 690 448 681 c 2
 446 669 l 2
 445 661 444 659 443 657 c 2
 439 656 l 1
 419 655 l 2
 367 649 358 638 337 556 c 2
 215 90 l 2
 186 -22 151 -108 119 -151 c 0
 76 -207 28 -233 -31 -233 c 0
 -88 -233 -116 -211 -116 -165 c 0
 -116 -124 -95 -102 -56 -102 c 0
 -20 -102 -13 -109 -6 -152 c 0
 -4 -167 5 -175 18 -175 c 0
 44 -175 49 -162 60 -69 c 0
 66 -18 71 10 83 56 c 2
EndSplineSet
Validated: 1
EndChar

StartChar: K
Encoding: 75 75 43
Width: 719
Flags: MW
HStem: -5 39<1.5 11.5> 655 39<164 190>
LayerCount: 2
Fore
SplineSet
322 331 m 1
 267 292 l 1
 218 121 l 2
 205 78 205 78 205 67 c 0
 205 46 222 35 257 35 c 0
 280 35 281 34 281 28 c 0
 281 26 281 26 280 20 c 2
 278 8 l 2
 276 -3 274 -5 264 -5 c 0
 252 -5 239 -4 194 -2 c 0
 169 -1 150 0 136 0 c 0
 125 0 106 -1 82 -2 c 0
 47 -4 17 -5 6 -5 c 0
 -4 -5 -7 -3 -7 4 c 2
 -7 4 -7 12 -6 14 c 2
 -6 21 l 2
 -4 32 -3 34 6 34 c 0
 70 34 87 54 117 163 c 2
 224 549 l 2
 238 609 238 609 238 618 c 0
 238 632 228 645 212 650 c 0
 201 654 201 654 166 655 c 0
 162 655 160 657 160 660 c 0
 160 662 160 662 162 668 c 2
 166 681 l 2
 169 692 171 694 181 694 c 0
 199 694 224 693 262 691 c 0
 286 690 305 689 314 689 c 0
 325 689 343 690 368 691 c 0
 398 693 435 694 447 694 c 0
 458 694 462 692 462 686 c 0
 462 684 462 684 460 679 c 2
 458 667 l 2
 456 660 454 657 450 655 c 0
 447 654 447 654 427 653 c 0
 375 650 369 644 348 571 c 2
 287 364 l 1
 517 552 l 1
 596 624 596 624 596 636 c 0
 596 648 578 656 552 656 c 0
 533 655 529 656 529 661 c 0
 529 662 530 668 531 669 c 2
 535 683 l 2
 538 691 542 694 551 694 c 0
 569 694 596 693 668 689 c 1
 717 692 755 694 768 694 c 0
 776 694 780 690 780 684 c 2
 780 684 780 682 779 679 c 2
 778 670 l 2
 777 662 776 660 774 658 c 2
 769 656 l 1
 751 652 l 2
 728 648 695 628 646 590 c 2
 417 405 l 1
 589 98 l 2
 620 43 626 37 651 33 c 0
 665 31 666 31 666 26 c 0
 666 24 666 21 665 17 c 2
 663 8 l 2
 660 -3 658 -5 646 -5 c 0
 635 -5 602 -4 585 -3 c 0
 562 -1 544 0 541 0 c 0
 536 0 517 -1 489 -3 c 2
 408 -5 l 2
 401 -5 398 -3 398 2 c 2
 398 8 l 1
 400 22 l 2
 402 29 403 31 406 33 c 0
 407 34 410 34 417 34 c 2
 442 35 l 2
 462 36 470 42 470 57 c 0
 470 67 466 77 450 105 c 2
 322 331 l 1
EndSplineSet
Validated: 1
EndChar

StartChar: L
Encoding: 76 76 44
Width: 627
Flags: MW
HStem: -5 38<5 6 5 6> 654 40
LayerCount: 2
Fore
SplineSet
99 132 m 2
 223 557 l 2
 238 604 238 605 238 618 c 0
 238 642 222 651 178 654 c 0
 155 655 153 656 153 662 c 2
 154 670 l 1
 156 680 l 2
 159 692 162 694 175 694 c 0
 183 694 204 693 231 692 c 0
 266 690 298 689 329 689 c 0
 367 689 381 690 444 693 c 0
 450 694 461 694 467 694 c 0
 474 694 477 690 476 681 c 2
 474 669 l 2
 473 656 471 655 444 655 c 0
 388 652 377 640 350 557 c 2
 231 161 l 2
 213 96 213 96 213 85 c 0
 213 51 245 38 328 38 c 0
 402 38 459 47 493 65 c 0
 522 80 526 84 572 154 c 0
 574 157 577 159 579 159 c 0
 581 159 585 158 589 156 c 2
 603 150 l 2
 610 147 612 145 612 142 c 0
 612 139 610 134 608 130 c 2
 558 14 l 2
 551 -2 548 -5 537 -5 c 0
 521 -5 362 -2 256 0 c 2
 187 -1 l 1
 114 -1 l 1
 37 -3 l 2
 22 -4 8 -5 4 -5 c 0
 -3 -5 -5 -3 -5 3 c 2
 -5 8 l 1
 -3 20 l 2
 -2 28 -2 29 1 31 c 0
 2 32 4 33 6 33 c 2
 23 35 l 2
 66 43 76 56 99 132 c 2
EndSplineSet
Validated: 1
EndChar

StartChar: M
Encoding: 77 77 45
Width: 867
Flags: MW
HStem: -5 40<157.5 168 756 765> 654 35
LayerCount: 2
Fore
SplineSet
337 -3 m 1
 312 -3 l 1
 267 492 l 1
 121 120 l 2
 112 97 107 78 107 66 c 0
 107 45 125 35 160 35 c 0
 177 35 181 33 181 26 c 0
 181 24 181 21 180 16 c 2
 178 7 l 2
 177 -2 173 -5 163 -5 c 0
 152 -5 138 -4 109 -2 c 0
 91 -1 78 0 69 0 c 0
 63 0 48 -1 28 -2 c 0
 1 -4 -26 -5 -38 -5 c 0
 -46 -5 -49 -3 -49 4 c 2
 -49 10 l 1
 -47 23 l 2
 -46 28 -45 30 -44 31 c 0
 -42 32 -40 33 -37 33 c 2
 -13 36 l 2
 27 42 39 56 65 120 c 2
 101 208 l 1
 141 306 l 1
 256 590 l 1
 239 648 228 655 152 654 c 0
 145 654 141 657 142 661 c 2
 143 669 l 1
 144 676 l 2
 146 688 148 690 160 690 c 2
 191 690 l 1
 250 691 l 1
 320 692 l 2
 329 693 339 693 344 693 c 0
 360 693 362 691 364 668 c 2
 401 184 l 1
 724 689 l 1
 818 689 l 2
 850 689 865 690 894 692 c 0
 903 693 913 693 919 693 c 0
 926 693 929 691 929 686 c 2
 929 677 l 1
 927 668 l 2
 925 657 922 655 890 654 c 0
 844 653 833 642 819 578 c 2
 709 126 l 2
 698 84 698 84 698 74 c 0
 698 50 719 36 756 35 c 0
 778 35 781 34 781 27 c 0
 781 24 781 24 779 18 c 2
 775 6 l 2
 772 -2 769 -5 761 -5 c 0
 739 -5 699 -4 676 -3 c 0
 649 -1 629 0 624 0 c 0
 618 0 598 -1 569 -3 c 2
 489 -5 l 2
 482 -5 479 -3 479 1 c 2
 479 9 l 1
 481 21 l 2
 482 30 482 30 485 32 c 0
 486 33 489 34 491 35 c 2
 515 35 l 2
 554 37 565 48 580 108 c 2
 693 554 l 1
 337 -3 l 1
EndSplineSet
Validated: 33
EndChar

StartChar: N
Encoding: 78 78 46
Width: 793
Flags: MW
HStem: -5 39<0.5 10> 655 39<129 130 672 673>
LayerCount: 2
Fore
SplineSet
570 -5 m 1
 274 531 l 1
 175 190 l 2
 162 144 151 91 151 71 c 0
 151 43 165 36 216 34 c 0
 235 33 238 33 238 28 c 0
 238 26 237 20 236 18 c 2
 233 7 l 2
 230 -4 229 -5 220 -5 c 0
 213 -5 213 -5 117 0 c 1
 70 -2 l 2
 52 -4 16 -5 4 -5 c 0
 -3 -5 -5 -4 -5 2 c 0
 -5 5 -5 7 -4 9 c 2
 -1 22 l 2
 0 30 1 31 5 33 c 2
 10 34 l 1
 34 35 l 2
 69 40 78 52 98 123 c 2
 242 600 l 1
 215 641 189 654 130 655 c 0
 121 655 117 657 117 662 c 0
 117 664 117 664 118 671 c 2
 120 680 l 2
 122 692 124 694 134 694 c 0
 143 694 161 693 177 692 c 0
 198 690 212 689 223 689 c 0
 230 689 258 690 296 693 c 2
 327 694 l 1
 615 160 l 1
 716 517 l 2
 728 558 737 603 737 619 c 0
 737 644 719 656 682 655 c 0
 662 655 658 656 658 664 c 2
 659 673 l 1
 661 681 l 2
 663 691 665 694 673 694 c 2
 702 693 l 2
 728 691 767 689 779 689 c 0
 789 689 837 691 854 693 c 2
 878 694 l 2
 887 694 889 691 889 682 c 2
 888 669 l 2
 888 659 886 657 879 656 c 0
 820 650 804 633 781 548 c 2
 648 93 l 1
 693 6 l 2
 695 3 695 3 695 2 c 0
 695 -2 690 -5 683 -5 c 2
 570 -5 l 1
EndSplineSet
Validated: 33
EndChar

StartChar: O
Encoding: 79 79 47
Width: 830
Flags: MW
HStem: -20 44<334 429.5 334 516> 667 44<456 551.5>
VStem: 75 131<204.5 338.5 199 421> 682 131<364 487.5 270.5 500>
LayerCount: 2
Fore
SplineSet
492 711 m 0
 687 711 813 585 813 390 c 0
 813 151 638 -20 394 -20 c 0
 195 -20 75 103 75 306 c 0
 75 536 256 711 492 711 c 0
490 667 m 0
 422 667 364 640 317 587 c 0
 248 511 206 395 206 282 c 0
 206 116 273 24 395 24 c 0
 464 24 529 55 575 110 c 0
 642 190 682 306 682 422 c 0
 682 578 613 667 490 667 c 0
EndSplineSet
Validated: 1
EndChar

StartChar: P
Encoding: 80 80 48
Width: 627
Flags: W
HStem: -5 36 301 44<403.5 423> 647 44 664 45<392.5 443.5>
VStem: 512 138<483.5 578 447.5 581.5>
LayerCount: 2
Fore
SplineSet
114 132 m 2xd8
 230 573 l 2
 237 599 240 616 240 629 c 0
 240 647 231 657 213 657 c 0
 210 657 204 656 197 654 c 0
 179 650 167 647 160 647 c 0xe8
 156 647 153 649 153 654 c 0
 153 656 154 660 155 664 c 2xd8
 157 675 l 2
 159 686 162 689 172 691 c 0xe8
 226 702 301 709 377 709 c 0
 562 709 650 645 650 511 c 0
 650 384 565 301 436 301 c 0
 371 301 318 311 318 323 c 0
 318 324 319 329 320 332 c 2
 325 345 l 2
 327 351 331 354 335 354 c 0
 337 354 340 353 343 352 c 0
 358 348 375 345 387 345 c 0
 459 345 512 427 512 540 c 0
 512 623 478 664 409 664 c 0
 376 664 373 661 352 583 c 2
 232 132 l 2
 219 86 219 86 219 72 c 0
 219 47 237 37 285 35 c 0
 306 35 310 33 310 27 c 0
 310 24 310 22 309 19 c 2
 307 9 l 2
 305 -4 303 -5 287 -5 c 0
 278 -5 252 -4 228 -3 c 0
 194 -1 165 0 142 0 c 0
 111 0 98 -1 34 -4 c 0
 27 -5 17 -5 11 -5 c 0
 4 -5 2 -3 2 3 c 2
 2 8 l 1
 4 20 l 2
 5 27 6 30 7 31 c 0
 9 33 11 33 32 34 c 0
 83 39 93 51 114 132 c 2xd8
EndSplineSet
Validated: 1
EndChar

StartChar: Q
Encoding: 81 81 49
Width: 829
Flags: MW
HStem: -234 44<690.5 707> 667 44<457 518.5>
VStem: 75 131<271.5 311.5 234.5 341> 682 130<384.5 438 345 463.5>
LayerCount: 2
Fore
SplineSet
490 -11 m 1
 534 -71 564 -110 577 -125 c 0
 615 -168 662 -190 719 -190 c 0
 732 -190 747 -187 765 -183 c 0
 767 -183 769 -182 771 -182 c 0
 774 -182 776 -184 776 -187 c 2
 775 -193 l 1
 774 -208 l 2
 774 -215 773 -220 770 -221 c 0
 756 -229 728 -234 686 -234 c 0
 615 -234 560 -219 519 -188 c 0
 492 -167 464 -134 433 -89 c 0
 411 -58 395 -38 385 -29 c 0
 379 -24 369 -21 356 -19 c 0
 311 -12 278 -4 257 3 c 0
 236 10 215 22 195 37 c 0
 156 66 126 103 105 148 c 0
 84 193 75 243 75 300 c 0
 75 382 95 455 135 520 c 0
 174 583 227 632 295 666 c 0
 356 696 422 711 492 711 c 0
 590 711 669 681 729 620 c 0
 785 562 812 486 812 390 c 0
 812 300 790 220 744 153 c 0
 685 68 600 13 490 -11 c 1
490 667 m 0
 422 667 364 640 317 587 c 0
 285 551 259 509 241 462 c 0
 218 402 206 342 206 281 c 0
 206 188 227 119 269 74 c 0
 300 40 342 23 395 23 c 0
 443 23 486 37 526 65 c 0
 571 96 609 145 638 212 c 0
 667 278 682 348 682 421 c 0
 682 506 663 571 624 614 c 0
 592 650 547 667 490 667 c 0
EndSplineSet
Validated: 1
Substitution2: "'swsh' Swash lookup 0-1" Q.swsh
EndChar

StartChar: R
Encoding: 82 82 50
Width: 738
Flags: W
HStem: -5 40<0.5 26> 347 45<289 351 299 304> 654 21G<152 156.5> 666 43<412.5 483.5 398 484>
VStem: 564 127<529 581.5 505.5 597.5>
LayerCount: 2
Fore
SplineSet
289 347 m 1xe8
 226 133 l 2
 215 95 212 84 212 71 c 0
 212 47 228 38 273 35 c 0
 301 34 302 34 302 27 c 2
 301 19 l 1
 299 9 l 2
 296 -4 294 -5 279 -5 c 0
 271 -5 248 -4 219 -2 c 0
 189 -1 160 0 132 0 c 0
 97 0 48 -2 17 -4 c 0
 12 -5 6 -5 4 -5 c 0
 -3 -5 -5 -3 -5 3 c 2
 -5 8 l 1
 -3 20 l 2
 -2 28 -2 29 1 31 c 0
 2 32 5 33 6 33 c 2
 26 35 l 2
 71 43 81 55 104 133 c 2
 216 514 l 2
 239 594 242 606 242 624 c 0
 242 647 228 658 198 658 c 0
 190 658 183 658 176 656 c 0
 166 655 158 654 155 654 c 0xe8
 149 654 146 657 146 661 c 0
 146 662 146 662 149 670 c 2
 152 682 l 2
 155 693 162 696 190 699 c 0
 244 704 359 709 437 709 c 0xd8
 530 709 581 700 625 675 c 0
 667 651 691 607 691 556 c 0
 691 455 602 375 466 352 c 1
 499 344 510 325 560 195 c 0
 606 73 626 44 667 38 c 0
 685 35 687 34 687 28 c 0
 687 26 687 25 685 17 c 2
 682 5 l 2
 680 -3 677 -5 670 -5 c 0
 665 -5 657 -5 650 -4 c 0
 624 -1 608 0 600 0 c 0
 589 0 567 -2 553 -3 c 0
 546 -4 539 -5 535 -5 c 0
 518 -5 509 6 496 40 c 2
 407 271 l 2
 382 335 366 347 304 347 c 2
 289 347 l 1xe8
299 392 m 1
 351 392 l 2
 423 392 468 402 503 425 c 0
 542 451 564 499 564 559 c 0
 564 636 529 666 439 666 c 0xd8
 386 666 379 660 361 600 c 2
 299 392 l 1
EndSplineSet
Validated: 1
EndChar

StartChar: S
Encoding: 83 83 51
Width: 498
Flags: W
HStem: -20 44<192.5 243 174.5 288> 667 44<322.5 385.5>
VStem: 21 72<33.5 117> 57 42 130 109<527 532> 333 115<113.5 161.5> 449 43 457 70<578 652>
LayerCount: 2
Fore
SplineSet
479 530 m 2xce
 460 535 l 2
 452 538 449 540 449 544 c 2xce
 450 550 l 2
 455 563 457 573 457 583 c 0
 457 632 415 667 356 667 c 0
 288 667 239 620 239 554 c 0
 239 500 260 462 332 388 c 0
 422 294 448 246 448 171 c 0
 448 56 357 -20 219 -20 c 0
 166 -20 93 -5 43 16 c 0
 27 23 21 29 21 38 c 0xed
 21 43 22 45 27 59 c 0
 29 67 31 74 33 80 c 2
 48 126 l 2
 50 134 55 155 57 165 c 0
 58 170 60 172 64 172 c 0
 66 172 66 172 72 171 c 2
 88 169 l 2
 98 167 100 166 100 162 c 2
 99 153 l 2xdc
 95 136 93 122 93 112 c 0
 93 62 142 24 207 24 c 0
 279 24 333 72 333 134 c 0
 333 189 310 228 227 317 c 0
 153 395 130 439 130 505 c 0
 130 559 152 611 191 650 c 0
 233 691 287 711 358 711 c 0
 416 711 472 695 511 666 c 0
 522 659 527 654 527 650 c 0xed
 527 647 525 641 520 629 c 0
 505 589 495 555 492 534 c 0
 491 529 490 528 487 528 c 0
 486 528 484 528 479 530 c 2xce
EndSplineSet
Validated: 1
EndChar

StartChar: T
Encoding: 84 84 52
Width: 682
Flags: MW
HStem: -5 36 644 49<236 660 269 354 579 615 615 642>
VStem: 154 47<718 734.5> 703 44<551 561 556 561>
LayerCount: 2
Fore
SplineSet
354 644 m 2
 266 644 l 2
 206 644 192 636 163 586 c 0
 149 563 148 562 142 562 c 0
 129 562 107 572 107 577 c 0
 107 580 108 582 109 585 c 2
 112 594 l 1
 154 718 l 2
 160 737 160 737 172 737 c 2
 191 737 l 2
 199 737 201 736 201 733 c 0
 201 732 201 729 200 727 c 0
 198 720 198 717 198 713 c 0
 198 696 210 693 269 693 c 2
 660 693 l 2
 716 693 729 698 745 727 c 0
 749 735 751 737 755 737 c 0
 757 737 757 737 764 736 c 2
 780 734 l 2
 788 733 790 731 790 728 c 0
 790 726 790 726 786 712 c 2
 747 561 l 2
 742 541 742 540 735 540 c 0
 718 540 703 545 703 551 c 2
 703 556 l 1
 704 562 l 1
 707 588 l 2
 708 596 709 602 709 606 c 0
 710 631 687 644 642 644 c 2
 615 644 l 2
 543 644 535 639 519 584 c 2
 390 132 l 2
 381 101 377 83 377 72 c 0
 377 48 395 37 438 35 c 0
 461 34 463 33 463 27 c 0
 463 25 463 22 462 19 c 2
 460 9 l 2
 457 -3 455 -5 442 -5 c 0
 433 -5 413 -4 385 -3 c 0
 350 -1 318 0 287 0 c 0
 248 0 234 -1 171 -4 c 0
 164 -5 154 -5 148 -5 c 0
 140 -5 138 -1 139 8 c 2
 141 20 l 2
 142 28 142 29 144 31 c 0
 147 33 151 34 170 34 c 0
 227 38 237 49 262 132 c 2
 393 585 l 2
 399 606 403 623 403 629 c 0
 403 641 394 644 354 644 c 2
EndSplineSet
Validated: 33
EndChar

StartChar: U
Encoding: 85 85 53
Width: 812
Flags: MW
HStem: -21 50<351.5 435.5> 654 40<671 677.5>
VStem: 114 123<123.5 180>
LayerCount: 2
Fore
SplineSet
332 556 m 2
 266 328 l 2
 246 257 237 208 237 166 c 0
 237 81 300 29 403 29 c 0
 540 29 610 100 659 289 c 2
 712 494 l 2
 736 601 736 601 736 618 c 0
 736 641 716 654 680 654 c 0
 659 654 657 655 657 659 c 0
 657 661 658 664 659 668 c 2
 663 683 l 2
 665 692 667 694 675 694 c 0
 680 694 695 693 709 692 c 0
 734 691 771 689 781 689 c 2
 856 692 l 2
 869 693 879 694 885 694 c 0
 891 694 895 691 895 686 c 0
 895 685 895 681 894 677 c 2
 893 672 l 2
 890 657 888 655 878 654 c 0
 827 654 808 634 789 562 c 2
 711 270 l 2
 680 154 647 87 600 45 c 0
 553 1 482 -21 389 -21 c 0
 220 -21 114 49 114 162 c 0
 114 198 129 267 165 394 c 2
 212 556 l 2
 223 594 225 604 225 617 c 0
 225 641 210 652 170 654 c 0
 148 655 146 655 146 661 c 0
 146 663 147 665 149 671 c 2
 154 681 l 2
 159 692 161 694 170 694 c 0
 176 694 183 694 191 693 c 0
 222 691 289 689 315 689 c 0
 345 689 354 689 420 693 c 0
 429 694 439 694 447 694 c 0
 453 694 456 692 456 689 c 0
 456 688 455 685 454 681 c 2
 451 669 l 2
 449 663 447 659 445 658 c 0
 443 656 438 655 420 655 c 0
 367 651 355 638 332 556 c 2
EndSplineSet
Validated: 1
EndChar

StartChar: V
Encoding: 86 86 54
Width: 738
Flags: MW
HStem: -21 21G<321 357 321 321> 656 38
LayerCount: 2
Fore
SplineSet
357 -21 m 1
 321 -21 l 1
 186 581 l 2
 174 644 166 654 129 656 c 0
 104 655 101 656 101 661 c 0
 101 663 101 668 102 671 c 2
 104 683 l 2
 105 693 107 694 123 694 c 0
 135 694 171 692 195 691 c 0
 219 690 231 689 241 689 c 2
 378 694 l 2
 384 694 388 692 388 688 c 2
 387 684 l 1
 387 678 l 1
 384 667 l 2
 382 657 380 655 367 654 c 0
 342 655 334 654 325 649 c 0
 313 644 305 629 305 612 c 0
 305 598 310 563 315 537 c 2
 398 138 l 1
 639 549 l 2
 663 589 674 614 674 629 c 0
 674 645 656 655 628 655 c 0
 604 656 602 656 602 661 c 0
 602 663 602 663 604 672 c 2
 607 684 l 2
 609 692 613 694 622 694 c 0
 635 694 670 693 685 692 c 0
 707 690 723 689 725 689 c 0
 778 692 807 694 820 694 c 0
 827 694 830 692 830 687 c 2
 830 679 l 1
 829 669 l 2
 828 660 825 657 816 656 c 0
 765 649 759 644 707 560 c 2
 357 -21 l 1
EndSplineSet
Validated: 33
EndChar

StartChar: W
Encoding: 87 87 55
Width: 996
Flags: MW
HStem: -21 21G<312 356 312 312 588 629 588 588> 655 39<344 346 403 404 822 822 906 918>
LayerCount: 2
Fore
SplineSet
395 128 m 1
 512 321 l 1
 448 596 l 2
 436 648 431 654 404 655 c 0
 393 655 392 656 392 661 c 0
 392 665 392 667 393 672 c 2
 395 682 l 2
 396 691 399 694 407 694 c 0
 419 694 450 693 465 692 c 0
 487 690 502 689 504 689 c 0
 565 693 597 694 611 694 c 0
 616 694 618 693 618 690 c 0
 618 688 617 685 616 680 c 2
 614 671 l 2
 613 663 611 660 609 659 c 2
 602 657 l 1
 590 656 l 2
 568 655 554 646 554 631 c 0
 554 626 554 625 561 592 c 2
 591 459 l 1
 660 574 l 2
 672 595 683 620 683 630 c 0
 683 645 671 653 646 653 c 0
 641 654 640 654 640 658 c 0
 640 660 641 665 642 668 c 2
 645 683 l 2
 647 691 650 694 657 694 c 0
 666 694 696 693 707 692 c 0
 725 690 738 689 739 689 c 0
 789 693 810 694 827 694 c 0
 833 694 836 692 836 687 c 2
 835 676 l 1
 833 666 l 2
 832 661 830 658 827 656 c 2
 822 655 l 1
 803 653 l 2
 771 650 760 641 733 597 c 2
 603 395 l 1
 668 123 l 1
 913 539 l 2
 935 576 952 616 952 631 c 0
 952 650 941 655 898 655 c 0
 894 655 892 657 892 660 c 0
 892 661 892 663 893 665 c 2
 894 669 l 1
 897 681 l 2
 899 691 902 694 910 694 c 0
 926 694 954 692 1004 689 c 1
 1040 692 l 2
 1051 693 1084 694 1093 694 c 0
 1099 694 1101 692 1101 688 c 0
 1101 687 1100 684 1099 680 c 2
 1096 666 l 2
 1093 658 1091 656 1084 654 c 0
 1041 644 1026 629 983 556 c 2
 629 -21 l 1
 588 -21 l 1
 525 262 l 1
 356 -21 l 1
 312 -21 l 1
 172 583 l 2
 160 637 155 643 112 655 c 0
 108 656 107 657 107 660 c 2
 108 670 l 1
 112 684 l 2
 113 692 116 694 124 694 c 0
 134 694 163 693 237 689 c 1
 283 691 l 2
 308 693 337 694 351 694 c 0
 358 694 360 693 360 688 c 0
 360 685 360 685 358 679 c 2
 356 667 l 2
 354 661 353 658 351 657 c 2
 346 655 l 1
 331 655 l 2
 302 653 287 640 287 617 c 0
 287 606 294 563 299 540 c 2
 395 128 l 1
EndSplineSet
Validated: 1
EndChar

StartChar: X
Encoding: 88 88 56
Width: 719
Flags: MW
HStem: -5 39<-11 -11 -11 -6 643.5 656> 655 39<139.5 157.5 410 414>
LayerCount: 2
Fore
SplineSet
344 330 m 1
 247 568 l 2
 215 647 205 656 143 655 c 0
 136 655 133 659 133 664 c 0
 133 666 134 669 135 673 c 2
 138 683 l 2
 140 692 143 694 151 694 c 0
 164 694 214 693 232 692 c 0
 262 690 283 689 288 689 c 0
 294 689 315 690 343 692 c 0
 363 693 404 694 416 694 c 0
 424 694 427 692 427 685 c 0
 427 683 427 679 426 676 c 2
 425 666 l 2
 424 661 422 657 420 656 c 2
 414 655 l 1
 398 655 l 2
 373 655 356 642 356 625 c 0
 356 615 361 600 375 564 c 2
 433 417 l 1
 570 562 l 2
 605 598 617 616 617 630 c 0
 617 648 601 655 553 658 c 0
 549 658 547 660 547 663 c 2
 548 672 l 1
 551 684 l 2
 553 692 556 694 563 694 c 2
 637 692 l 2
 661 690 678 689 682 689 c 0
 684 689 700 690 722 692 c 2
 786 694 l 2
 793 694 796 692 796 688 c 0
 796 687 796 687 795 678 c 2
 793 669 l 2
 791 657 790 656 781 655 c 0
 733 649 704 631 653 580 c 2
 454 372 l 1
 559 111 l 2
 588 39 595 34 659 34 c 0
 665 33 668 32 668 28 c 0
 668 27 668 27 666 17 c 2
 665 7 l 2
 664 -2 660 -5 652 -5 c 0
 635 -5 605 -4 516 0 c 1
 452 -3 l 1
 403 -4 l 1
 373 -5 l 1
 371 -5 l 2
 367 -5 365 -4 365 -1 c 0
 365 0 365 0 367 7 c 2
 371 23 l 2
 372 29 373 30 373 30 c 2
 375 34 377 34 400 34 c 0
 431 34 446 45 446 66 c 0
 446 78 439 99 418 151 c 2
 363 286 l 1
 226 135 l 2
 178 83 168 69 168 56 c 0
 168 45 186 36 212 35 c 0
 232 35 235 34 235 29 c 0
 235 28 235 27 233 18 c 2
 230 8 l 2
 227 -4 225 -5 213 -5 c 2
 185 -4 l 1
 146 -2 l 2
 127 -1 112 0 104 0 c 0
 96 0 80 -1 58 -2 c 0
 38 -3 0 -5 -12 -5 c 0
 -19 -5 -22 -3 -22 1 c 0
 -22 2 -22 4 -21 6 c 2
 -19 12 l 1
 -16 24 l 2
 -14 32 -13 33 -11 34 c 2
 -7 36 l 1
 16 37 l 2
 55 40 94 67 161 137 c 2
 344 330 l 1
EndSplineSet
Validated: 33
EndChar

StartChar: Y
Encoding: 89 89 57
Width: 738
Flags: MW
HStem: -5 38<149.5 152 149.5 167.5> 654 40
LayerCount: 2
Fore
SplineSet
422 371 m 1
 596 556 l 2
 633 595 646 614 646 630 c 0
 646 646 629 654 596 655 c 0
 574 656 572 657 572 664 c 0
 572 666 572 666 574 671 c 2
 576 684 l 2
 577 692 579 694 587 694 c 2
 652 692 l 2
 676 690 694 689 696 689 c 0
 758 693 788 694 805 694 c 0
 811 694 813 693 813 689 c 2
 813 689 813 688 812 679 c 2
 810 665 l 2
 808 657 807 655 799 654 c 0
 755 644 726 625 683 576 c 2
 447 322 l 1
 395 132 l 2
 384 95 382 84 382 72 c 0
 382 46 396 39 450 34 c 0
 457 34 460 31 460 27 c 0
 460 26 459 23 458 19 c 2
 456 9 l 2
 454 -3 451 -5 442 -5 c 0
 437 -5 432 -5 425 -4 c 0
 393 -2 323 0 299 0 c 0
 277 0 252 -1 225 -3 c 0
 187 -5 184 -5 151 -5 c 0
 144 -5 142 -3 142 3 c 2
 142 8 l 1
 144 20 l 2
 145 31 147 33 152 33 c 2
 171 34 l 1
 196 36 l 2
 250 39 259 49 280 132 c 2
 323 307 l 1
 218 594 l 2
 202 641 192 651 158 653 c 0
 129 654 129 654 129 659 c 0
 129 661 130 664 131 670 c 2
 134 683 l 2
 137 692 139 694 149 694 c 2
 237 692 l 2
 265 690 285 689 289 689 c 0
 294 689 314 690 341 692 c 0
 362 693 400 695 412 695 c 0
 419 695 422 693 422 688 c 0
 422 686 422 683 421 679 c 2
 418 667 l 2
 415 654 414 654 387 654 c 0
 356 654 340 644 340 624 c 0
 340 618 340 618 356 563 c 2
 422 371 l 1
EndSplineSet
Validated: 1
EndChar

StartChar: Z
Encoding: 90 90 58
Width: 664
Flags: MW
HStem: 0 48 651 45<246 661 318 517>
VStem: 118 40
LayerCount: 2
Fore
SplineSet
517 651 m 1
 280 651 l 2
 212 651 181 633 158 580 c 0
 155 573 153 571 147 571 c 0
 145 571 140 572 138 573 c 2
 126 578 l 2
 120 581 118 583 118 587 c 0
 118 589 118 590 120 594 c 2
 172 740 l 1
 204 740 l 1
 240 700 250 696 318 696 c 2
 661 696 l 2
 672 696 675 695 675 690 c 0
 675 687 671 680 664 670 c 2
 213 67 l 2
 204 57 204 57 204 54 c 0
 204 50 210 48 226 48 c 2
 398 49 l 2
 465 50 485 52 500 59 c 0
 510 65 520 73 528 82 c 0
 537 94 543 103 548 112 c 2
 566 141 l 2
 575 155 580 160 584 160 c 2
 591 159 l 1
 603 154 l 2
 610 152 614 148 614 143 c 0
 614 141 613 137 611 132 c 0
 596 95 581 45 572 9 c 0
 570 -3 567 -5 559 -5 c 2
 499 -4 l 2
 459 -2 331 0 301 0 c 2
 123 -3 l 2
 96 -4 74 -5 60 -5 c 0
 45 -5 38 0 38 9 c 0
 38 14 43 22 54 37 c 2
 517 651 l 1
EndSplineSet
Validated: 1
EndChar

StartChar: bracketleft
Encoding: 91 91 59
Width: 295
Flags: MW
HStem: -156 36<162 164 162 162> 694 37
LayerCount: 2
Fore
SplineSet
-54 -141 m 1
 201 714 l 2
 205 729 207 731 217 731 c 0
 221 731 236 730 254 729 c 0
 262 728 271 728 283 728 c 0
 308 728 336 729 355 730 c 0
 375 732 394 733 404 733 c 0
 407 733 409 732 409 729 c 0
 409 727 409 727 407 721 c 2
 402 700 l 2
 401 697 399 695 397 695 c 2
 392 694 l 1
 384 694 l 1
 343 694 l 2
 288 694 283 690 265 629 c 2
 69 -34 l 2
 55 -79 55 -79 55 -90 c 0
 55 -102 61 -111 73 -115 c 0
 82 -119 87 -120 139 -120 c 2
 168 -120 l 2
 179 -120 179 -120 179 -123 c 0
 179 -124 179 -124 177 -130 c 2
 171 -147 l 2
 168 -155 168 -156 164 -156 c 2
 162 -156 l 2
 145 -155 77 -153 56 -153 c 0
 24 -153 24 -153 -33 -157 c 0
 -38 -158 -45 -158 -50 -158 c 0
 -55 -158 -57 -157 -57 -153 c 2
 -56 -147 l 1
 -54 -141 l 1
EndSplineSet
Validated: 1
EndChar

StartChar: backslash
Encoding: 92 92 60
Width: 498
Flags: MW
HStem: 690 20G<172 214 214 220>
VStem: 158 251
LayerCount: 2
Fore
SplineSet
172 710 m 2
 214 710 l 2
 226 710 229 707 232 696 c 2
 406 -4 l 2
 408 -10 409 -16 409 -18 c 0
 409 -21 405 -23 395 -23 c 2
 360 -23 l 2
 344 -23 336 -19 334 -8 c 2
 160 693 l 2
 159 697 158 701 158 703 c 0
 158 707 164 710 172 710 c 2
EndSplineSet
Validated: 1
EndChar

StartChar: bracketright
Encoding: 93 93 61
Width: 295
Flags: MW
HStem: -157 37 694 36<144.5 155 154 155 154 179>
LayerCount: 2
Fore
SplineSet
371 715 m 1
 117 -140 l 2
 112 -155 111 -157 100 -157 c 0
 97 -157 82 -156 64 -155 c 0
 55 -154 47 -154 34 -154 c 0
 13 -154 -17 -155 -37 -156 c 0
 -57 -157 -77 -158 -85 -158 c 0
 -89 -158 -91 -157 -91 -154 c 0
 -91 -153 -91 -153 -90 -147 c 2
 -84 -126 l 2
 -83 -123 -82 -122 -80 -121 c 2
 -75 -120 l 1
 -66 -120 l 1
 -25 -120 l 2
 29 -120 34 -116 52 -55 c 2
 249 608 l 2
 263 652 263 652 263 664 c 0
 263 676 257 685 245 689 c 0
 235 693 230 694 179 694 c 2
 150 694 l 2
 139 694 139 694 139 697 c 0
 139 698 139 698 141 704 c 2
 147 721 l 2
 149 729 150 730 154 730 c 2
 155 730 l 2
 173 729 241 727 262 727 c 0
 295 727 295 727 351 731 c 0
 357 732 364 732 368 732 c 0
 373 732 375 730 375 727 c 2
 374 721 l 1
 371 715 l 1
EndSplineSet
Validated: 1
EndChar

StartChar: asciicircum
Encoding: 94 94 62
Width: 498
Flags: MW
HStem: 485 265<48 279 220 451>
VStem: 220 59<750 750>
LayerCount: 2
Fore
SplineSet
263 573 m 2
 250 586 l 1
 245 581 241 577 236 573 c 0
 189 521 129 493 48 485 c 1
 48 530 l 1
 139 576 214 672 220 750 c 1
 279 750 l 1
 284 673 360 576 451 530 c 1
 451 485 l 1
 371 492 309 522 263 573 c 2
EndSplineSet
Validated: 1
EndChar

StartChar: underscore
Encoding: 95 95 63
Width: 498
Flags: MW
HStem: -250 51<-1 499 -1 499>
LayerCount: 2
Fore
SplineSet
-1 -199 m 1
 499 -199 l 1
 499 -250 l 1
 -1 -250 l 1
 -1 -199 l 1
EndSplineSet
Validated: 1
EndChar

StartChar: quoteleft
Encoding: 8216 8216 64
Width: 258
Flags: MW
HStem: 662 33<323 329>
VStem: 120 79<494 588>
LayerCount: 2
Fore
SplineSet
329 695 m 1
 323 662 l 1
 236 639 199 610 199 566 c 0
 199 547 207 537 231 527 c 0
 267 512 277 501 277 474 c 0
 277 440 250 416 212 416 c 0
 156 416 120 460 120 528 c 0
 120 579 146 619 203 652 c 0
 237 673 270 684 329 695 c 1
EndSplineSet
Validated: 1
EndChar

StartChar: a
Encoding: 97 97 65
Width: 516
Flags: MW
HStem: -19 89<73 179.5> 363 64
VStem: 28 102<101 139.5> 282 100<16 113.5>
LayerCount: 2
Fore
SplineSet
471 146 m 1
 494 126 l 1
 430 30 376 -19 333 -19 c 0
 303 -19 282 1 282 31 c 0
 282 58 282 58 318 166 c 0
 321 174 324 184 326 193 c 1
 285 134 274 118 249 87 c 0
 198 22 138 -19 93 -19 c 0
 53 -19 28 13 28 63 c 0
 28 216 228 427 373 427 c 0
 383 427 393 426 415 422 c 1
 445 464 448 466 473 466 c 0
 496 466 509 462 509 456 c 0
 509 454 508 448 506 445 c 2
 440 281 l 2
 401 183 382 125 382 102 c 0
 382 87 390 76 400 76 c 0
 414 76 424 85 471 146 c 1
330 363 m 0
 295 365 242 331 198 280 c 0
 157 230 130 167 130 117 c 0
 130 85 141 70 163 70 c 0
 196 70 227 100 284 187 c 0
 331 256 366 321 366 337 c 0
 366 352 352 362 330 363 c 0
EndSplineSet
Validated: 33
Substitution2: "'smcp' Lowercase to Small Capitals lookup 4-1" a.smcp
EndChar

StartChar: b
Encoding: 98 98 66
Width: 553
Flags: MW
HStem: -19 58<181.5 221> 431 20G<402 466> 703 31<129 138>
VStem: 422 109<306 339>
LayerCount: 2
Fore
SplineSet
339 765 m 1
 175 250 l 1
 271 379 365 451 439 451 c 0
 493 451 531 409 531 350 c 0
 531 184 311 -19 131 -19 c 0
 74 -19 36 11 36 56 c 0
 36 82 44 122 60 175 c 2
 158 500 l 2
 182 579 202 659 202 673 c 0
 202 695 189 701 129 703 c 1
 138 734 l 1
 220 745 242 750 331 773 c 1
 339 765 l 1
379 372 m 0
 340 375 286 336 228 264 c 0
 177 199 148 141 144 96 c 0
 141 64 165 39 198 39 c 0
 250 39 312 92 369 185 c 0
 405 245 422 288 422 324 c 0
 422 354 407 370 379 372 c 0
EndSplineSet
Validated: 33
Substitution2: "'smcp' Lowercase to Small Capitals lookup 4-1" b.smcp
EndChar

StartChar: c
Encoding: 99 99 67
Width: 424
Flags: MW
HStem: -19 70<201 218.5> 412 39<256 299>
VStem: 34 108<126 223 126 223.5> 328 109<344 375>
LayerCount: 2
Fore
SplineSet
348 113 m 1
 371 94 l 1
 310 12 257 -19 180 -19 c 0
 89 -19 34 42 34 142 c 0
 34 305 165 451 310 451 c 0
 385 451 437 414 437 361 c 0
 437 327 414 304 380 304 c 0
 344 304 328 322 328 364 c 0
 328 386 327 393 323 399 c 0
 318 406 305 412 293 412 c 0
 219 412 142 284 142 162 c 0
 142 90 173 51 229 51 c 0
 271 51 300 66 348 113 c 1
EndSplineSet
Validated: 1
Substitution2: "'smcp' Lowercase to Small Capitals lookup 4-1" c.smcp
EndChar

StartChar: d
Encoding: 100 100 68
Width: 553
Flags: MW
HStem: -19 79<168 171.5> 411 40<304 341.5> 702 33<391 402>
VStem: 313 97<13 92.5>
LayerCount: 2
Fore
SplineSet
500 150 m 1
 526 131 l 1
 445 11 412 -19 357 -19 c 0
 329 -19 313 -2 313 28 c 0
 313 49 313 49 333 124 c 1
 337 144 l 1
 258 21 208 -19 135 -19 c 0
 71 -19 32 30 32 112 c 0
 32 285 179 451 332 451 c 0
 358 451 376 447 410 434 c 1
 445 555 l 2
 474 654 474 654 474 668 c 0
 474 694 460 700 391 702 c 1
 402 735 l 1
 472 742 525 753 594 772 c 1
 605 763 l 1
 432 184 l 2
 422 152 410 98 410 87 c 0
 410 76 415 70 423 70 c 0
 440 70 453 84 500 150 c 1
324 411 m 0
 284 411 243 385 213 340 c 0
 172 278 144 195 140 121 c 0
 138 83 154 60 182 60 c 0
 218 60 255 86 293 137 c 0
 339 200 384 307 384 356 c 0
 384 388 359 411 324 411 c 0
EndSplineSet
Validated: 33
Substitution2: "'smcp' Lowercase to Small Capitals lookup 4-1" d.smcp
EndChar

StartChar: e
Encoding: 101 101 69
Width: 424
Flags: MW
HStem: -19 64<199.5 219> 412 39<276.5 302.5>
VStem: 33 109<115.5 154 115.5 175> 336 91<341 366>
LayerCount: 2
Fore
SplineSet
342 104 m 1
 363 86 l 1
 303 8 257 -19 181 -19 c 0
 88 -19 33 37 33 132 c 0
 33 218 70 306 134 372 c 0
 185 425 243 451 310 451 c 0
 381 451 427 415 427 359 c 0
 427 310 392 266 328 236 c 0
 287 217 226 204 148 197 c 1
 143 173 142 162 142 146 c 0
 142 85 175 45 224 45 c 0
 263 45 298 62 342 104 c 1
153 237 m 1
 187 239 213 244 236 252 c 0
 293 273 336 320 336 362 c 0
 336 370 333 380 325 396 c 0
 319 406 309 412 296 412 c 0
 249 412 192 343 153 237 c 1
EndSplineSet
Validated: 1
Substitution2: "'smcp' Lowercase to Small Capitals lookup 4-1" e.smcp
EndChar

StartChar: f
Encoding: 102 102 70
Width: 295
Flags: MW
HStem: -255 60<-10 -8.5> 375 45<42 129 60 120 244 322> 724 44<341.5 357>
LayerCount: 2
Fore
SplineSet
235 375 m 1
 171 91 l 2
 121 -128 38 -255 -55 -255 c 0
 -86 -255 -105 -238 -105 -210 c 0
 -105 -182 -85 -158 -62 -158 c 0
 -49 -158 -38 -165 -24 -183 c 0
 -17 -191 -12 -195 -8 -195 c 0
 6 -195 30 -126 46 -36 c 2
 120 375 l 1
 48 375 l 2
 36 375 34 376 34 381 c 0
 34 382 34 384 35 386 c 2
 37 394 l 1
 41 408 l 2
 44 420 44 420 60 420 c 2
 129 420 l 1
 131 430 132 440 134 449 c 0
 150 542 151 546 167 587 c 0
 215 708 284 768 376 768 c 0
 431 768 473 740 473 703 c 0
 473 678 452 657 428 657 c 0
 409 657 398 666 385 693 c 0
 376 713 363 724 351 724 c 0
 332 724 306 700 297 674 c 0
 275 614 267 579 244 420 c 1
 333 420 l 2
 344 420 346 419 346 415 c 0
 346 413 346 413 344 406 c 2
 341 389 l 2
 338 375 338 375 322 375 c 2
 235 375 l 1
EndSplineSet
Validated: 1
Substitution2: "'smcp' Lowercase to Small Capitals lookup 4-1" f.smcp
EndChar

StartChar: g
Encoding: 103 103 71
Width: 480
Flags: W
HStem: -270 40<142.5 217.5 142.5 257> 123 39 365 64<484 500.5> 412 39<261 289 212.5 295.5>
VStem: -40 88<-164.5 -118.5 -167.5 -117> 68 96<231 251.5 213 318> 91 95<24 90> 308 108<-174 -130.5> 333 101<240.5 359>
LayerCount: 2
Fore
SplineSet
376 420 m 1xdc
 484 428 l 2
 494 429 494 429 497 429 c 0
 504 429 509 425 509 419 c 0
 509 417 508 413 505 404 c 2
 495 378 l 2
 491 367 489 365 484 365 c 2
 471 366 l 1
 414 369 l 1
 430 336 434 321 434 293 c 0xec80
 434 188 355 127 216 123 c 1
 194 107 186 97 186 83 c 0
 186 62 201 51 279 17 c 0
 337 -10 361 -24 381 -44 c 0
 404 -69 416 -98 416 -131 c 0
 416 -218 329 -270 185 -270 c 0
 99 -270 30 -251 -12 -216 c 0
 -30 -201 -40 -178 -40 -151 c 0
 -40 -83 3 -50 135 -19 c 1
 103 0 91 14 91 34 c 0xeb
 91 61 108 83 159 120 c 2
 175 132 l 1
 99 159 68 197 68 265 c 0
 68 371 155 451 270 451 c 0
 308 451 331 445 376 420 c 1xdc
278 412 m 0xdc80
 244 412 217 391 195 348 c 0
 175 310 164 268 164 235 c 0
 164 191 188 162 226 162 c 0
 254 162 277 177 296 207 c 0
 320 245 333 291 333 335 c 0
 333 383 313 412 278 412 c 0xdc80
173 -41 m 1
 84 -66 48 -95 48 -142 c 0
 48 -193 104 -230 181 -230 c 0
 254 -230 308 -197 308 -151 c 0xc9
 308 -110 270 -79 173 -41 c 1
EndSplineSet
Validated: 1
Substitution2: "'smcp' Lowercase to Small Capitals lookup 4-1" g.smcp
Substitution2: "'cv01' Character Variants 01 lookup 1-1" g.cv01
EndChar

StartChar: h
Encoding: 104 104 72
Width: 553
Flags: MW
HStem: -19 64<253 323.5> 381 70<370 472.5> 703 32<149 149 149 170>
VStem: 23 105 416 109<311.5 348.5>
LayerCount: 2
Fore
SplineSet
142 703 m 1
 149 735 l 1
 199 740 264 753 337 772 c 1
 349 767 l 1
 304 611 l 1
 277 519 l 2
 270 494 263 470 255 446 c 0
 249 429 243 411 238 394 c 2
 185 224 l 1
 246 315 256 328 283 357 c 0
 341 420 395 451 448 451 c 0
 497 451 525 412 525 342 c 0
 525 271 490 178 432 95 c 0
 380 20 324 -19 269 -19 c 0
 237 -19 215 -1 215 26 c 0
 215 53 235 74 259 74 c 0
 272 74 283 69 295 57 c 0
 306 47 308 45 315 45 c 0
 332 45 356 79 373 128 c 0
 397 200 416 289 416 334 c 0
 416 363 406 381 389 381 c 0
 351 381 302 336 245 250 c 0
 205 190 145 77 128 31 c 0
 117 3 113 -6 108 -9 c 0
 104 -13 93 -14 68 -14 c 0
 35 -14 23 -10 23 1 c 0
 23 7 23 8 89 210 c 0
 103 254 115 296 126 335 c 2
 184 536 l 2
 199 589 215 658 215 670 c 0
 215 695 198 703 142 703 c 1
EndSplineSet
Validated: 1
Substitution2: "'smcp' Lowercase to Small Capitals lookup 4-1" h.smcp
EndChar

StartChar: i
Encoding: 105 105 73
Width: 313
Flags: W
HStem: -19 83<80 179> 361 90<114.5 219> 582 127<235.5 270.5 235.5 271>
VStem: 28 227<328 415> 190 127<628 662.5>
LayerCount: 2
Fore
SplineSet
262 140 m 1xf0
 286 120 l 1
 215 28 152 -19 98 -19 c 0
 62 -19 37 3 37 33 c 0
 37 56 45 81 98 213 c 0
 128 290 142 332 142 343 c 0
 142 353 134 361 124 361 c 0
 105 361 91 351 53 312 c 0
 51 310 49 309 47 309 c 0
 46 309 45 310 41 313 c 2
 32 322 l 2
 29 325 28 327 28 329 c 0
 28 331 31 336 40 347 c 0
 93 410 158 451 202 451 c 0
 236 451 255 432 255 398 c 0
 255 365 251 352 200 223 c 0
 192 202 192 202 184 183 c 2
 157 114 l 2
 152 103 150 93 150 86 c 0
 150 74 160 64 170 64 c 0
 188 64 206 79 262 140 c 1xf0
253 709 m 0
 288 709 317 681 317 646 c 0
 317 610 289 582 253 582 c 0
 218 582 190 611 190 645 c 0xe8
 190 680 218 709 253 709 c 0
EndSplineSet
Validated: 1
Substitution2: "'smcp' Lowercase to Small Capitals lookup 4-1" i.smcp
EndChar

StartChar: j
Encoding: 106 106 74
Width: 295
Flags: W
HStem: -270 57<-60.5 6> 361 90<141 235> 582 127<247 282>
VStem: 165 112<337 410.5> 201 127<628 662.5>
LayerCount: 2
Fore
SplineSet
29 -164 m 2xf0
 152 280 l 2
 161 312 165 332 165 342 c 0
 165 352 157 361 148 361 c 0
 134 361 111 345 82 315 c 0
 71 304 68 301 65 301 c 0
 64 301 64 301 59 306 c 2
 50 315 l 2
 45 319 45 320 45 321 c 0
 45 326 67 351 98 382 c 0
 147 433 179 451 216 451 c 0
 254 451 277 429 277 392 c 0
 277 365 273 345 236 207 c 0
 191 39 174 -10 131 -99 c 0
 76 -215 19 -270 -45 -270 c 0
 -76 -270 -99 -248 -99 -219 c 0
 -99 -192 -83 -173 -59 -173 c 0
 -41 -173 -31 -181 -15 -204 c 0
 -11 -210 -7 -213 -1 -213 c 0
 13 -213 18 -206 29 -164 c 2xf0
264 709 m 0
 300 709 328 681 328 646 c 0
 328 610 300 582 264 582 c 0
 230 582 201 611 201 645 c 0xe8
 201 680 230 709 264 709 c 0
EndSplineSet
Validated: 1
Substitution2: "'smcp' Lowercase to Small Capitals lookup 4-1" j.smcp
EndChar

StartChar: k
Encoding: 107 107 75
Width: 535
Flags: MW
HStem: -19 70<367 439.5> 387 64<369 464.5> 704 31<146 155>
VStem: 425 96<327 356>
LayerCount: 2
Fore
SplineSet
146 704 m 1
 155 735 l 1
 169 737 l 1
 253 751 l 2
 267 753 305 761 348 773 c 1
 359 765 l 1
 226 328 l 1
 259 361 271 372 290 389 c 0
 336 430 387 451 439 451 c 0
 490 451 521 419 521 366 c 0
 521 288 443 234 307 219 c 1
 331 203 344 184 363 134 c 0
 387 71 403 51 428 51 c 0
 451 51 475 70 500 109 c 1
 518 93 l 1
 467 10 430 -19 376 -19 c 0
 358 -19 340 -13 329 -3 c 0
 301 21 294 35 261 128 c 0
 235 199 225 213 193 220 c 1
 133 25 l 2
 122 -11 119 -13 82 -13 c 0
 48 -13 30 -6 30 6 c 0
 30 15 64 120 108 250 c 0
 125 302 138 341 144 365 c 2
 206 590 l 2
 225 659 225 659 225 669 c 0
 225 695 208 703 146 704 c 1
201 252 m 1
 220 252 l 2
 354 252 425 284 425 343 c 0
 425 369 412 387 394 387 c 0
 344 387 266 332 201 252 c 1
EndSplineSet
Validated: 1
Substitution2: "'smcp' Lowercase to Small Capitals lookup 4-1" k.smcp
EndChar

StartChar: l
Encoding: 108 108 76
Width: 295
Flags: MW
HStem: -17 83<82 174> 702 31<125 131>
VStem: 39 109<26.5 103>
LayerCount: 2
Fore
SplineSet
248 137 m 1
 272 117 l 1
 183 13 144 -17 98 -17 c 0
 66 -17 39 10 39 43 c 0
 39 68 53 128 80 218 c 2
 177 534 l 2
 199 608 208 646 208 664 c 0
 208 692 187 701 125 702 c 1
 131 733 l 1
 258 750 265 751 335 772 c 1
 346 761 l 1
 277 559 148 119 148 87 c 0
 148 74 154 66 165 66 c 0
 183 66 186 68 248 137 c 1
EndSplineSet
Validated: 1
Substitution2: "'smcp' Lowercase to Small Capitals lookup 4-1" l.smcp
Substitution2: "'cv01' Character Variants 01 lookup 1-1" l.cv01
EndChar

StartChar: m
Encoding: 109 109 77
Width: 812
Flags: MW
HStem: -13 15G 381 70
VStem: 142 90<314.5 412> 387 101<333.5 405> 650 105
LayerCount: 2
Fore
SplineSet
64 302 m 1
 41 316 l 1
 78 398 133 451 182 451 c 0
 215 451 232 431 232 393 c 0
 232 367 229 347 218 302 c 1
 230 317 l 1
 262 359 l 2
 305 415 364 451 416 451 c 0
 458 451 488 424 488 386 c 0
 488 376 485 357 480 335 c 2
 476 313 l 2
 478 315 499 338 540 381 c 0
 581 426 635 451 690 451 c 0
 728 451 755 424 755 385 c 0
 755 352 743 313 707 223 c 0
 677 150 666 115 666 94 c 0
 666 79 672 71 685 71 c 0
 699 71 725 96 755 137 c 1
 777 114 l 1
 711 26 653 -19 603 -19 c 0
 570 -19 548 4 548 37 c 0
 548 65 559 100 598 195 c 0
 633 278 650 331 650 351 c 0
 650 367 636 381 618 381 c 0
 580 381 524 329 480 253 c 0
 458 213 413 105 391 39 c 0
 374 -12 374 -13 344 -13 c 0
 307 -13 283 -6 283 6 c 0
 283 8 286 19 288 26 c 2
 362 239 l 2
 375 276 387 325 387 342 c 0
 387 364 372 381 352 381 c 0
 318 381 282 343 238 260 c 0
 209 203 154 74 135 16 c 0
 128 -8 120 -13 94 -13 c 0
 55 -13 36 -6 36 9 c 0
 36 15 39 28 42 36 c 2
 105 196 l 2
 122 240 142 307 142 322 c 0
 142 338 133 349 120 349 c 0
 102 349 83 332 64 302 c 1
EndSplineSet
Validated: 1
Substitution2: "'smcp' Lowercase to Small Capitals lookup 4-1" m.smcp
EndChar

StartChar: n
Encoding: 110 110 78
Width: 553
Flags: W
HStem: -19 89<328.5 434.5> 381 70
VStem: 153 91<309 413.5> 294 114<19 99> 396 108<351 404>
LayerCount: 2
Fore
SplineSet
75 301 m 1xe8
 53 319 l 1
 85 370 94 383 113 406 c 0
 136 434 166 451 193 451 c 0
 225 451 244 431 244 396 c 0
 244 382 240 355 234 327 c 2
 228 302 l 1
 263 344 275 358 293 377 c 0
 337 423 392 451 441 451 c 0
 475 451 504 421 504 387 c 0xe8
 504 356 498 337 454 228 c 0
 425 158 408 106 408 92 c 0
 408 79 416 70 427 70 c 0
 442 70 453 80 491 123 c 2
 501 136 l 1
 523 115 l 1
 442 14 398 -19 344 -19 c 0
 313 -19 294 2 294 36 c 0xf0
 294 67 310 117 372 279 c 0
 389 322 396 345 396 357 c 0
 396 362 396 362 387 374 c 0
 381 381 381 381 374 381 c 0
 322 381 258 299 204 163 c 2
 153 36 l 2
 149 27 146 18 143 9 c 0
 136 -10 130 -13 106 -13 c 0
 66 -13 46 -6 46 8 c 0
 46 13 48 28 50 31 c 2
 113 186 l 2
 135 240 153 300 153 318 c 0
 153 336 143 348 129 348 c 0
 113 348 100 337 75 301 c 1xe8
EndSplineSet
Validated: 1
Substitution2: "'smcp' Lowercase to Small Capitals lookup 4-1" n.smcp
EndChar

StartChar: o
Encoding: 111 111 79
Width: 479
Flags: MW
HStem: -19 38<178.5 209 178.5 263> 414 37<288 288>
VStem: 37 108<111.5 133 71.5 244> 337 108<291.5 322 190 357>
LayerCount: 2
Fore
SplineSet
288 451 m 0
 381 451 445 376 445 268 c 0
 445 112 331 -19 195 -19 c 0
 99 -19 37 55 37 168 c 0
 37 320 154 451 288 451 c 0
288 414 m 0
 259 415 230 391 205 343 c 0
 173 280 145 168 145 98 c 0
 145 45 162 19 195 19 c 0
 223 19 250 39 273 77 c 0
 307 133 337 253 337 330 c 0
 337 384 320 412 288 414 c 0
EndSplineSet
Validated: 33
Substitution2: "'smcp' Lowercase to Small Capitals lookup 4-1" o.smcp
EndChar

StartChar: p
Encoding: 112 112 80
Width: 553
Flags: MW
HStem: -270 38<162 181> -19 40<229.5 258> 402 49<324.5 460.5>
VStem: 419 109<276 329.5>
LayerCount: 2
Fore
SplineSet
183 406 m 1
 209 492 l 2
 220 528 223 531 257 531 c 0
 296 531 307 527 307 512 c 0
 307 504 307 503 299 480 c 2
 283 430 l 1
 360 447 389 451 426 451 c 0
 495 451 528 407 528 316 c 0
 528 236 494 154 431 86 c 0
 369 17 296 -19 220 -19 c 0
 198 -19 183 -17 151 -10 c 1
 120 -116 l 2
 116 -132 111 -148 106 -162 c 0
 102 -175 99 -188 99 -195 c 0
 99 -222 118 -231 179 -232 c 0
 183 -232 185 -233 185 -235 c 0
 185 -237 185 -237 182 -247 c 2
 179 -260 l 2
 177 -268 175 -270 168 -270 c 0
 156 -270 156 -270 104 -266 c 0
 82 -265 62 -264 45 -264 c 0
 19 -264 19 -264 -47 -269 c 0
 -53 -270 -65 -270 -70 -270 c 0
 -75 -270 -78 -268 -78 -265 c 0
 -78 -264 -78 -264 -76 -255 c 2
 -74 -241 l 2
 -72 -232 -70 -230 -62 -230 c 0
 -13 -232 7 -207 36 -106 c 2
 171 361 l 1
 130 346 102 334 47 308 c 1
 33 340 l 1
 57 353 76 362 109 375 c 2
 183 406 l 1
271 391 m 1
 207 170 l 2
 188 107 186 100 186 80 c 0
 186 45 211 21 248 21 c 0
 283 21 317 40 342 75 c 0
 388 137 419 227 419 298 c 0
 419 361 385 402 333 402 c 0
 316 402 303 400 271 391 c 1
EndSplineSet
Validated: 33
Substitution2: "'smcp' Lowercase to Small Capitals lookup 4-1" p.smcp
EndChar

StartChar: q
Encoding: 113 113 81
Width: 535
Flags: MW
HStem: -270 40<397 411> -19 49<158.5 163.5> 431 20G<278 379.5 506 516 516 521>
VStem: 404 125<298.5 447.5>
LayerCount: 2
Fore
SplineSet
250 -166 m 2
 342 130 l 1
 268 27 201 -19 126 -19 c 0
 69 -19 29 28 29 94 c 0
 29 268 198 451 358 451 c 0
 401 451 424 438 451 399 c 1
 492 451 492 451 506 451 c 2
 516 451 l 2
 526 451 529 450 529 445 c 0
 529 443 529 443 524 425 c 2
 384 -44 l 2
 363 -117 349 -176 349 -195 c 0
 349 -219 364 -228 408 -230 c 0
 414 -230 417 -232 417 -235 c 0
 417 -237 417 -237 415 -246 c 2
 411 -259 l 2
 409 -269 408 -270 402 -270 c 0
 392 -270 381 -270 368 -269 c 0
 344 -267 293 -265 279 -265 c 0
 264 -265 241 -266 191 -269 c 0
 181 -270 170 -270 164 -270 c 0
 158 -270 154 -268 154 -264 c 2
 154 -264 154 -261 155 -257 c 2
 158 -241 l 2
 159 -232 161 -231 171 -230 c 0
 224 -227 234 -219 250 -166 c 2
357 412 m 0
 323 414 274 374 228 302 c 0
 175 221 141 139 137 81 c 0
 135 51 148 30 169 30 c 0
 252 30 404 241 404 356 c 0
 404 389 386 410 357 412 c 0
EndSplineSet
Validated: 33
Substitution2: "'smcp' Lowercase to Small Capitals lookup 4-1" q.smcp
EndChar

StartChar: r
Encoding: 114 114 82
Width: 387
Flags: MW
HStem: -13 21G<78.5 109.5> 355 96
VStem: 131 89<300 403.5>
LayerCount: 2
Fore
SplineSet
55 305 m 1
 33 318 l 1
 81 413 119 451 167 451 c 0
 201 451 220 426 220 381 c 0
 220 359 218 345 208 295 c 2
 203 272 l 1
 215 291 l 1
 245 345 l 2
 284 417 326 451 374 451 c 0
 403 451 422 433 422 405 c 0
 422 362 404 333 378 333 c 0
 369 333 361 335 344 344 c 0
 327 352 318 355 312 355 c 0
 283 355 237 286 201 187 c 2
 149 43 l 2
 130 -6 124 -13 95 -13 c 0
 62 -13 40 -3 40 13 c 0
 40 22 43 36 48 49 c 0
 119 243 131 283 131 317 c 0
 131 337 123 349 109 349 c 0
 94 349 88 345 60 311 c 2
 55 305 l 1
EndSplineSet
Validated: 1
Substitution2: "'smcp' Lowercase to Small Capitals lookup 4-1" r.smcp
EndChar

StartChar: s
Encoding: 115 115 83
Width: 332
Flags: MW
HStem: -19 49<146.5 147.5> 394 57<165 254.5>
VStem: 64 68<268 364.5> 207 82<67 162>
LayerCount: 2
Fore
SplineSet
52 96 m 0
 69 96 79 90 102 64 c 0
 125 37 137 30 156 30 c 0
 184 30 207 53 207 81 c 0
 207 106 191 128 140 175 c 0
 77 231 64 250 64 286 c 0
 64 372 143 451 229 451 c 0
 280 451 316 426 316 390 c 0
 316 365 303 349 282 349 c 0
 265 349 251 355 226 372 c 0
 203 389 191 394 177 394 c 0
 153 394 132 375 132 354 c 0
 132 339 144 321 171 296 c 2
 242 229 l 2
 278 195 289 176 289 148 c 0
 289 66 194 -19 101 -19 c 0
 55 -19 15 14 15 53 c 0
 15 78 31 96 52 96 c 0
EndSplineSet
Validated: 1
Substitution2: "'smcp' Lowercase to Small Capitals lookup 4-1" s.smcp
EndChar

StartChar: t
Encoding: 116 116 84
Width: 313
Flags: MW
HStem: -19 78<93 192.5> 376 45<62 143 79 129 241 317>
VStem: 40 111<27 93>
LayerCount: 2
Fore
SplineSet
270 126 m 1
 294 107 l 1
 231 17 179 -19 115 -19 c 0
 71 -19 40 8 40 46 c 0
 40 65 40 65 79 203 c 2
 129 376 l 1
 68 376 l 2
 56 376 53 377 53 384 c 2
 54 394 l 1
 56 407 l 2
 58 419 61 421 79 421 c 2
 143 421 l 1
 162 488 l 2
 180 550 186 557 222 557 c 0
 260 557 275 551 275 537 c 0
 275 531 275 531 268 510 c 2
 241 421 l 1
 324 421 l 2
 336 421 339 419 339 412 c 0
 339 409 339 405 338 402 c 2
 335 390 l 2
 333 377 331 376 317 376 c 2
 227 376 l 1
 166 155 l 2
 153 107 151 99 151 87 c 0
 151 70 161 59 178 59 c 0
 207 59 231 77 270 126 c 1
EndSplineSet
Validated: 1
Substitution2: "'smcp' Lowercase to Small Capitals lookup 4-1" t.smcp
EndChar

StartChar: u
Encoding: 117 117 85
Width: 535
Flags: MW
HStem: -19 87<335 430.5> 362 89<117.5 218>
VStem: 296 110<11.5 95.5>
LayerCount: 2
Fore
SplineSet
492 136 m 1
 517 115 l 1
 442 17 398 -19 351 -19 c 0
 319 -19 296 -1 296 24 c 0
 296 41 308 87 323 127 c 2
 371 251 l 2
 382 281 383 286 387 298 c 2
 261 123 l 1
 178 17 135 -19 88 -19 c 0
 62 -19 43 -3 43 17 c 0
 43 38 52 69 94 187 c 0
 134 300 141 322 141 337 c 0
 141 353 134 362 123 362 c 0
 112 362 105 356 75 321 c 2
 68 313 l 1
 44 331 l 1
 123 427 154 451 202 451 c 0
 234 451 256 432 256 406 c 0
 256 377 246 345 198 222 c 0
 192 206 187 191 181 176 c 0
 174 159 168 141 161 123 c 0
 156 113 154 103 154 97 c 0
 154 89 160 83 167 83 c 0
 182 83 220 123 273 196 c 0
 312 249 395 375 414 409 c 0
 430 438 440 446 462 446 c 0
 495 446 517 436 517 419 c 0
 517 410 517 410 505 377 c 2
 424 159 l 2
 414 132 406 101 406 90 c 0
 406 78 414 68 424 68 c 0
 437 68 450 80 492 136 c 1
EndSplineSet
Validated: 1
Substitution2: "'smcp' Lowercase to Small Capitals lookup 4-1" u.smcp
EndChar

StartChar: v
Encoding: 118 118 86
Width: 572
Flags: W
HStem: -19 89<271 288> 367 77<256 260> 367 84<152.5 153 153 172 152.5 260>
VStem: 35 52<252 332> 131 84<62 189.5> 483 69<271 395>
LayerCount: 2
Fore
SplineSet
260 367 m 1xdc
 153 367 l 2
 126 367 118 366 108 361 c 0
 95 355 87 340 87 324 c 0
 87 314 88 313 101 306 c 0
 117 297 124 285 124 268 c 0
 124 242 105 222 80 222 c 0
 54 222 35 240 35 264 c 0
 35 303 61 362 99 413 c 0
 120 440 139 451 166 451 c 0xbc
 178 451 197 450 217 447 c 0
 236 445 250 444 262 444 c 0
 273 444 288 445 305 447 c 0
 316 449 327 450 332 450 c 0
 345 450 354 447 354 443 c 0
 354 441 351 435 346 428 c 2
 311 380 l 2
 249 295 215 218 215 161 c 0
 215 109 249 70 293 70 c 0
 340 70 391 100 428 150 c 0
 461 194 483 250 483 292 c 0
 483 323 478 332 448 360 c 0
 440 368 435 380 435 392 c 0
 435 425 459 450 491 450 c 0
 530 450 552 421 552 369 c 0
 552 297 519 208 460 121 c 0
 396 27 327 -19 249 -19 c 0
 179 -19 131 28 131 96 c 0
 131 160 169 239 260 367 c 1xdc
EndSplineSet
Validated: 1
Substitution2: "'smcp' Lowercase to Small Capitals lookup 4-1" v.smcp
EndChar

StartChar: w
Encoding: 119 119 87
Width: 774
Flags: W
HStem: -19 88<204.5 306.5 498.5 503> 367 77<152 265.5> 372 79
VStem: 28 52<254.5 332.5> 124 84<61.5 190.5> 371 59<147.5 234> 526 45<344.5 351.5> 697 70<245 395>
LayerCount: 2
Fore
SplineSet
254 367 m 1xdf
 152 367 l 2xdf
 118 367 108 366 97 359 c 0
 87 353 80 339 80 326 c 0
 80 316 83 312 93 306 c 0
 112 294 117 286 117 270 c 0
 117 242 98 221 71 221 c 0
 45 221 28 240 28 269 c 0
 28 304 53 359 91 410 c 0
 114 441 133 451 165 451 c 0xbf
 176 451 194 450 211 448 c 0
 232 445 249 444 259 444 c 0xdf
 272 444 287 445 303 448 c 0
 313 450 323 451 328 451 c 0
 338 451 346 447 346 442 c 0
 346 438 344 434 336 424 c 2
 305 383 l 2
 245 304 208 219 208 162 c 0
 208 107 242 69 291 69 c 0
 322 69 342 78 375 104 c 1
 372 130 371 142 371 153 c 0
 371 227 409 349 450 405 c 0
 473 437 495 451 523 451 c 0
 554 451 571 427 571 382 c 0
 571 307 542 248 446 125 c 1
 465 85 484 69 513 69 c 0
 599 69 697 191 697 299 c 0
 697 323 691 334 659 364 c 0
 652 371 648 380 648 392 c 0
 648 425 674 451 707 451 c 0xbf
 744 451 767 420 767 370 c 0
 767 287 719 173 645 83 c 0
 593 19 530 -19 476 -19 c 0
 431 -19 399 8 385 59 c 1
 315 -8 293 -19 238 -19 c 0
 171 -19 124 28 124 95 c 0
 124 150 140 191 195 280 c 0
 223 326 233 340 254 367 c 1xdf
435 164 m 1
 489 235 526 306 526 342 c 0
 526 361 516 372 499 372 c 0xbf
 481 372 469 361 456 337 c 0
 441 306 430 255 430 213 c 0
 430 196 431 186 435 164 c 1
EndSplineSet
Validated: 1
Substitution2: "'smcp' Lowercase to Small Capitals lookup 4-1" w.smcp
EndChar

StartChar: x
Encoding: 120 120 88
Width: 479
Flags: W
HStem: -19 70<295.5 381> -18 78<17.5 81.5> 372 79<109.5 185.5> 381 70
LayerCount: 2
Fore
SplineSet
444 128 m 1x90
 471 112 l 1
 419 10 386 -19 321 -19 c 0x90
 270 -19 246 7 226 84 c 2
 209 151 l 1
 158 81 l 2
 109 12 70 -18 32 -18 c 0
 3 -18 -13 0 -13 31 c 0
 -13 58 4 78 25 78 c 0
 35 78 40 76 57 65 c 0
 61 62 67 60 70 60 c 0
 93 60 136 104 185 180 c 2
 195 196 l 1
 175 270 l 2
 157 338 138 372 118 372 c 0
 101 372 92 361 71 313 c 1
 42 323 l 1
 80 417 112 451 162 451 c 0x60
 209 451 237 419 258 339 c 2
 270 294 l 1
 300 334 l 2
 347 394 364 413 388 429 c 0
 412 444 431 451 452 451 c 0
 478 451 496 430 496 400 c 0
 496 366 480 343 456 343 c 0
 443 343 435 348 424 365 c 0
 416 379 413 381 406 381 c 0
 386 381 365 360 304 279 c 2
 281 248 l 1
 309 144 l 2
 327 76 343 51 368 51 c 0
 394 51 410 68 444 128 c 1x90
EndSplineSet
Validated: 1
Substitution2: "'smcp' Lowercase to Small Capitals lookup 4-1" x.smcp
EndChar

StartChar: y
Encoding: 121 121 89
Width: 498
Flags: MW
HStem: -270 78<13.5 96.5> 361 89<130 142>
VStem: 199 100<43 43 43 147.5> 408 81<269.5 403.5>
LayerCount: 2
Fore
SplineSet
45 273 m 1
 15 282 l 1
 54 399 99 450 161 450 c 0
 210 450 249 407 270 330 c 0
 289 259 291 234 299 43 c 1
 356 139 l 2
 392 199 408 247 408 292 c 0
 408 315 404 333 394 359 c 0
 384 383 382 390 382 401 c 0
 382 430 405 451 436 451 c 0
 471 451 489 427 489 380 c 0
 489 317 442 205 358 69 c 0
 235 -129 97 -270 26 -270 c 0
 1 -270 -18 -248 -18 -220 c 0
 -18 -193 0 -174 25 -174 c 0
 39 -174 45 -176 71 -188 c 0
 77 -191 81 -192 84 -192 c 0
 109 -192 160 -144 182 -100 c 0
 194 -74 199 -35 199 51 c 0
 199 244 168 361 116 361 c 0
 86 361 72 343 45 273 c 1
EndSplineSet
Validated: 1
Substitution2: "'smcp' Lowercase to Small Capitals lookup 4-1" y.smcp
EndChar

StartChar: z
Encoding: 122 122 90
Width: 424
Flags: MW
HStem: 0 43<121 121 121 167> 399 43<176.5 210 167.5 252.5>
VStem: 38 28<324 332> 357 32
LayerCount: 2
Fore
SplineSet
452 443 m 1
 453 424 l 1
 121 43 l 1
 160 41 204 40 232 40 c 0
 303 40 325 54 357 119 c 0
 360 124 362 126 366 126 c 0
 368 126 369 126 373 125 c 2
 380 123 l 2
 387 121 389 119 389 116 c 0
 389 113 389 113 383 99 c 2
 343 -5 l 1
 252 -1 200 0 134 0 c 0
 81 0 45 -1 -28 -4 c 1
 -29 17 l 1
 301 397 l 1
 278 399 266 399 239 399 c 0
 114 399 91 389 66 324 c 1
 38 332 l 1
 84 481 l 1
 109 481 l 1
 117 446 125 442 210 442 c 2
 452 443 l 1
EndSplineSet
Validated: 1
Substitution2: "'smcp' Lowercase to Small Capitals lookup 4-1" z.smcp
EndChar

StartChar: braceleft
Encoding: 123 123 91
Width: 498
Flags: W
HStem: -236 41<347 354>
VStem: 119 134<-107.5 -81 -115.5 -76.5> 193 121<119.5 154.5> 266 131
LayerCount: 2
Fore
SplineSet
86 236 m 1xa0
 94 277 l 1
 173 306 207 325 234 358 c 0
 258 386 266 412 266 455 c 0
 266 459 266 473 265 488 c 0
 264 505 264 519 264 530 c 0
 264 591 288 639 337 676 c 0
 397 722 456 742 576 757 c 1
 567 716 l 1
 432 664 402 630 397 524 c 0x90
 391 362 354 320 171 256 c 1
 277 219 314 186 314 127 c 0xa0
 314 104 307 78 287 28 c 0
 262 -36 253 -67 253 -95 c 0xc0
 253 -136 275 -158 354 -195 c 1
 347 -236 l 1
 262 -225 231 -216 193 -193 c 0xa0
 146 -165 119 -127 119 -88 c 0xc0
 119 -65 128 -40 151 9 c 0
 182 73 193 105 193 134 c 0
 193 175 165 202 86 236 c 1xa0
EndSplineSet
Validated: 1
EndChar

StartChar: bar
Encoding: 124 124 92
Width: 498
Flags: MW
VStem: 223 51<-250 750 -250 750>
LayerCount: 2
Fore
SplineSet
223 750 m 1
 274 750 l 1
 274 -250 l 1
 223 -250 l 1
 223 750 l 1
EndSplineSet
Validated: 1
EndChar

StartChar: braceright
Encoding: 125 125 93
Width: 498
Flags: W
HStem: 716 41<184 191>
VStem: 141 132 224 121<366.5 401.5 366.5 405.5> 285 134<602 628.5 597.5 636.5>
LayerCount: 2
Fore
SplineSet
452 285 m 1xa0
 444 244 l 1
 364 215 331 196 303 163 c 0
 279 135 271 109 271 66 c 0
 271 62 271 48 272 33 c 0
 273 16 273 2 273 -9 c 0
 273 -70 249 -118 201 -155 c 0
 141 -201 82 -221 -38 -236 c 1
 -29 -195 l 1
 106 -143 136 -109 141 -3 c 0xc0
 147 158 184 201 367 265 c 1
 262 301 224 335 224 394 c 0xa0
 224 417 231 443 251 492 c 0
 277 558 285 588 285 616 c 0x90
 285 657 262 679 184 716 c 1
 191 757 l 1
 275 746 307 737 345 714 c 0xa0
 392 686 419 648 419 609 c 0x90
 419 586 410 561 387 512 c 0
 356 448 345 416 345 387 c 0
 345 346 374 319 452 285 c 1xa0
EndSplineSet
Validated: 1
EndChar

StartChar: asciitilde
Encoding: 126 126 94
Width: 996
Flags: W
HStem: 620 63<584.5 591> 661 61<403.5 407>
LayerCount: 2
Fore
SplineSet
684 733 m 1x80
 702 722 l 1x40
 668 659 616 620 566 620 c 0x80
 548 620 535 623 481 641 c 0
 434 657 419 661 395 661 c 0
 365 661 349 652 319 618 c 0
 316 615 313 611 311 608 c 2
 293 619 l 1
 334 689 378 722 429 722 c 0x40
 449 722 466 718 515 701 c 0
 557 687 575 683 594 683 c 0
 627 683 657 699 684 733 c 1x80
EndSplineSet
Validated: 1
EndChar

StartChar: exclamdown
Encoding: 161 161 95
Width: 258
Flags: W
HStem: 315 153<91.5 125.5>
VStem: -110 157<-201.5 -105> 37 143<376 408.5>
LayerCount: 2
Fore
SplineSet
64 257 m 1xc0
 93 248 l 1
 47 -105 l 2
 34 -210 11 -247 -40 -247 c 0
 -79 -247 -110 -219 -110 -184 c 0
 -110 -163 -101 -133 -79 -81 c 2
 64 257 l 1xc0
114 468 m 0
 155 468 180 442 180 400 c 0
 180 352 147 315 104 315 c 0
 63 315 37 343 37 384 c 0xa0
 37 433 69 468 114 468 c 0
EndSplineSet
Validated: 1
EndChar

StartChar: cent
Encoding: 162 162 96
Width: 498
Flags: MW
HStem: -16 21G<200.5 203 203 222> 102 48<268 283> 648 20G<404 422 422 424.5>
VStem: 98 101<263.5 314.5 263.5 336.5> 400 97<446.5 551>
LayerCount: 2
Fore
SplineSet
198 3 m 2
 229 105 l 1
 184 115 165 125 143 148 c 0
 114 179 98 223 98 271 c 0
 98 402 225 538 358 551 c 1
 386 646 l 2
 393 668 393 668 404 668 c 2
 422 668 l 2
 427 668 431 665 431 662 c 0
 431 659 429 652 427 644 c 2
 400 551 l 1
 459 545 497 510 497 460 c 0
 497 433 479 415 450 415 c 0
 419 415 404 433 400 478 c 0
 397 497 396 501 387 509 c 1
 283 150 l 1
 323 153 340 162 377 197 c 0
 380 200 384 202 386 202 c 0
 389 202 392 200 395 198 c 2
 405 187 l 2
 408 184 409 182 409 180 c 0
 409 172 386 149 361 132 c 0
 329 111 306 103 268 102 c 1
 239 1 l 2
 235 -13 231 -16 222 -16 c 2
 203 -16 l 2
 198 -16 196 -13 196 -9 c 0
 196 -6 197 -1 198 3 c 2
247 167 m 1
 345 506 l 1
 296 487 277 472 250 435 c 0
 215 387 199 340 199 289 c 0
 199 238 213 202 247 167 c 1
EndSplineSet
Validated: 1
Substitution2: "'cv01' Character Variants 01 lookup 1-1" cent.cv01
EndChar

StartChar: sterling
Encoding: 163 163 97
Width: 498
Flags: W
HStem: -15 88<327.5 404.5> 140 100 316 45<87 149 87 150 241 364> 610 45<347.5 371.5>
VStem: 150 91<361 361> 395 90<529.5 590> 428 42<97.5 110.5>
LayerCount: 2
Fore
SplineSet
364 316 m 1xfc
 232 316 l 1
 205 230 191 187 167 126 c 1
 233 120 273 111 356 82 c 0
 371 76 386 73 396 73 c 0
 413 73 428 89 428 106 c 0
 428 115 424 123 418 129 c 0
 410 137 410 137 369 140 c 0
 333 143 309 164 309 193 c 0
 309 220 331 240 360 240 c 0
 417 240 470 179 470 114 c 0xfa
 470 43 413 -15 342 -15 c 0
 313 -15 293 -7 256 19 c 0
 192 64 185 68 154 81 c 1
 126 17 90 -15 44 -15 c 0
 21 -15 5 1 5 24 c 0
 5 45 16 69 34 88 c 0
 58 114 80 123 126 126 c 1
 142 174 144 192 149 316 c 1
 87 316 l 1
 87 361 l 1
 150 361 l 1
 156 450 162 480 180 522 c 0
 215 606 282 655 360 655 c 0
 432 655 485 608 485 546 c 0
 485 513 463 488 436 488 c 0
 410 488 388 511 388 539 c 0
 388 546 389 554 392 564 c 0
 394 572 395 578 395 583 c 0
 395 597 380 610 363 610 c 0
 332 610 310 584 288 524 c 0
 274 484 270 469 241 361 c 1
 364 361 l 1
 364 316 l 1xfc
EndSplineSet
Validated: 1
EndChar

StartChar: fraction
Encoding: 8260 8260 98
Width: 111
Flags: MW
HStem: -7 21G<-204 -199 -199 -180> 649 20G<332 362 362 367>
LayerCount: 2
Fore
SplineSet
-198 25 m 2
 294 639 l 2
 297 644 300 648 304 651 c 0
 316 668 316 669 332 669 c 2
 362 669 l 2
 372 669 376 667 376 663 c 0
 376 659 376 659 362 639 c 2
 -133 21 l 2
 -153 -3 -153 -3 -155 -5 c 0
 -158 -7 -161 -7 -180 -7 c 2
 -199 -7 l 2
 -209 -7 -214 -5 -214 0 c 0
 -214 4 -211 8 -198 25 c 2
EndSplineSet
Validated: 1
EndChar

StartChar: yen
Encoding: 165 165 99
Width: 498
Flags: MW
HStem: -6 36 138 39<94 210 104 201 324 414> 246 39<134 230 123 242> 645 41<118 134>
LayerCount: 2
Fore
SplineSet
94 138 m 1
 104 177 l 1
 210 177 l 1
 230 246 l 1
 123 246 l 1
 134 285 l 1
 242 285 l 1
 248 309 l 1
 166 576 l 2
 153 619 152 620 147 628 c 0
 144 633 141 636 137 638 c 2
 118 645 l 2
 115 647 112 652 112 657 c 0
 112 659 112 661 113 663 c 2
 116 675 l 2
 118 684 122 686 132 686 c 0
 136 686 144 685 152 684 c 0
 175 682 206 680 226 680 c 0
 246 680 294 683 310 685 c 0
 317 686 324 686 328 686 c 0
 333 686 337 684 336 680 c 2
 335 677 l 1
 334 664 l 2
 331 653 328 650 316 649 c 0
 288 645 269 633 269 619 c 0
 269 615 269 615 278 579 c 2
 331 367 l 1
 450 577 l 2
 468 610 470 613 470 621 c 0
 470 633 460 641 444 643 c 0
 425 645 421 646 421 653 c 0
 421 655 421 658 422 661 c 2
 425 672 l 2
 427 681 431 685 440 685 c 0
 442 685 446 685 449 684 c 0
 475 681 493 680 512 680 c 0
 529 680 542 681 576 684 c 0
 580 685 583 685 586 685 c 0
 591 685 594 683 594 679 c 0
 594 676 594 673 593 669 c 2
 588 651 l 2
 585 642 584 641 571 639 c 0
 546 635 532 622 505 577 c 2
 369 341 l 1
 355 286 l 1
 455 286 l 1
 444 246 l 1
 344 246 l 1
 324 177 l 1
 425 177 l 1
 414 138 l 1
 314 138 l 1
 302 93 l 2
 298 79 296 67 296 60 c 0
 296 44 307 37 344 30 c 0
 350 29 352 28 352 25 c 0
 352 23 352 23 349 16 c 2
 345 3 l 2
 343 -4 341 -6 335 -6 c 0
 331 -6 321 -5 311 -4 c 0
 292 -1 278 0 254 0 c 0
 224 0 180 -2 164 -4 c 0
 155 -5 147 -6 141 -6 c 0
 135 -6 131 -3 131 3 c 2
 131 4 l 1
 132 16 l 2
 133 22 133 23 134 24 c 0
 135 26 136 27 139 28 c 2
 157 34 l 2
 174 40 181 52 191 95 c 2
 201 138 l 1
 94 138 l 1
EndSplineSet
Validated: 1
EndChar

StartChar: florin
Encoding: 402 402 100
Width: 498
Flags: MW
HStem: -255 60<31 94> 396 46<145.5 233 159 226 335 408> 725 44<442.5 455>
LayerCount: 2
Fore
SplineSet
226 396 m 1
 150 396 l 2
 141 396 138 397 138 402 c 2
 138 409 l 1
 142 429 l 2
 143 438 148 442 159 442 c 2
 233 442 l 1
 265 586 283 635 320 685 c 0
 362 742 411 769 474 769 c 0
 530 769 573 740 573 702 c 0
 573 678 553 658 529 658 c 0
 510 658 500 667 486 694 c 0
 474 716 463 725 447 725 c 0
 413 725 393 702 376 641 c 0
 366 608 366 608 335 442 c 1
 420 442 l 2
 426 442 431 437 430 431 c 2
 427 408 l 2
 426 400 419 396 408 396 c 2
 325 396 l 1
 262 92 l 2
 240 -12 211 -100 182 -151 c 0
 142 -219 96 -255 47 -255 c 0
 15 -255 -5 -237 -5 -207 c 0
 -5 -181 14 -158 36 -158 c 0
 49 -158 61 -165 75 -183 c 0
 82 -191 87 -195 92 -195 c 0
 96 -195 101 -190 106 -181 c 0
 116 -160 118 -154 141 -36 c 2
 226 396 l 1
EndSplineSet
Validated: 1
EndChar

StartChar: section
Encoding: 167 167 101
Width: 498
Flags: MW
HStem: -255 58<242 251.5> 646 58<253.5 276>
VStem: 52 62<455 498 455 517.5> 157 62<511 610> 303 62<-152 -51> 407 62<-26 17>
LayerCount: 2
Fore
SplineSet
133 -109 m 0
 154 -109 170 -116 184 -131 c 0
 187 -135 196 -148 210 -172 c 0
 221 -189 234 -197 250 -197 c 0
 283 -197 303 -172 303 -132 c 0
 303 -83 291 -53 241 21 c 0
 103 225 52 340 52 447 c 0
 52 588 169 704 311 704 c 0
 386 704 438 671 438 624 c 0
 438 594 415 571 384 571 c 0
 360 571 346 580 316 616 c 0
 298 638 285 646 267 646 c 0
 240 646 219 624 219 596 c 0
 219 555 253 481 323 369 c 0
 398 248 416 218 435 169 c 0
 459 110 469 64 469 11 c 0
 469 -63 441 -129 388 -181 c 0
 330 -238 290 -255 213 -255 c 0
 124 -255 69 -222 69 -169 c 0
 69 -134 96 -109 133 -109 c 0
349 -162 m 1
 391 -112 407 -69 407 -8 c 0
 407 42 395 84 365 139 c 0
 359 150 331 194 281 272 c 0
 197 404 157 488 157 534 c 0
 157 552 161 576 168 605 c 1
 126 550 114 521 114 475 c 0
 114 435 124 396 148 342 c 0
 174 284 174 284 268 135 c 0
 339 23 365 -32 365 -70 c 0
 365 -93 360 -125 349 -162 c 1
EndSplineSet
Validated: 1
EndChar

StartChar: currency
Encoding: 164 164 102
Width: 498
Flags: MW
HStem: 106 100<249 299.5> 479 100<253.5 301.5 253.5 311.5>
VStem: 38 100<317.5 363> 410 100<317 366.5 317 380>
LayerCount: 2
Fore
SplineSet
9 536 m 1
 73 601 l 1
 138 538 l 1
 193 568 230 579 277 579 c 0
 326 579 361 568 409 538 c 1
 474 601 l 1
 538 536 l 1
 471 472 l 1
 499 427 510 391 510 342 c 0
 510 292 500 259 471 214 c 1
 538 149 l 1
 474 86 l 1
 410 148 l 1
 358 116 325 106 274 106 c 0
 224 106 191 116 138 148 c 1
 73 86 l 1
 9 149 l 1
 75 214 l 1
 48 262 38 295 38 340 c 0
 38 386 47 419 75 472 c 1
 9 536 l 1
274 479 m 0
 200 479 138 418 138 345 c 0
 138 267 198 206 273 206 c 0
 349 206 410 267 410 342 c 0
 410 418 349 479 274 479 c 0
EndSplineSet
Validated: 1
EndChar

StartChar: quotesingle
Encoding: 39 39 103
Width: 258
Flags: MW
HStem: 430 274<164.5 265.5 169 265.5>
VStem: 174 122<606 676.5>
LayerCount: 2
Fore
SplineSet
277 606 m 2
 203 442 l 2
 198 432 195 430 184 430 c 2
 169 430 l 2
 160 430 157 432 157 438 c 0
 157 439 157 439 159 455 c 2
 174 606 l 2
 178 648 182 661 194 675 c 0
 209 693 232 704 254 704 c 0
 277 704 296 687 296 666 c 0
 296 652 292 640 277 606 c 2
EndSplineSet
Validated: 1
EndChar

StartChar: quotedblleft
Encoding: 8220 8220 104
Width: 424
Flags: MW
HStem: 662 33<314 320>
VStem: 111 79<494 588> 319 79<493.5 588>
LayerCount: 2
Fore
SplineSet
528 695 m 1
 522 662 l 1
 434 638 398 610 398 566 c 0
 398 547 405 538 430 527 c 0
 466 512 476 501 476 474 c 0
 476 440 449 416 411 416 c 0
 355 416 319 460 319 527 c 0
 319 579 345 619 402 652 c 0
 437 673 470 684 528 695 c 1
320 695 m 1
 314 662 l 1
 227 639 190 610 190 566 c 0
 190 547 198 537 222 527 c 0
 258 512 268 501 268 474 c 0
 268 440 241 416 203 416 c 0
 147 416 111 460 111 528 c 0
 111 579 137 619 194 652 c 0
 228 673 261 684 320 695 c 1
EndSplineSet
Validated: 1
EndChar

StartChar: guillemotleft
Encoding: 171 171 105
Width: 424
Flags: W
LayerCount: 2
Fore
SplineSet
383 410 m 1
 407 395 l 1
 283 234 l 1
 380 73 l 1
 357 58 l 1
 183 227 l 1
 180 242 l 1
 383 410 l 1
228 410 m 1
 253 395 l 1
 128 234 l 1
 225 73 l 1
 202 58 l 1
 29 227 l 1
 26 242 l 1
 228 410 l 1
EndSplineSet
Validated: 1
EndChar

StartChar: guilsinglleft
Encoding: 8249 8249 106
Width: 258
Flags: MW
VStem: 23 224<227 395>
LayerCount: 2
Fore
SplineSet
222 410 m 1
 247 395 l 1
 123 234 l 1
 219 73 l 1
 196 58 l 1
 23 227 l 1
 20 242 l 1
 222 410 l 1
EndSplineSet
Validated: 1
EndChar

StartChar: guilsinglright
Encoding: 8250 8250 107
Width: 258
Flags: MW
VStem: -2 224<73 241>
LayerCount: 2
Fore
SplineSet
23 58 m 1
 -2 73 l 1
 123 234 l 1
 26 395 l 1
 49 410 l 1
 222 241 l 1
 225 226 l 1
 23 58 l 1
EndSplineSet
Validated: 1
EndChar

StartChar: fi
Encoding: 64257 64257 108
Width: 556
Flags: MW
HStem: -255 60<7 8.5> -19 83<359 457.5> 375 45<59 145 77 137 260 334 334 355> 431 20G<474 497.5> 724 44<386 396>
LayerCount: 2
Fore
SplineSet
252 375 m 1
 188 92 l 2
 137 -128 55 -255 -38 -255 c 0
 -69 -255 -88 -238 -88 -210 c 0
 -88 -182 -68 -158 -45 -158 c 0
 -32 -158 -21 -165 -7 -183 c 0
 0 -191 5 -195 9 -195 c 0
 23 -195 47 -126 63 -36 c 2
 137 375 l 1
 65 375 l 2
 53 375 51 376 51 381 c 0
 51 382 51 384 52 386 c 2
 54 394 l 1
 58 408 l 2
 61 420 61 420 77 420 c 2
 145 420 l 1
 160 510 l 2
 173 588 209 658 260 708 c 0
 302 748 355 768 417 768 c 0
 496 768 561 727 561 677 c 0
 561 654 540 635 515 635 c 0
 492 635 477 645 455 674 c 0
 429 709 407 724 385 724 c 0
 360 724 333 706 316 678 c 0
 307 663 299 635 292 598 c 2
 260 420 l 1
 334 420 l 2
 376 420 393 424 434 441 c 0
 450 447 467 451 481 451 c 0
 514 451 533 431 533 398 c 0
 533 365 529 351 479 223 c 0
 470 202 470 202 463 183 c 0
 455 165 446 141 435 114 c 0
 430 103 428 93 428 86 c 0
 428 74 438 64 449 64 c 0
 466 64 488 83 540 140 c 1
 565 120 l 1
 494 28 430 -19 377 -19 c 0
 341 -19 316 3 316 33 c 0
 316 56 319 66 376 213 c 0
 411 306 420 332 420 345 c 0
 420 371 413 375 363 375 c 2
 252 375 l 1
EndSplineSet
Validated: 1
Ligature2: "'liga' Standard Ligatures lookup 3-1" f i
EndChar

StartChar: fl
Encoding: 64258 64258 109
Width: 556
Flags: MW
HStem: -255 60<4 5.5> -17 83<353 445> 375 45<56 143 74 134 258 336> 724 44<355.5 371.5>
VStem: 310 109<26.5 103.5>
LayerCount: 2
Fore
SplineSet
143 420 m 1
 148 449 l 2
 164 542 165 546 181 587 c 0
 229 708 298 768 389 768 c 0
 425 768 446 761 469 742 c 1
 531 751 544 753 607 771 c 1
 617 761 l 1
 544 544 419 119 419 88 c 0
 419 74 425 66 436 66 c 0
 454 66 462 73 519 137 c 1
 543 117 l 1
 457 15 415 -17 369 -17 c 0
 337 -17 310 10 310 43 c 0
 310 68 323 123 352 218 c 2
 448 534 l 2
 468 600 479 645 479 661 c 0
 479 665 479 669 478 675 c 1
 467 662 457 657 442 657 c 0
 423 657 412 666 400 693 c 0
 390 713 378 724 365 724 c 0
 346 724 321 700 311 674 c 0
 289 613 281 579 258 420 c 1
 347 420 l 2
 358 420 360 419 360 415 c 0
 360 413 360 413 358 406 c 2
 355 389 l 2
 352 375 352 375 336 375 c 2
 249 375 l 1
 185 92 l 2
 134 -128 52 -255 -41 -255 c 0
 -72 -255 -91 -238 -91 -210 c 0
 -91 -182 -71 -158 -48 -158 c 0
 -35 -158 -24 -165 -10 -183 c 0
 -3 -191 2 -195 6 -195 c 0
 20 -195 44 -126 60 -36 c 2
 134 375 l 1
 62 375 l 2
 50 375 48 376 48 381 c 0
 48 382 48 384 49 386 c 2
 51 394 l 1
 55 408 l 2
 58 420 58 420 74 420 c 2
 143 420 l 1
EndSplineSet
Validated: 1
Ligature2: "'liga' Standard Ligatures lookup 3-1" f l
EndChar

StartChar: endash
Encoding: 8211 8211 110
Width: 498
Flags: MW
HStem: 199 72<59.5 452 69 450>
LayerCount: 2
Fore
SplineSet
69 271 m 2
 452 271 l 2
 467 271 471 269 470 260 c 2
 469 252 l 1
 469 214 l 2
 469 199 469 199 450 199 c 2
 67 199 l 2
 52 199 52 199 52 217 c 2
 52 255 l 2
 52 270 53 271 69 271 c 2
EndSplineSet
Validated: 1
EndChar

StartChar: dagger
Encoding: 8224 8224 111
Width: 498
Flags: W
HStem: 389 136<90.5 118 415 442> 684 20G<251 287>
VStem: 204 130<627 657.5> 251 30<-231 -231>
LayerCount: 2
Fore
SplineSet
251 -231 m 2xd0
 243 -82 l 2
 231 109 229 138 222 181 c 0
 216 212 210 234 188 291 c 1
 241 359 251 383 256 441 c 1
 171 402 132 389 104 389 c 0
 69 389 43 418 43 457 c 0
 43 495 72 525 109 525 c 0
 139 525 178 511 255 473 c 1
 212 587 204 613 204 640 c 0
 204 675 233 704 269 704 c 0
 305 704 334 675 334 641 c 0xe0
 334 613 326 587 283 473 c 1
 357 511 395 525 424 525 c 0
 460 525 488 495 488 457 c 0
 488 418 463 389 429 389 c 0
 401 389 362 402 279 441 c 1
 283 409 285 395 291 378 c 0
 295 368 293 373 298 363 c 0
 309 345 320 327 331 311 c 2
 343 292 l 1
 340 280 336 268 332 255 c 0
 307 178 303 146 289 -85 c 2
 281 -231 l 2
 280 -245 275 -253 266 -253 c 0
 256 -253 252 -246 251 -231 c 2xd0
EndSplineSet
Validated: 1
Substitution2: "'cv01' Character Variants 01 lookup 1-1" dagger.cv01
EndChar

StartChar: daggerdbl
Encoding: 8225 8225 112
Width: 498
Flags: MW
HStem: -10 136<88 114.5 83 120.5 413 439.5> 389 136<88 114 413 439> 684 20G<245 281>
VStem: 198 132<-143 -111.5>
LayerCount: 2
Fore
SplineSet
186 292 m 1
 235 360 245 383 250 441 c 1
 165 402 128 389 100 389 c 0
 66 389 41 418 41 457 c 0
 41 495 70 525 106 525 c 0
 136 525 174 511 249 473 c 1
 206 587 198 613 198 640 c 0
 198 676 227 704 263 704 c 0
 299 704 328 676 328 641 c 0
 328 613 320 587 277 473 c 1
 352 511 391 525 421 525 c 0
 457 525 486 495 486 457 c 0
 486 418 461 389 427 389 c 0
 399 389 363 402 277 441 c 1
 284 380 285 378 326 317 c 0
 331 308 336 300 341 292 c 1
 338 285 335 278 332 270 c 0
 296 191 287 160 277 74 c 1
 361 113 399 126 427 126 c 0
 461 126 486 97 486 58 c 0
 486 20 457 -10 422 -10 c 0
 392 -10 355 3 279 41 c 1
 323 -74 330 -98 330 -125 c 0
 330 -161 301 -189 264 -189 c 0
 227 -189 198 -161 198 -125 c 0
 198 -98 206 -72 249 41 c 1
 173 3 135 -10 106 -10 c 0
 70 -10 41 20 41 58 c 0
 41 97 66 126 100 126 c 0
 129 126 166 113 250 74 c 1
 240 162 229 200 186 292 c 1
EndSplineSet
Validated: 1
EndChar

StartChar: periodcentered
Encoding: 183 183 113
Width: 111
Flags: MW
HStem: 252 147<66 98.5>
VStem: 18 130<306 344.5>
LayerCount: 2
Fore
SplineSet
84 399 m 0
 121 399 148 368 148 327 c 0
 148 285 118 252 79 252 c 0
 44 252 18 283 18 324 c 0
 18 365 48 399 84 399 c 0
EndSplineSet
Validated: 1
EndChar

StartChar: paragraph
Encoding: 182 182 114
Width: 498
Flags: W
HStem: 704 41<334 488 420 488 420 420>
VStem: 75 259<475.5 545.5> 295 39<-159 279 279 279> 381 39<-159 704 -159 704>
LayerCount: 2
Fore
SplineSet
488 745 m 1xd0
 488 704 l 1
 420 704 l 1
 420 -159 l 1
 381 -159 l 1
 381 704 l 1
 334 704 l 1
 334 -159 l 1
 295 -159 l 1
 295 279 l 1xb0
 217 295 180 311 144 345 c 0
 100 387 75 444 75 507 c 0
 75 584 113 655 175 693 c 0
 230 728 302 745 396 745 c 2
 488 745 l 1xd0
EndSplineSet
Validated: 1
EndChar

StartChar: bullet
Encoding: 8226 8226 115
Width: 498
Flags: MW
HStem: 177 363<201 300>
VStem: 68 363<309 408.5 308.5 410>
LayerCount: 2
Fore
SplineSet
252 540 m 0
 350 540 431 458 431 359 c 0
 431 258 350 177 250 177 c 0
 149 177 68 258 68 360 c 0
 68 460 150 540 252 540 c 0
EndSplineSet
Validated: 1
EndChar

StartChar: quotesinglbase
Encoding: 8218 8218 116
Width: 258
Flags: MW
HStem: -147 33<-60 -54>
VStem: 70 79<-40 54.5>
LayerCount: 2
Fore
SplineSet
-60 -147 m 1
 -54 -114 l 1
 34 -90 70 -62 70 -18 c 0
 70 1 62 11 38 21 c 0
 2 36 -8 48 -8 74 c 0
 -8 108 19 132 58 132 c 0
 113 132 149 88 149 21 c 0
 149 -31 123 -71 66 -104 c 0
 31 -125 -2 -136 -60 -147 c 1
EndSplineSet
Validated: 1
EndChar

StartChar: quotedblbase
Encoding: 8222 8222 117
Width: 424
Flags: MW
HStem: -144 33<-80 -74>
VStem: 50 79<-18.5 -5.5> 274 79<-18.5 -5.5>
LayerCount: 2
Fore
SplineSet
-80 -144 m 1
 -74 -111 l 1
 14 -88 50 -60 50 -15 c 0
 50 4 43 13 18 24 c 0
 -18 39 -28 50 -28 77 c 0
 -28 111 -1 135 38 135 c 0
 93 135 129 91 129 24 c 0
 129 -61 55 -120 -80 -144 c 1
144 -144 m 1
 150 -111 l 1
 238 -87 274 -59 274 -15 c 0
 274 4 266 13 242 24 c 0
 205 39 196 50 196 77 c 0
 196 111 223 135 262 135 c 0
 317 135 353 91 353 24 c 0
 353 -61 279 -120 144 -144 c 1
EndSplineSet
Validated: 1
EndChar

StartChar: quotedblright
Encoding: 8221 8221 118
Width: 424
Flags: MW
HStem: 416 34<72 78> 675 20G<170 217 394 441>
VStem: 202 79<523 617.5> 426 79<523 617.5>
LayerCount: 2
Fore
SplineSet
72 416 m 1
 78 450 l 1
 168 475 202 501 202 545 c 0
 202 565 194 574 170 584 c 0
 134 599 124 611 124 637 c 0
 124 671 151 695 189 695 c 0
 245 695 281 651 281 584 c 0
 281 532 255 493 198 459 c 0
 164 438 131 427 72 416 c 1
296 416 m 1
 302 450 l 1
 393 475 426 501 426 545 c 0
 426 564 418 574 394 584 c 0
 358 599 348 610 348 637 c 0
 348 671 375 695 413 695 c 0
 469 695 505 651 505 584 c 0
 505 532 479 493 423 459 c 0
 388 438 355 427 296 416 c 1
EndSplineSet
Validated: 1
EndChar

StartChar: guillemotright
Encoding: 187 187 119
Width: 424
Flags: W
LayerCount: 2
Fore
SplineSet
36 58 m 1
 11 73 l 1
 135 234 l 1
 39 395 l 1
 62 410 l 1
 235 241 l 1
 238 226 l 1
 36 58 l 1
190 58 m 1
 165 73 l 1
 290 234 l 1
 193 395 l 1
 216 410 l 1
 390 241 l 1
 392 226 l 1
 190 58 l 1
EndSplineSet
Validated: 1
EndChar

StartChar: ellipsis
Encoding: 8230 8230 120
Width: 830
Flags: MW
HStem: -15 132<85.5 114.5 356.5 385.5 626.5 655.5>
VStem: 43 114<34 69> 314 114<34.5 69> 584 114<34 69>
LayerCount: 2
Fore
SplineSet
102 117 m 0
 133 117 157 89 157 53 c 0
 157 15 131 -15 98 -15 c 0
 67 -15 43 13 43 51 c 0
 43 87 69 117 102 117 c 0
373 117 m 0
 404 117 428 89 428 53 c 0
 428 16 402 -15 369 -15 c 0
 338 -15 314 13 314 51 c 0
 314 87 340 117 373 117 c 0
643 117 m 0
 674 117 698 89 698 53 c 0
 698 15 672 -15 639 -15 c 0
 608 -15 584 13 584 51 c 0
 584 87 610 117 643 117 c 0
EndSplineSet
Validated: 1
EndChar

StartChar: perthousand
Encoding: 8240 8240 121
Width: 1143
Flags: W
HStem: -13 41<530.5 558 530.5 599 884.5 912> 288 41<596.5 627 950.5 981> 313 41<209.5 237 209.5 278.5> 623 41<275 306>
VStem: 100 75<413 436.5 398.5 480.5> 158 54<-28 -28> 343 76<534.5 566 470 579> 421 75<85 108.5 72 177.5> 641 54<681 681> 664 76<202 233.5 140 244.5> 775 75<85 108.5 72 178> 1018 76<202 233.5 140 244.5>
LayerCount: 2
Fore
SplineSet
612 329 m 0xd370
 686 329 740 272 740 195 c 0
 740 85 650 -13 548 -13 c 0
 475 -13 421 45 421 125 c 0
 421 230 513 329 612 329 c 0xd370
612 288 m 0
 581 288 556 268 533 224 c 0
 513 186 496 125 496 92 c 0
 496 52 515 28 546 28 c 0
 570 28 591 41 608 65 c 0
 642 113 664 177 664 227 c 0
 664 262 642 288 612 288 c 0
966 329 m 0
 1040 329 1094 272 1094 195 c 0
 1094 85 1004 -13 902 -13 c 0
 828 -13 775 45 775 125 c 0
 775 231 867 329 966 329 c 0
966 288 m 0
 935 288 910 268 887 224 c 0
 867 187 850 125 850 92 c 0
 850 52 869 28 900 28 c 0
 924 28 945 41 962 65 c 0
 996 113 1018 177 1018 227 c 0
 1018 262 996 288 966 288 c 0
641 681 m 1x97b0
 695 681 l 1
 212 -28 l 1
 158 -28 l 1
 641 681 l 1x97b0
291 664 m 0
 365 664 419 606 419 526 c 0
 419 414 329 313 228 313 c 0
 154 313 100 372 100 454 c 0xbb30
 100 507 127 569 167 610 c 0
 203 646 245 664 291 664 c 0
290 623 m 0
 260 623 235 601 212 557 c 0xb730
 192 518 175 454 175 419 c 0
 175 378 194 354 225 354 c 0
 249 354 270 367 287 392 c 0
 321 441 343 509 343 560 c 0
 343 598 322 623 290 623 c 0
EndSplineSet
Validated: 1
EndChar

StartChar: questiondown
Encoding: 191 191 122
Width: 387
Flags: W
HStem: -247 70<6 108> 172 85<77.5 150> 315 153<169 198>
VStem: -80 52<-133.5 -112 -141.5 -63> 112 143<379 405> 185 51<117.5 133 77 144>
LayerCount: 2
Fore
SplineSet
135 172 m 0xf4
 128 172 121 171 109 170 c 0
 99 169 90 168 82 168 c 0
 57 168 39 186 39 212 c 0
 39 239 61 257 94 257 c 0
 164 257 236 174 236 92 c 0
 236 62 225 32 208 13 c 0
 179 -17 170 -21 56 -58 c 0
 -5 -77 -28 -96 -28 -128 c 0
 -28 -155 -7 -177 19 -177 c 0
 29 -177 35 -175 58 -165 c 0
 80 -156 97 -151 111 -151 c 0
 137 -151 156 -169 156 -195 c 0
 156 -226 129 -247 87 -247 c 0
 -10 -247 -80 -180 -80 -87 c 0
 -80 -39 -59 2 -21 27 c 0
 -2 39 29 51 89 68 c 0
 163 89 185 103 185 132 c 0
 185 156 165 172 135 172 c 0xf4
192 468 m 0
 231 468 255 444 255 404 c 0
 255 354 220 315 176 315 c 0
 137 315 112 341 112 380 c 0xf8
 112 430 146 468 192 468 c 0
EndSplineSet
Validated: 1
EndChar

StartChar: grave
Encoding: 96 96 123
Width: 498
Flags: MW
HStem: 519 228<197.5 357>
VStem: 163 220<539.5 722>
LayerCount: 2
Fore
SplineSet
380 536 m 2
 367 524 l 2
 364 521 359 519 355 519 c 0
 352 519 349 521 343 526 c 0
 311 558 259 604 213 643 c 0
 179 671 163 693 163 712 c 0
 163 732 184 747 211 747 c 0
 241 747 261 733 284 694 c 0
 323 627 328 620 373 557 c 0
 383 542 383 542 383 540 c 0
 383 539 382 537 380 536 c 2
EndSplineSet
Validated: 1
EndChar

StartChar: acute
Encoding: 180 180 124
Width: 498
Flags: MW
HStem: 519 228<305 464.5>
VStem: 279 220<540 722>
LayerCount: 2
Fore
SplineSet
295 524 m 2
 282 536 l 2
 280 537 279 539 279 541 c 0
 279 542 279 543 289 557 c 0
 333 618 337 624 378 694 c 0
 401 733 421 747 451 747 c 0
 478 747 499 732 499 712 c 0
 499 693 483 671 449 643 c 0
 396 598 339 547 319 526 c 0
 314 521 310 519 307 519 c 0
 303 519 298 521 295 524 c 2
EndSplineSet
Validated: 1
EndChar

StartChar: circumflex
Encoding: 710 710 125
Width: 498
Flags: MW
HStem: 519 260<198.5 387 353.5 436>
VStem: 425 33<530 536>
LayerCount: 2
Fore
SplineSet
425 530 m 2
 393 593 l 2
 374 632 371 637 367 654 c 0
 366 658 364 669 361 684 c 1
 340 658 325 640 315 629 c 2
 234 550 l 2
 226 543 219 535 212 528 c 0
 206 521 203 519 199 519 c 0
 198 519 196 520 194 521 c 2
 182 531 l 2
 180 533 179 535 179 537 c 0
 179 539 180 542 182 545 c 2
 187 552 l 1
 288 712 l 2
 321 764 339 779 368 779 c 0
 406 779 429 749 437 687 c 2
 458 538 l 1
 458 536 l 2
 458 532 456 529 452 527 c 2
 442 521 l 2
 439 520 437 519 435 519 c 0
 432 519 428 523 425 530 c 2
EndSplineSet
Validated: 1
EndChar

StartChar: tilde
Encoding: 732 732 126
Width: 498
Flags: W
HStem: 534 84<390.5 391.5> 616 84<278.5 283> 673 20G<464.5 467.5>
VStem: 186 304<556.5 680.5>
LayerCount: 2
Fore
SplineSet
205 544 m 1x50
 190 550 l 2
 188 551 186 554 186 559 c 0
 186 570 201 609 218 641 c 0
 236 677 266 700 291 700 c 0x50
 316 700 334 685 365 642 c 0
 376 625 386 618 395 618 c 0
 414 618 431 636 456 684 c 0
 460 690 463 693 466 693 c 0
 469 693 472 692 474 691 c 2
 486 686 l 2
 489 685 490 682 490 679 c 0
 490 666 472 622 455 593 c 0
 433 557 404 534 379 534 c 0xb0
 356 534 339 548 315 586 c 0
 301 608 290 616 276 616 c 0
 258 616 240 598 228 568 c 0
 220 548 217 545 205 544 c 1x50
EndSplineSet
Validated: 1
EndChar

StartChar: macron
Encoding: 175 175 127
Width: 498
Flags: MW
HStem: 587 57<205 466 220 450>
VStem: 205 261<587 644>
LayerCount: 2
Fore
SplineSet
205 587 m 1
 220 644 l 1
 466 644 l 1
 450 587 l 1
 205 587 l 1
EndSplineSet
Validated: 1
EndChar

StartChar: breve
Encoding: 728 728 128
Width: 498
Flags: MW
HStem: 525 45<338 377> 638 20G<249 292 292 292 459 501 501 501>
VStem: 249 43<643 658>
LayerCount: 2
Fore
SplineSet
249 658 m 1
 292 658 l 1
 294 599 317 570 359 570 c 0
 401 570 431 596 459 658 c 1
 501 658 l 1
 489 621 481 605 465 584 c 0
 436 546 398 525 356 525 c 0
 308 525 271 553 256 601 c 0
 250 618 249 628 249 658 c 1
EndSplineSet
Validated: 1
EndChar

StartChar: dotaccent
Encoding: 729 729 129
Width: 498
Flags: MW
HStem: 553 132<338.5 369>
VStem: 296 114<600.5 637>
LayerCount: 2
Fore
SplineSet
355 685 m 0
 387 685 410 658 410 620 c 0
 410 581 386 553 352 553 c 0
 319 553 296 580 296 618 c 0
 296 656 322 685 355 685 c 0
EndSplineSet
Validated: 1
EndChar

StartChar: dieresis
Encoding: 168 168 130
Width: 498
Flags: MW
HStem: 553 132<230.5 261 421.5 452>
VStem: 188 114<600.5 637> 379 114<600.5 637>
LayerCount: 2
Fore
SplineSet
247 685 m 0
 279 685 302 658 302 620 c 0
 302 581 278 553 244 553 c 0
 211 553 188 580 188 618 c 0
 188 656 214 685 247 685 c 0
438 685 m 0
 470 685 493 658 493 620 c 0
 493 581 469 553 435 553 c 0
 402 553 379 580 379 618 c 0
 379 656 405 685 438 685 c 0
EndSplineSet
Validated: 1
EndChar

StartChar: ring
Encoding: 730 730 131
Width: 498
Flags: MW
HStem: 507 47<337 369 337 382> 669 47<338 369.5>
VStem: 249 47<596.5 628 596.5 641> 411 47<595.5 627.5>
LayerCount: 2
Fore
SplineSet
353 716 m 0
 411 716 458 669 458 612 c 0
 458 553 411 507 353 507 c 0
 295 507 249 554 249 613 c 0
 249 669 297 716 353 716 c 0
354 669 m 0
 322 669 296 643 296 613 c 0
 296 580 321 554 353 554 c 0
 385 554 411 579 411 612 c 0
 411 643 385 669 354 669 c 0
EndSplineSet
Validated: 1
EndChar

StartChar: cedilla
Encoding: 184 184 132
Width: 498
Flags: MW
HStem: -181 38<200 218>
VStem: 251 63<-117.5 -97.5>
LayerCount: 2
Fore
SplineSet
245 24 m 1
 269 20 l 1
 237 -32 l 1
 286 -35 314 -57 314 -93 c 0
 314 -142 255 -181 181 -181 c 0
 145 -181 126 -171 126 -152 c 0
 126 -137 137 -126 150 -126 c 0
 157 -126 157 -126 178 -138 c 0
 185 -141 194 -143 206 -143 c 0
 231 -143 251 -127 251 -108 c 0
 251 -87 234 -77 201 -77 c 0
 196 -77 193 -77 189 -78 c 2
 176 -79 l 2
 169 -79 161 -76 161 -73 c 0
 161 -70 164 -66 173 -55 c 2
 245 24 l 1
EndSplineSet
Validated: 1
EndChar

StartChar: hungarumlaut
Encoding: 733 733 133
Width: 498
Flags: MW
HStem: 519 228<220 379.5 351 396.5>
LayerCount: 2
Fore
SplineSet
210 524 m 2
 197 536 l 2
 195 537 194 539 194 541 c 0
 194 542 194 543 204 557 c 0
 248 618 252 624 293 694 c 0
 316 733 336 747 366 747 c 0
 393 747 414 732 414 712 c 0
 414 693 398 671 364 643 c 0
 311 598 254 547 234 526 c 0
 229 521 225 519 222 519 c 0
 218 519 213 521 210 524 c 2
383 524 m 2
 370 536 l 2
 368 537 367 539 367 540 c 0
 367 542 367 542 420 618 c 1
 466 694 l 2
 489 733 509 747 539 747 c 0
 566 747 587 732 587 712 c 0
 587 693 571 671 537 643 c 0
 484 598 442 560 407 526 c 0
 401 521 398 519 395 519 c 0
 391 519 386 521 383 524 c 2
EndSplineSet
Validated: 1
EndChar

StartChar: ogonek
Encoding: 731 731 134
Width: 498
Flags: MW
HStem: -182 52<297 322.5 297 334>
VStem: 201 57<-93 -65.5> 276 61<27 27>
LayerCount: 2
Fore
SplineSet
276 27 m 1
 337 27 l 1
 273 -26 258 -46 258 -78 c 0
 258 -108 281 -130 313 -130 c 0
 332 -130 338 -128 369 -111 c 0
 372 -109 375 -108 378 -108 c 0
 390 -108 402 -121 402 -133 c 0
 402 -157 356 -182 312 -182 c 0
 251 -182 201 -138 201 -84 c 0
 201 -47 210 -33 276 27 c 1
EndSplineSet
Validated: 1
EndChar

StartChar: caron
Encoding: 711 711 135
Width: 498
Flags: MW
HStem: 519 260<279.5 362.5>
VStem: 258 33<760 768>
LayerCount: 2
Fore
SplineSet
291 768 m 2
 323 705 l 2
 343 664 344 660 348 643 c 0
 349 640 352 628 355 613 c 1
 382 647 391 659 401 668 c 2
 482 748 l 2
 490 754 497 761 504 770 c 0
 510 777 513 779 516 779 c 0
 518 779 520 778 521 777 c 2
 534 766 l 2
 536 765 537 762 537 760 c 0
 537 759 536 756 534 753 c 2
 428 586 l 2
 395 534 377 519 348 519 c 0
 310 519 287 549 279 610 c 2
 258 760 l 2
 258 766 259 767 264 771 c 2
 274 776 l 2
 277 778 279 779 280 779 c 0
 284 779 288 775 291 768 c 2
EndSplineSet
Validated: 1
EndChar

StartChar: emdash
Encoding: 8212 8212 136
Width: 830
Flags: MW
HStem: 199 72<57.5 789 67 787>
LayerCount: 2
Fore
SplineSet
67 271 m 2
 789 271 l 2
 804 271 807 269 807 261 c 2
 807 252 l 1
 806 214 l 2
 806 199 806 199 787 199 c 2
 65 199 l 2
 50 199 50 199 50 217 c 2
 50 255 l 2
 50 270 51 271 67 271 c 2
EndSplineSet
Validated: 1
EndChar

StartChar: AE
Encoding: 198 198 137
Width: 977
Flags: MW
HStem: -5 43 347 45<358 474 325 485> 650 39<700 723 723 776.5 699 789>
VStem: 883 44<548 559 550 559>
LayerCount: 2
Fore
SplineSet
598 392 m 1
 676 392 l 2
 743 392 767 404 798 456 c 0
 802 462 805 464 813 464 c 2
 830 464 l 2
 839 464 842 462 842 457 c 0
 842 454 841 452 837 442 c 0
 823 404 798 325 785 273 c 0
 783 260 780 258 765 258 c 2
 748 258 l 2
 738 258 735 260 735 265 c 0
 735 267 736 270 737 273 c 0
 745 299 748 310 748 320 c 0
 748 341 736 346 686 346 c 2
 587 346 l 1
 529 140 l 2
 514 81 514 81 514 73 c 0
 514 46 550 38 675 38 c 0
 777 38 823 60 855 123 c 0
 871 155 872 157 878 157 c 0
 879 157 879 157 885 154 c 2
 901 146 l 2
 909 142 911 140 911 136 c 0
 911 134 911 134 906 122 c 2
 871 42 l 2
 867 33 863 23 859 12 c 0
 853 -3 851 -5 842 -5 c 0
 839 -5 829 -5 821 -4 c 0
 801 -3 603 0 564 0 c 0
 548 0 528 0 500 -1 c 2
 433 -1 l 1
 360 -3 l 2
 338 -4 318 -5 314 -5 c 0
 308 -5 304 -2 305 3 c 2
 306 8 l 1
 308 20 l 2
 309 28 309 28 310 29 c 0
 312 33 315 33 337 35 c 0
 381 39 388 47 404 106 c 2
 474 347 l 1
 325 347 l 1
 153 149 l 2
 114 104 93 72 93 56 c 0
 93 41 106 35 140 34 c 0
 164 34 167 33 167 27 c 0
 167 25 167 25 165 19 c 2
 161 8 l 2
 157 -2 154 -5 146 -5 c 0
 134 -5 134 -5 84 -2 c 0
 68 -1 55 0 47 0 c 0
 40 0 37 0 -31 -4 c 0
 -42 -5 -50 -5 -55 -5 c 0
 -61 -5 -63 -3 -63 3 c 0
 -63 5 -63 6 -62 12 c 2
 -59 24 l 2
 -58 31 -54 34 -41 36 c 0
 -5 39 2 45 61 119 c 2
 433 566 l 2
 455 594 465 612 465 627 c 0
 465 638 458 647 446 650 c 0
 436 653 434 653 396 654 c 0
 376 655 375 655 375 661 c 0
 375 664 375 666 376 672 c 2
 378 682 l 2
 380 692 383 694 393 694 c 2
 434 693 l 2
 454 692 669 689 729 689 c 0
 824 689 900 691 932 693 c 0
 939 694 946 694 950 694 c 0
 957 694 961 692 961 687 c 0
 961 686 961 684 960 681 c 2
 958 673 l 1
 927 559 l 2
 923 541 923 541 922 540 c 0
 920 539 919 539 912 539 c 2
 895 539 l 2
 885 539 883 540 883 548 c 2
 883 550 l 2
 884 562 884 574 884 580 c 0
 884 604 878 622 868 633 c 0
 856 646 838 650 789 650 c 2
 723 650 l 2
 677 650 671 643 651 574 c 2
 598 392 l 1
485 392 m 1
 556 647 l 1
 358 392 l 1
 485 392 l 1
EndSplineSet
Validated: 1
EndChar

StartChar: ordfeminine
Encoding: 170 170 138
Width: 424
Flags: MW
HStem: 328 58<138.5 211.5> 426 20G<409.5 412.5>
VStem: 100 83<407 445.5> 276 80<357 422>
LayerCount: 2
Fore
SplineSet
416 444 m 2
 426 434 l 2
 428 433 429 431 429 429 c 0
 429 424 417 406 401 386 c 0
 370 349 340 328 316 328 c 0
 293 328 276 345 276 369 c 0
 276 382 278 394 286 427 c 1
 217 347 193 328 156 328 c 0
 121 328 100 355 100 400 c 0
 100 491 186 600 293 648 c 0
 320 659 341 663 383 663 c 1
 389 670 l 2
 393 675 396 677 401 676 c 2
 405 675 l 1
 437 673 l 2
 442 673 445 669 445 664 c 0
 445 660 443 654 437 642 c 0
 409 585 356 433 356 411 c 0
 356 405 359 401 364 401 c 0
 369 401 377 407 387 421 c 0
 403 442 407 446 412 446 c 0
 413 446 414 446 416 444 c 2
323 614 m 0
 267 618 183 499 183 416 c 0
 183 398 190 386 201 386 c 0
 222 386 259 431 302 512 c 0
 333 568 340 585 340 599 c 0
 340 608 334 613 323 614 c 0
EndSplineSet
Validated: 33
EndChar

StartChar: Lslash
Encoding: 321 321 139
Width: 627
Flags: MW
HStem: -5 38<5 6 5 6> 412 20G<463 463> 654 40
LayerCount: 2
Fore
SplineSet
160 341 m 1
 223 557 l 2
 238 604 238 605 238 618 c 0
 238 642 222 651 178 654 c 0
 155 655 153 656 153 662 c 2
 154 670 l 1
 156 680 l 2
 159 692 162 694 175 694 c 0
 183 694 204 693 231 692 c 0
 266 690 298 689 329 689 c 0
 367 689 381 690 444 693 c 0
 450 694 461 694 467 694 c 0
 474 694 477 690 476 681 c 2
 474 669 l 2
 473 656 471 655 444 655 c 0
 388 652 376 640 350 557 c 2
 298 382 l 1
 463 432 l 1
 448 372 l 1
 280 321 l 1
 231 161 l 2
 213 96 213 96 213 85 c 0
 213 51 245 38 328 38 c 0
 402 38 459 47 493 65 c 0
 522 80 526 84 572 154 c 0
 574 157 577 159 579 159 c 0
 581 159 585 158 589 156 c 2
 603 150 l 2
 610 147 612 145 612 142 c 0
 612 139 610 134 608 130 c 2
 558 14 l 2
 551 -2 548 -5 537 -5 c 0
 521 -5 362 -2 256 0 c 2
 187 -1 l 1
 114 -1 l 1
 37 -3 l 2
 22 -4 8 -5 4 -5 c 0
 -3 -5 -5 -3 -5 3 c 2
 -5 8 l 1
 -3 20 l 2
 -2 28 -2 29 1 31 c 0
 2 32 4 33 6 33 c 2
 23 35 l 2
 66 43 76 56 99 132 c 2
 142 280 l 1
 41 250 l 1
 59 311 l 1
 160 341 l 1
EndSplineSet
Validated: 1
EndChar

StartChar: Oslash
Encoding: 216 216 140
Width: 830
Flags: MW
HStem: -20 44<367 434.5 367 521.5> 667 44<461 528.5>
VStem: 76 131<252 334 248.5 418> 691 131<363.5 439.5 271 444>
LayerCount: 2
Fore
SplineSet
92 -9 m 2
 161 65 l 1
 104 125 76 204 76 300 c 0
 76 536 255 711 496 711 c 0
 576 711 645 691 699 653 c 1
 771 731 l 2
 777 738 779 739 781 739 c 0
 784 739 784 739 792 732 c 2
 807 718 l 2
 814 712 815 710 815 708 c 0
 815 706 815 706 802 691 c 2
 738 621 l 1
 796 558 822 488 822 391 c 0
 822 151 645 -20 398 -20 c 0
 318 -20 252 -2 199 34 c 1
 127 -43 l 2
 118 -53 115 -56 112 -56 c 0
 110 -56 110 -56 103 -49 c 2
 89 -36 l 2
 81 -28 81 -27 81 -25 c 0
 81 -23 81 -23 92 -9 c 2
227 138 m 1
 648 597 l 1
 612 644 562 667 495 667 c 0
 427 667 367 640 319 587 c 0
 248 508 207 394 207 274 c 0
 207 223 213 181 227 138 c 1
674 551 m 1
 252 93 l 1
 289 46 335 24 399 24 c 0
 470 24 536 55 582 109 c 0
 650 189 691 306 691 421 c 0
 691 467 685 512 674 551 c 1
EndSplineSet
Validated: 1
EndChar

StartChar: OE
Encoding: 338 338 141
Width: 1033
Flags: W
HStem: -20 45<351.5 420> -2 41<691 768.5> 346 46<692 772 772 782 680 772> 651 39<793 923.5 839 886> 665 45<499.5 528 462 571>
VStem: 69 145<199.5 339.5 199.5 340> 980 44<548 559 551 559>
LayerCount: 2
Fore
SplineSet
692 392 m 1x36
 772 392 l 2
 839 392 864 405 894 456 c 0
 898 463 901 464 909 464 c 2
 926 464 l 2
 934 464 937 462 937 457 c 0
 937 454 936 452 932 442 c 0
 915 396 893 322 881 273 c 0
 878 259 876 258 861 258 c 2
 844 258 l 2
 834 258 831 260 831 265 c 0
 831 267 832 270 833 273 c 0
 842 304 844 310 844 320 c 0
 844 341 832 346 782 346 c 2
 680 346 l 1
 622 140 l 2
 607 81 607 81 607 72 c 0
 607 44 627 39 750 39 c 0
 864 39 912 59 949 123 c 0
 968 156 969 157 974 157 c 0
 976 157 976 157 982 154 c 2
 998 146 l 2
 1006 142 1008 140 1008 136 c 0
 1008 133 1008 133 1003 122 c 2
 968 42 l 2
 964 33 960 23 956 12 c 0
 950 -3 948 -5 939 -5 c 0
 936 -5 927 -5 918 -4 c 0
 894 -3 798 -2 739 -2 c 0x76
 643 -2 614 -4 492 -16 c 0
 462 -19 434 -20 406 -20 c 0
 196 -20 69 95 69 283 c 0
 69 397 114 503 196 581 c 0
 280 660 405 710 519 710 c 0xae
 537 710 565 708 602 704 c 0
 693 694 780 690 898 690 c 0
 949 690 1005 691 1029 693 c 0
 1036 694 1043 694 1047 694 c 0
 1054 694 1058 692 1058 687 c 0
 1058 685 1058 685 1055 674 c 2
 1024 559 l 2
 1020 542 1020 542 1019 541 c 0
 1018 540 1016 539 1009 539 c 2
 993 539 l 2
 982 539 980 541 980 548 c 2
 980 551 l 2
 981 563 981 575 981 581 c 0
 981 637 962 651 886 651 c 2
 816 651 l 2
 770 651 764 644 744 575 c 2
 692 392 l 1x36
511 130 m 2
 621 519 l 2
 634 563 638 583 638 598 c 0
 638 640 602 665 540 665 c 0
 459 665 384 637 332 587 c 0
 258 515 214 401 214 278 c 0
 214 121 290 25 413 25 c 0xae
 443 25 464 32 477 46 c 0
 490 60 495 72 511 130 c 2
EndSplineSet
Validated: 1
EndChar

StartChar: ordmasculine
Encoding: 186 186 142
Width: 424
Flags: MW
HStem: 328 30<224 247 224 286> 645 30<289.5 312>
VStem: 116 83<425 444.5 399.5 492> 338 83<559 580 486.5 603>
LayerCount: 2
Fore
SplineSet
299 675 m 0
 369 675 421 618 421 542 c 0
 421 431 334 328 238 328 c 0
 167 328 116 385 116 465 c 0
 116 519 146 586 187 627 c 0
 219 657 259 675 299 675 c 0
299 645 m 0
 280 645 264 631 246 599 c 0
 222 555 199 469 199 420 c 0
 199 379 212 358 236 358 c 0
 258 358 275 375 296 417 c 0
 321 469 338 536 338 582 c 0
 338 624 325 645 299 645 c 0
EndSplineSet
Validated: 1
EndChar

StartChar: ae
Encoding: 230 230 143
Width: 701
Flags: W
HStem: -19 64<472.5 492> -19 89<77 183.5> 363 64 412 39<562.5 577>
VStem: 32 102<101 139.5> 306 109<115 131.5> 608 92<331.5 376>
LayerCount: 2
Fore
SplineSet
615 104 m 1x9e
 636 86 l 1
 576 8 530 -19 454 -19 c 0x9e
 408 -19 367 -4 343 23 c 0
 321 47 306 89 306 126 c 0
 306 137 307 146 310 164 c 1
 286 129 271 110 253 87 c 0
 202 22 142 -19 97 -19 c 0
 57 -19 32 13 32 63 c 0
 32 216 232 427 377 427 c 0x6e
 387 427 397 426 419 422 c 1
 449 464 452 466 477 466 c 0
 500 466 513 462 513 456 c 0
 513 454 512 448 510 445 c 2
 505 433 l 1
 527 446 546 451 579 451 c 0
 654 451 700 416 700 360 c 0
 700 270 600 212 421 197 c 1
 416 172 415 161 415 145 c 0
 415 85 448 45 497 45 c 0
 536 45 571 62 615 104 c 1x9e
426 237 m 1
 431 237 431 237 437 238 c 0
 531 243 608 300 608 363 c 0x2e
 608 389 588 412 566 412 c 0
 521 412 464 340 426 237 c 1
334 363 m 0
 299 365 246 331 202 280 c 0
 161 230 134 167 134 117 c 0
 134 85 145 70 167 70 c 0x6e
 200 70 231 100 288 187 c 0
 335 256 370 321 370 337 c 0
 370 352 356 362 334 363 c 0
EndSplineSet
Validated: 33
Substitution2: "'smcp' Lowercase to Small Capitals lookup 4-1" ae.smcp
EndChar

StartChar: dotlessi
Encoding: 305 305 144
Width: 313
Flags: MW
HStem: -19 83<91 187> 361 90<125.5 228.5>
VStem: 151 113<337 414.5>
LayerCount: 2
Fore
SplineSet
261 140 m 1
 286 120 l 1
 218 28 158 -19 108 -19 c 0
 74 -19 50 3 50 33 c 0
 50 56 58 82 108 213 c 0
 138 291 151 332 151 342 c 0
 151 353 143 361 133 361 c 0
 118 361 101 349 66 312 c 0
 64 310 62 309 60 309 c 0
 59 309 58 310 54 313 c 2
 45 322 l 2
 42 325 41 327 41 329 c 0
 41 331 44 336 53 347 c 0
 105 408 170 451 212 451 c 0
 245 451 264 431 264 398 c 0
 264 363 244 304 182 156 c 0
 167 120 159 96 159 87 c 0
 159 74 168 64 179 64 c 0
 195 64 210 78 261 140 c 1
EndSplineSet
Validated: 1
EndChar

StartChar: lslash
Encoding: 322 322 145
Width: 295
Flags: MW
HStem: -17 83<80 172> 702 31<123 129>
VStem: 37 109<26.5 96>
LayerCount: 2
Fore
SplineSet
129 385 m 1
 175 534 l 2
 195 600 206 646 206 664 c 0
 206 692 185 701 123 702 c 1
 129 733 l 1
 257 750 263 751 333 772 c 1
 344 761 l 1
 331 723 283 570 246 447 c 2
 240 426 l 1
 336 463 l 1
 321 408 l 1
 223 371 l 1
 178 225 146 105 146 87 c 0
 146 74 152 66 163 66 c 0
 181 66 184 68 246 137 c 1
 270 117 l 1
 183 15 142 -17 96 -17 c 0
 64 -17 37 10 37 43 c 0
 37 69 49 119 79 218 c 2
 112 329 l 1
 30 298 l 1
 46 353 l 1
 129 385 l 1
EndSplineSet
Validated: 1
Substitution2: "'smcp' Lowercase to Small Capitals lookup 4-1" lslash.smcp
EndChar

StartChar: oslash
Encoding: 248 248 146
Width: 480
Flags: MW
HStem: -19 38<183 212.5 183 263.5> 414 37<270.5 298>
LayerCount: 2
Fore
SplineSet
443 455 m 2
 401 401 l 1
 433 361 446 322 446 268 c 0
 446 112 332 -19 195 -19 c 0
 156 -19 131 -10 102 12 c 1
 91 -3 l 2
 82 -14 81 -15 71 -15 c 2
 46 -15 l 2
 39 -15 34 -13 34 -9 c 0
 34 -7 37 -2 41 3 c 2
 72 44 l 1
 48 80 37 115 37 164 c 0
 37 320 152 451 288 451 c 0
 320 451 340 445 368 429 c 1
 393 462 l 2
 400 471 400 471 411 471 c 2
 439 471 l 2
 447 471 449 470 449 467 c 0
 449 464 448 462 443 455 c 2
337 318 m 1
 147 70 l 1
 153 37 170 19 196 19 c 0
 229 19 262 48 285 99 c 0
 314 164 333 244 337 318 c 1
149 144 m 1
 330 380 l 1
 321 403 308 414 288 414 c 0
 253 414 220 381 194 316 c 0
 170 261 157 207 149 144 c 1
EndSplineSet
Validated: 1
Substitution2: "'smcp' Lowercase to Small Capitals lookup 4-1" oslash.smcp
EndChar

StartChar: oe
Encoding: 339 339 147
Width: 719
Flags: W
HStem: -19 38<178.5 209 178.5 223> -19 64<492.5 512> 412 39<568.5 595.5>
VStem: 37 108<109.5 133 71.5 242> 629 91<341 366>
LayerCount: 2
Fore
SplineSet
635 104 m 1x78
 656 86 l 1
 597 8 550 -19 474 -19 c 0x78
 415 -19 374 1 348 43 c 1
 299 0 252 -19 194 -19 c 0xb8
 101 -19 37 55 37 164 c 0
 37 320 152 451 288 451 c 0
 347 451 394 422 423 367 c 1
 477 424 534 451 603 451 c 0
 674 451 720 415 720 359 c 0
 720 310 685 266 621 236 c 0
 580 217 519 204 441 197 c 1
 436 173 435 162 435 145 c 0
 435 85 468 45 517 45 c 0
 556 45 591 62 635 104 c 1x78
288 414 m 0
 259 415 230 391 205 343 c 0
 173 280 145 168 145 98 c 0
 145 45 162 19 195 19 c 0xb8
 223 19 250 39 273 77 c 0
 307 133 337 253 337 330 c 0
 337 384 320 412 288 414 c 0
447 237 m 1
 480 239 506 244 529 252 c 0
 586 273 629 320 629 362 c 0
 629 370 626 380 618 396 c 0
 612 406 602 412 589 412 c 0
 542 412 485 342 447 237 c 1
EndSplineSet
Validated: 33
Substitution2: "'smcp' Lowercase to Small Capitals lookup 4-1" oe.smcp
EndChar

StartChar: germandbls
Encoding: 223 223 148
Width: 535
Flags: W
HStem: -270 63<-96 -29> -19 47<274 373> 727 48<377 433.5>
VStem: 332 91<345 420.5> 425 93<85.5 186.5> 507 90<628 657>
LayerCount: 2
Fore
SplineSet
21 -105 m 2xf4
 145 450 l 2
 189 646 308 775 446 775 c 0
 537 775 597 727 597 654 c 0xf4
 597 602 573 565 497 503 c 0
 439 454 423 434 423 407 c 0
 423 391 431 373 466 309 c 0
 508 229 518 204 518 169 c 0
 518 77 403 -19 293 -19 c 0
 255 -19 232 -1 232 27 c 0
 232 54 254 78 278 78 c 0
 294 78 304 71 321 50 c 0
 334 33 343 28 355 28 c 0
 391 28 425 66 425 105 c 0xf8
 425 136 413 168 378 235 c 0
 340 308 332 330 332 360 c 0
 332 396 351 424 400 462 c 0
 481 523 507 563 507 627 c 0
 507 687 465 727 402 727 c 0
 333 727 297 677 266 539 c 2
 187 188 l 2
 158 62 104 -86 55 -166 c 0
 10 -241 -27 -270 -79 -270 c 0
 -113 -270 -137 -253 -137 -228 c 0
 -137 -203 -114 -180 -87 -180 c 0
 -75 -180 -70 -182 -46 -201 c 0
 -40 -206 -37 -207 -33 -207 c 0
 -25 -207 -18 -201 -11 -189 c 0
 -3 -175 17 -124 21 -105 c 2xf4
EndSplineSet
Validated: 1
Substitution2: "'smcp' Lowercase to Small Capitals lookup 4-1" germandbls.smcp
EndChar

StartChar: Adieresis
Encoding: 196 196 149
Width: 738
Flags: MW
HStem: -3 36 268 50<259 259 259 469 232 259> 758 132<393.5 424.5 584.5 615.5>
VStem: 352 114<806.5 843> 543 114<806.5 843>
LayerCount: 2
Fore
SplineSet
469 268 m 1
 232 268 l 1
 187 185 l 2
 152 119 136 83 136 67 c 0
 136 61 139 54 143 50 c 0
 154 39 154 39 203 33 c 0
 209 32 212 30 212 26 c 0
 212 24 211 19 210 17 c 2
 207 7 l 2
 204 -2 202 -5 195 -5 c 2
 136 -3 l 2
 114 -1 98 0 95 0 c 0
 92 0 76 -1 54 -3 c 2
 -7 -5 l 2
 -17 -5 -21 -2 -21 3 c 0
 -21 5 -21 9 -20 12 c 2
 -18 22 l 2
 -15 33 -14 34 4 34 c 0
 36 36 45 46 100 140 c 2
 431 705 l 1
 465 708 504 713 521 718 c 1
 606 113 l 2
 615 42 621 35 668 33 c 0
 691 32 692 32 692 27 c 0
 692 26 692 22 691 19 c 2
 689 8 l 2
 687 -2 684 -5 674 -5 c 0
 660 -5 613 -4 596 -3 c 0
 568 -1 548 0 542 0 c 0
 536 0 517 -1 493 -3 c 0
 475 -4 429 -6 413 -6 c 0
 404 -6 399 -4 399 1 c 0
 399 2 399 2 401 9 c 2
 404 22 l 2
 405 28 406 31 409 33 c 2
 416 35 l 1
 437 35 l 2
 471 36 488 50 488 78 c 0
 488 89 488 89 482 146 c 2
 469 268 l 1
462 317 m 1
 427 618 l 1
 259 318 l 1
 462 317 l 1
410 890 m 0
 443 890 466 863 466 826 c 0
 466 787 441 758 408 758 c 0
 375 758 352 786 352 824 c 0
 352 862 377 890 410 890 c 0
601 890 m 0
 634 890 657 863 657 826 c 0
 657 787 632 758 599 758 c 0
 566 758 543 786 543 824 c 0
 543 862 568 890 601 890 c 0
EndSplineSet
Validated: 1
EndChar

StartChar: Aacute
Encoding: 193 193 150
Width: 738
Flags: MW
HStem: -3 36 268 50<259 259 259 469 232 259>
LayerCount: 2
Fore
SplineSet
469 268 m 1
 232 268 l 1
 187 185 l 2
 152 119 136 83 136 67 c 0
 136 61 139 54 143 50 c 0
 154 39 154 39 203 33 c 0
 209 32 212 30 212 26 c 0
 212 24 211 19 210 17 c 2
 207 7 l 2
 204 -2 202 -5 195 -5 c 2
 136 -3 l 2
 114 -1 98 0 95 0 c 0
 92 0 76 -1 54 -3 c 2
 -7 -5 l 2
 -17 -5 -21 -2 -21 3 c 0
 -21 5 -21 9 -20 12 c 2
 -18 22 l 2
 -15 33 -14 34 4 34 c 0
 36 36 45 46 100 140 c 2
 431 705 l 1
 465 708 504 713 521 718 c 1
 606 113 l 2
 615 42 621 35 668 33 c 0
 691 32 692 32 692 27 c 0
 692 26 692 22 691 19 c 2
 689 8 l 2
 687 -2 684 -5 674 -5 c 0
 660 -5 613 -4 596 -3 c 0
 568 -1 548 0 542 0 c 0
 536 0 517 -1 493 -3 c 0
 475 -4 429 -6 413 -6 c 0
 404 -6 399 -4 399 1 c 0
 399 2 399 2 401 9 c 2
 404 22 l 2
 405 28 406 31 409 33 c 2
 416 35 l 1
 437 35 l 2
 471 36 488 50 488 78 c 0
 488 89 488 89 482 146 c 2
 469 268 l 1
462 317 m 1
 427 618 l 1
 259 318 l 1
 462 317 l 1
434 799 m 2
 527 902 l 2
 554 932 574 943 600 943 c 0
 628 943 648 927 648 904 c 0
 648 884 621 858 564 824 c 2
 466 766 l 2
 452 758 452 758 449 758 c 0
 446 758 443 760 441 763 c 2
 429 780 l 2
 427 782 426 785 426 787 c 0
 426 790 426 790 434 799 c 2
EndSplineSet
Validated: 1
EndChar

StartChar: Agrave
Encoding: 192 192 151
Width: 738
Flags: MW
HStem: -3 36 268 50<259 259 259 469 232 259>
LayerCount: 2
Fore
SplineSet
469 268 m 1
 232 268 l 1
 187 185 l 2
 152 119 136 83 136 67 c 0
 136 61 139 54 143 50 c 0
 154 39 154 39 203 33 c 0
 209 32 212 30 212 26 c 0
 212 24 211 19 210 17 c 2
 207 7 l 2
 204 -2 202 -5 195 -5 c 2
 136 -3 l 2
 114 -1 98 0 95 0 c 0
 92 0 76 -1 54 -3 c 2
 -7 -5 l 2
 -17 -5 -21 -2 -21 3 c 0
 -21 5 -21 9 -20 12 c 2
 -18 22 l 2
 -15 33 -14 34 4 34 c 0
 36 36 45 46 100 140 c 2
 431 705 l 1
 465 708 504 713 521 718 c 1
 606 113 l 2
 615 42 621 35 668 33 c 0
 691 32 692 32 692 27 c 0
 692 26 692 22 691 19 c 2
 689 8 l 2
 687 -2 684 -5 674 -5 c 0
 660 -5 613 -4 596 -3 c 0
 568 -1 548 0 542 0 c 0
 536 0 517 -1 493 -3 c 0
 475 -4 429 -6 413 -6 c 0
 404 -6 399 -4 399 1 c 0
 399 2 399 2 401 9 c 2
 404 22 l 2
 405 28 406 31 409 33 c 2
 416 35 l 1
 437 35 l 2
 471 36 488 50 488 78 c 0
 488 89 488 89 482 146 c 2
 469 268 l 1
462 317 m 1
 427 618 l 1
 259 318 l 1
 462 317 l 1
545 766 m 2
 447 824 l 2
 392 857 364 884 364 904 c 0
 364 927 384 943 412 943 c 0
 438 943 458 932 485 902 c 2
 578 799 l 2
 586 790 586 790 586 787 c 0
 586 785 585 783 583 780 c 2
 571 763 l 2
 568 760 565 758 563 758 c 0
 560 758 559 758 545 766 c 2
EndSplineSet
Validated: 1
EndChar

StartChar: Acircumflex
Encoding: 194 194 152
Width: 738
Flags: MW
HStem: -3 36 268 50<259 259 259 469 232 259>
LayerCount: 2
Fore
SplineSet
469 268 m 1
 232 268 l 1
 187 185 l 2
 152 119 136 83 136 67 c 0
 136 61 139 54 143 50 c 0
 154 39 154 39 203 33 c 0
 209 32 212 30 212 26 c 0
 212 24 211 19 210 17 c 2
 207 7 l 2
 204 -2 202 -5 195 -5 c 2
 136 -3 l 2
 114 -1 98 0 95 0 c 0
 92 0 76 -1 54 -3 c 2
 -7 -5 l 2
 -17 -5 -21 -2 -21 3 c 0
 -21 5 -21 9 -20 12 c 2
 -18 22 l 2
 -15 33 -14 34 4 34 c 0
 36 36 45 46 100 140 c 2
 431 705 l 1
 465 708 504 713 521 718 c 1
 606 113 l 2
 615 42 621 35 668 33 c 0
 691 32 692 32 692 27 c 0
 692 26 692 22 691 19 c 2
 689 8 l 2
 687 -2 684 -5 674 -5 c 0
 660 -5 613 -4 596 -3 c 0
 568 -1 548 0 542 0 c 0
 536 0 517 -1 493 -3 c 0
 475 -4 429 -6 413 -6 c 0
 404 -6 399 -4 399 1 c 0
 399 2 399 2 401 9 c 2
 404 22 l 2
 405 28 406 31 409 33 c 2
 416 35 l 1
 437 35 l 2
 471 36 488 50 488 78 c 0
 488 89 488 89 482 146 c 2
 469 268 l 1
462 317 m 1
 427 618 l 1
 259 318 l 1
 462 317 l 1
637 763 m 2
 571 815 l 2
 533 846 531 849 520 874 c 1
 506 856 501 851 474 831 c 2
 381 761 l 2
 378 759 376 758 375 758 c 0
 373 758 371 759 367 764 c 2
 351 780 l 2
 348 783 346 786 346 788 c 0
 346 791 346 791 383 827 c 0
 391 835 403 848 417 865 c 2
 465 924 l 2
 483 946 503 956 527 956 c 0
 554 956 571 945 589 917 c 2
 630 852 l 2
 642 833 652 821 674 794 c 0
 677 791 678 789 678 787 c 0
 678 786 676 782 674 779 c 2
 657 760 l 2
 655 758 653 756 651 756 c 0
 647 756 645 758 637 763 c 2
EndSplineSet
Validated: 1
EndChar

StartChar: Atilde
Encoding: 195 195 153
Width: 738
Flags: W
HStem: -3 36 268 50<259 259 259 469 232 259> 758 82<564 600> 839 82<462.5 467>
LayerCount: 2
Fore
SplineSet
469 268 m 1xc0
 232 268 l 1
 187 185 l 2
 152 119 136 83 136 67 c 0
 136 61 139 54 143 50 c 0
 154 39 154 39 203 33 c 0
 209 32 212 30 212 26 c 0
 212 24 211 19 210 17 c 2
 207 7 l 2
 204 -2 202 -5 195 -5 c 2
 136 -3 l 2
 114 -1 98 0 95 0 c 0
 92 0 76 -1 54 -3 c 2
 -7 -5 l 2
 -17 -5 -21 -2 -21 3 c 0
 -21 5 -21 9 -20 12 c 2
 -18 22 l 2
 -15 33 -14 34 4 34 c 0
 36 36 45 46 100 140 c 2
 431 705 l 1
 465 708 504 713 521 718 c 1
 606 113 l 2
 615 42 621 35 668 33 c 0
 691 32 692 32 692 27 c 0
 692 26 692 22 691 19 c 2
 689 8 l 2
 687 -2 684 -5 674 -5 c 0
 660 -5 613 -4 596 -3 c 0
 568 -1 548 0 542 0 c 0
 536 0 517 -1 493 -3 c 0
 475 -4 429 -6 413 -6 c 0
 404 -6 399 -4 399 1 c 0
 399 2 399 2 401 9 c 2
 404 22 l 2
 405 28 406 31 409 33 c 2
 416 35 l 1
 437 35 l 2
 471 36 488 50 488 78 c 0
 488 89 488 89 482 146 c 2
 469 268 l 1xc0
462 317 m 1
 427 618 l 1
 259 318 l 1
 462 317 l 1
350 767 m 2
 337 778 l 2
 335 780 333 782 333 784 c 0
 333 788 344 807 359 828 c 0
 400 886 446 921 479 921 c 0xd0
 503 921 509 917 563 859 c 0
 574 847 585 840 595 840 c 0
 605 840 621 847 634 858 c 0
 637 860 647 872 666 892 c 0
 681 909 686 914 690 914 c 0
 692 914 695 913 696 912 c 2
 704 906 l 2
 713 900 714 899 714 896 c 0
 714 888 690 848 670 823 c 0
 636 782 601 758 573 758 c 0xe0
 555 758 541 767 511 801 c 0
 480 834 474 839 460 839 c 0xd0
 438 839 406 818 382 786 c 0
 366 765 363 763 358 763 c 0
 356 763 354 764 350 767 c 2
EndSplineSet
Validated: 1
EndChar

StartChar: Aring
Encoding: 197 197 154
Width: 738
Flags: MW
HStem: -3 36 268 50<259 259 259 469 232 259> 744 52<511.5 538.5 511.5 553> 893 52<512 538.5>
VStem: 425 52<831.5 858 831.5 873> 574 52<831 857.5>
LayerCount: 2
Fore
SplineSet
469 268 m 1
 232 268 l 1
 187 185 l 2
 152 119 136 83 136 67 c 0
 136 61 139 54 143 50 c 0
 154 39 154 39 203 33 c 0
 209 32 212 30 212 26 c 0
 212 24 211 19 210 17 c 2
 207 7 l 2
 204 -2 202 -5 195 -5 c 2
 136 -3 l 2
 114 -1 98 0 95 0 c 0
 92 0 76 -1 54 -3 c 2
 -7 -5 l 2
 -17 -5 -21 -2 -21 3 c 0
 -21 5 -21 9 -20 12 c 2
 -18 22 l 2
 -15 33 -14 34 4 34 c 0
 36 36 45 46 100 140 c 2
 431 705 l 1
 465 708 504 713 521 718 c 1
 606 113 l 2
 615 42 621 35 668 33 c 0
 691 32 692 32 692 27 c 0
 692 26 692 22 691 19 c 2
 689 8 l 2
 687 -2 684 -5 674 -5 c 0
 660 -5 613 -4 596 -3 c 0
 568 -1 548 0 542 0 c 0
 536 0 517 -1 493 -3 c 0
 475 -4 429 -6 413 -6 c 0
 404 -6 399 -4 399 1 c 0
 399 2 399 2 401 9 c 2
 404 22 l 2
 405 28 406 31 409 33 c 2
 416 35 l 1
 437 35 l 2
 471 36 488 50 488 78 c 0
 488 89 488 89 482 146 c 2
 469 268 l 1
462 317 m 1
 427 618 l 1
 259 318 l 1
 462 317 l 1
526 945 m 0
 581 945 626 900 626 844 c 0
 626 789 581 744 525 744 c 0
 469 744 425 789 425 846 c 0
 425 900 471 945 526 945 c 0
525 893 m 0
 499 893 477 871 477 845 c 0
 477 818 498 796 525 796 c 0
 552 796 574 818 574 844 c 0
 574 871 552 893 525 893 c 0
EndSplineSet
Validated: 1
EndChar

StartChar: Ccedilla
Encoding: 199 199 155
Width: 738
Flags: MW
HStem: -230 51<308 324.5 308 329.5> -20 44<406 446.5> 667 44<434 539>
VStem: 82 131<221.5 383 194 417.5> 356 83<-152.5 -131.5>
LayerCount: 2
Fore
SplineSet
371 -18 m 1
 354 -56 l 1
 413 -66 439 -88 439 -128 c 0
 439 -181 368 -230 291 -230 c 0
 237 -230 209 -215 209 -187 c 0
 209 -169 223 -155 241 -155 c 0
 252 -155 252 -155 286 -173 c 0
 294 -177 303 -179 313 -179 c 0
 336 -179 356 -162 356 -143 c 0
 356 -120 333 -106 288 -104 c 0
 283 -103 275 -100 275 -97 c 0
 275 -94 280 -88 306 -56 c 0
 311 -50 320 -37 323 -32 c 2
 332 -12 l 1
 172 26 82 140 82 303 c 0
 82 532 267 711 504 711 c 0
 606 711 689 681 764 617 c 1
 719 499 l 2
 714 485 714 485 711 485 c 2
 708 485 l 1
 701 487 l 1
 686 489 l 2
 676 491 673 493 673 498 c 0
 673 501 674 504 675 509 c 0
 680 522 684 545 684 558 c 0
 684 591 669 614 635 635 c 0
 604 655 560 667 518 667 c 0
 350 667 213 491 213 275 c 0
 213 113 285 24 414 24 c 0
 485 24 539 49 582 103 c 0
 592 116 592 116 624 166 c 0
 625 169 628 171 629 171 c 0
 630 171 630 171 637 169 c 2
 657 162 l 2
 662 160 663 159 663 157 c 0
 663 155 663 155 660 147 c 2
 617 27 l 1
 534 -8 480 -20 413 -20 c 0
 399 -20 389 -20 371 -18 c 1
EndSplineSet
Validated: 1
EndChar

StartChar: Eth
Encoding: 208 208 156
Width: 774
Flags: W
HStem: -5 43<313.5 411.5 282.5 457.5> 342 50<102 168 88 183 302 434> 655 45 666 43<408.5 504>
VStem: 653 131<313 504>
LayerCount: 2
Fore
SplineSet
183 392 m 1xd8
 220 515 l 2
 235 568 244 606 244 624 c 0
 244 647 229 659 200 659 c 0
 193 659 185 658 177 657 c 0
 168 656 161 655 156 655 c 0
 151 655 147 658 147 663 c 2
 148 671 l 1
 152 684 l 2
 155 694 161 697 190 700 c 0xe8
 241 705 340 709 396 709 c 0
 662 709 784 614 784 406 c 0
 784 167 591 -5 324 -5 c 0
 303 -5 275 -4 239 -2 c 0
 205 -1 183 0 168 0 c 0
 108 0 55 -2 24 -4 c 0
 19 -5 12 -5 7 -5 c 0
 0 -5 -2 -3 -2 3 c 2
 -2 8 l 1
 0 20 l 2
 1 28 2 29 4 31 c 0
 5 32 7 33 9 33 c 2
 29 34 l 1
 73 44 82 55 105 132 c 2
 168 342 l 1
 88 342 l 1
 102 392 l 1
 183 392 l 1xd8
302 392 m 1
 449 392 l 1
 434 342 l 1
 288 342 l 1
 230 140 l 2
 215 84 215 84 215 76 c 0
 215 53 253 38 312 38 c 0
 511 38 653 200 653 426 c 0
 653 582 576 666 432 666 c 0xd8
 385 666 380 661 362 601 c 2
 302 392 l 1
EndSplineSet
Validated: 1
EndChar

StartChar: Edieresis
Encoding: 203 203 157
Width: 627
Flags: W
HStem: 0 39<249.5 379.5> 346 46<290 369 369 379 278 369> 653 41 758 132<338.5 369.5 529.5 560.5>
VStem: 297 114<806.5 843> 488 114<806.5 843> 576 44<548 559 550 559>
LayerCount: 2
Fore
SplineSet
290 392 m 1xfa
 369 392 l 2
 435 392 463 406 491 456 c 0
 495 462 498 464 506 464 c 2
 523 464 l 2
 532 464 535 462 535 457 c 0
 535 454 534 452 530 442 c 0
 515 401 489 316 479 273 c 0
 476 260 474 258 458 258 c 2
 441 258 l 2
 431 258 428 260 428 265 c 0
 428 268 428 268 433 285 c 0
 438 300 441 312 441 320 c 0
 441 341 429 346 379 346 c 2
 278 346 l 1
 221 140 l 2
 206 81 206 81 206 72 c 0
 206 44 228 39 343 39 c 0
 416 39 446 43 476 58 c 0
 505 72 528 94 545 123 c 0
 564 155 565 157 570 157 c 0
 572 157 572 157 578 154 c 2
 594 146 l 2
 602 142 604 140 604 136 c 0
 604 133 604 133 599 122 c 2
 564 42 l 2
 560 33 556 23 552 12 c 0
 546 -2 544 -5 535 -5 c 0
 532 -5 522 -5 514 -4 c 0
 495 -3 296 0 257 0 c 0
 242 0 221 0 192 -1 c 2
 125 -1 l 1
 36 -3 l 2
 21 -4 6 -5 1 -5 c 0
 -6 -5 -8 -3 -8 3 c 2
 -8 8 l 1
 -6 20 l 2
 -5 28 -5 29 -2 31 c 0
 -1 32 1 33 3 33 c 2
 18 35 l 2
 64 41 75 55 99 132 c 2
 217 556 l 2
 227 592 230 605 230 617 c 0
 230 641 214 651 169 653 c 0
 146 655 144 656 144 662 c 0
 144 665 144 667 145 670 c 2
 147 681 l 2
 150 693 152 694 165 694 c 2
 441 689 l 2
 511 689 598 691 625 693 c 0
 632 694 639 694 643 694 c 0
 650 694 654 692 654 687 c 0
 654 685 654 685 651 674 c 2
 620 559 l 2
 616 539 616 539 605 539 c 2
 589 539 l 2
 578 539 576 540 576 548 c 2
 576 550 l 2
 577 562 577 574 577 581 c 0
 577 636 558 650 482 650 c 2
 415 650 l 2
 369 650 362 643 343 574 c 2
 290 392 l 1xfa
355 890 m 0
 388 890 411 863 411 826 c 0
 411 787 386 758 353 758 c 0
 320 758 297 786 297 824 c 0
 297 862 322 890 355 890 c 0
546 890 m 0
 579 890 602 863 602 826 c 0
 602 787 577 758 544 758 c 0
 511 758 488 786 488 824 c 0xfc
 488 862 513 890 546 890 c 0
EndSplineSet
Validated: 1
EndChar

StartChar: Eacute
Encoding: 201 201 158
Width: 627
Flags: MW
HStem: 0 39<249.5 379.5> 346 46<290 369 369 379 278 369> 653 41
VStem: 576 44<548 559 550 559>
LayerCount: 2
Fore
SplineSet
290 392 m 1
 369 392 l 2
 435 392 463 406 491 456 c 0
 495 462 498 464 506 464 c 2
 523 464 l 2
 532 464 535 462 535 457 c 0
 535 454 534 452 530 442 c 0
 515 401 489 316 479 273 c 0
 476 260 474 258 458 258 c 2
 441 258 l 2
 431 258 428 260 428 265 c 0
 428 268 428 268 433 285 c 0
 438 300 441 312 441 320 c 0
 441 341 429 346 379 346 c 2
 278 346 l 1
 221 140 l 2
 206 81 206 81 206 72 c 0
 206 44 228 39 343 39 c 0
 416 39 446 43 476 58 c 0
 505 72 528 94 545 123 c 0
 564 155 565 157 570 157 c 0
 572 157 572 157 578 154 c 2
 594 146 l 2
 602 142 604 140 604 136 c 0
 604 133 604 133 599 122 c 2
 564 42 l 2
 560 33 556 23 552 12 c 0
 546 -2 544 -5 535 -5 c 0
 532 -5 522 -5 514 -4 c 0
 495 -3 296 0 257 0 c 0
 242 0 221 0 192 -1 c 2
 125 -1 l 1
 36 -3 l 2
 21 -4 6 -5 1 -5 c 0
 -6 -5 -8 -3 -8 3 c 2
 -8 8 l 1
 -6 20 l 2
 -5 28 -5 29 -2 31 c 0
 -1 32 1 33 3 33 c 2
 18 35 l 2
 64 41 75 55 99 132 c 2
 217 556 l 2
 227 592 230 605 230 617 c 0
 230 641 214 651 169 653 c 0
 146 655 144 656 144 662 c 0
 144 665 144 667 145 670 c 2
 147 681 l 2
 150 693 152 694 165 694 c 2
 441 689 l 2
 511 689 598 691 625 693 c 0
 632 694 639 694 643 694 c 0
 650 694 654 692 654 687 c 0
 654 685 654 685 651 674 c 2
 620 559 l 2
 616 539 616 539 605 539 c 2
 589 539 l 2
 578 539 576 540 576 548 c 2
 576 550 l 2
 577 562 577 574 577 581 c 0
 577 636 558 650 482 650 c 2
 415 650 l 2
 369 650 362 643 343 574 c 2
 290 392 l 1
379 799 m 2
 472 902 l 2
 499 932 519 943 545 943 c 0
 573 943 593 927 593 904 c 0
 593 884 566 857 510 824 c 2
 412 766 l 2
 398 758 397 758 394 758 c 0
 392 758 389 760 386 763 c 2
 374 780 l 2
 372 783 371 785 371 787 c 0
 371 790 371 790 379 799 c 2
EndSplineSet
Validated: 1
EndChar

StartChar: Egrave
Encoding: 200 200 159
Width: 627
Flags: MW
HStem: 0 39<249.5 379.5> 346 46<290 369 369 379 278 369> 653 41
VStem: 576 44<548 559 550 559>
LayerCount: 2
Fore
SplineSet
290 392 m 1
 369 392 l 2
 435 392 463 406 491 456 c 0
 495 462 498 464 506 464 c 2
 523 464 l 2
 532 464 535 462 535 457 c 0
 535 454 534 452 530 442 c 0
 515 401 489 316 479 273 c 0
 476 260 474 258 458 258 c 2
 441 258 l 2
 431 258 428 260 428 265 c 0
 428 268 428 268 433 285 c 0
 438 300 441 312 441 320 c 0
 441 341 429 346 379 346 c 2
 278 346 l 1
 221 140 l 2
 206 81 206 81 206 72 c 0
 206 44 228 39 343 39 c 0
 416 39 446 43 476 58 c 0
 505 72 528 94 545 123 c 0
 564 155 565 157 570 157 c 0
 572 157 572 157 578 154 c 2
 594 146 l 2
 602 142 604 140 604 136 c 0
 604 133 604 133 599 122 c 2
 564 42 l 2
 560 33 556 23 552 12 c 0
 546 -2 544 -5 535 -5 c 0
 532 -5 522 -5 514 -4 c 0
 495 -3 296 0 257 0 c 0
 242 0 221 0 192 -1 c 2
 125 -1 l 1
 36 -3 l 2
 21 -4 6 -5 1 -5 c 0
 -6 -5 -8 -3 -8 3 c 2
 -8 8 l 1
 -6 20 l 2
 -5 28 -5 29 -2 31 c 0
 -1 32 1 33 3 33 c 2
 18 35 l 2
 64 41 75 55 99 132 c 2
 217 556 l 2
 227 592 230 605 230 617 c 0
 230 641 214 651 169 653 c 0
 146 655 144 656 144 662 c 0
 144 665 144 667 145 670 c 2
 147 681 l 2
 150 693 152 694 165 694 c 2
 441 689 l 2
 511 689 598 691 625 693 c 0
 632 694 639 694 643 694 c 0
 650 694 654 692 654 687 c 0
 654 685 654 685 651 674 c 2
 620 559 l 2
 616 539 616 539 605 539 c 2
 589 539 l 2
 578 539 576 540 576 548 c 2
 576 550 l 2
 577 562 577 574 577 581 c 0
 577 636 558 650 482 650 c 2
 415 650 l 2
 369 650 362 643 343 574 c 2
 290 392 l 1
491 766 m 2
 393 824 l 2
 337 857 309 884 309 904 c 0
 309 927 329 943 357 943 c 0
 383 943 403 932 430 902 c 2
 523 799 l 2
 531 790 531 790 531 786 c 0
 531 785 530 782 528 780 c 2
 516 763 l 2
 513 760 511 758 508 758 c 0
 505 758 505 758 491 766 c 2
EndSplineSet
Validated: 1
EndChar

StartChar: Ecircumflex
Encoding: 202 202 160
Width: 627
Flags: MW
HStem: 0 39<249.5 379.5> 346 46<290 369 369 379 278 369> 653 41
VStem: 576 44<548 559 550 559>
LayerCount: 2
Fore
SplineSet
290 392 m 1
 369 392 l 2
 435 392 463 406 491 456 c 0
 495 462 498 464 506 464 c 2
 523 464 l 2
 532 464 535 462 535 457 c 0
 535 454 534 452 530 442 c 0
 515 401 489 316 479 273 c 0
 476 260 474 258 458 258 c 2
 441 258 l 2
 431 258 428 260 428 265 c 0
 428 268 428 268 433 285 c 0
 438 300 441 312 441 320 c 0
 441 341 429 346 379 346 c 2
 278 346 l 1
 221 140 l 2
 206 81 206 81 206 72 c 0
 206 44 228 39 343 39 c 0
 416 39 446 43 476 58 c 0
 505 72 528 94 545 123 c 0
 564 155 565 157 570 157 c 0
 572 157 572 157 578 154 c 2
 594 146 l 2
 602 142 604 140 604 136 c 0
 604 133 604 133 599 122 c 2
 564 42 l 2
 560 33 556 23 552 12 c 0
 546 -2 544 -5 535 -5 c 0
 532 -5 522 -5 514 -4 c 0
 495 -3 296 0 257 0 c 0
 242 0 221 0 192 -1 c 2
 125 -1 l 1
 36 -3 l 2
 21 -4 6 -5 1 -5 c 0
 -6 -5 -8 -3 -8 3 c 2
 -8 8 l 1
 -6 20 l 2
 -5 28 -5 29 -2 31 c 0
 -1 32 1 33 3 33 c 2
 18 35 l 2
 64 41 75 55 99 132 c 2
 217 556 l 2
 227 592 230 605 230 617 c 0
 230 641 214 651 169 653 c 0
 146 655 144 656 144 662 c 0
 144 665 144 667 145 670 c 2
 147 681 l 2
 150 693 152 694 165 694 c 2
 441 689 l 2
 511 689 598 691 625 693 c 0
 632 694 639 694 643 694 c 0
 650 694 654 692 654 687 c 0
 654 685 654 685 651 674 c 2
 620 559 l 2
 616 539 616 539 605 539 c 2
 589 539 l 2
 578 539 576 540 576 548 c 2
 576 550 l 2
 577 562 577 574 577 581 c 0
 577 636 558 650 482 650 c 2
 415 650 l 2
 369 650 362 643 343 574 c 2
 290 392 l 1
582 763 m 2
 517 815 l 2
 479 846 476 849 465 874 c 1
 451 856 446 851 420 831 c 2
 326 761 l 2
 324 759 321 758 320 758 c 0
 318 758 316 759 312 764 c 2
 296 780 l 2
 293 783 291 786 291 788 c 0
 291 791 291 791 328 827 c 0
 340 841 352 853 362 865 c 2
 411 924 l 2
 428 946 448 956 472 956 c 0
 499 956 516 945 534 917 c 2
 576 852 l 2
 586 835 597 821 620 794 c 0
 623 791 624 789 624 787 c 0
 624 786 623 784 619 779 c 2
 603 760 l 2
 601 758 598 756 596 756 c 0
 593 756 590 757 582 763 c 2
EndSplineSet
Validated: 1
EndChar

StartChar: Idieresis
Encoding: 207 207 161
Width: 387
Flags: MW
HStem: -5 36 654 40 758 132<219.5 249.5 410.5 441.5>
VStem: 178 113<806.5 843> 369 114<806.5 843>
LayerCount: 2
Fore
SplineSet
107 132 m 2
 229 557 l 2
 238 588 242 606 242 617 c 0
 242 642 226 651 182 654 c 0
 159 655 157 656 157 662 c 0
 157 664 157 667 158 670 c 2
 160 680 l 2
 163 693 165 694 178 694 c 0
 186 694 188 694 235 691 c 0
 266 690 297 689 329 689 c 0
 371 689 384 689 443 693 c 0
 450 694 458 694 462 694 c 0
 469 694 471 692 471 686 c 2
 471 681 l 1
 469 669 l 2
 468 661 468 660 465 658 c 0
 463 656 461 656 440 655 c 0
 387 650 377 638 353 557 c 2
 231 132 l 2
 222 101 218 83 218 71 c 0
 218 47 235 37 278 35 c 0
 301 34 303 33 303 27 c 2
 302 19 l 1
 300 9 l 2
 297 -3 295 -5 283 -5 c 0
 274 -5 272 -5 225 -2 c 0
 194 -1 163 0 132 0 c 0
 93 0 63 -1 17 -4 c 0
 10 -5 3 -5 0 -5 c 0
 -7 -5 -9 -3 -9 3 c 2
 -9 8 l 1
 -7 20 l 2
 -6 28 -5 29 -3 31 c 0
 0 33 0 33 22 34 c 0
 73 39 84 52 107 132 c 2
236 890 m 0
 268 890 291 863 291 826 c 0
 291 787 266 758 233 758 c 0
 201 758 178 786 178 824 c 0
 178 862 203 890 236 890 c 0
427 890 m 0
 460 890 483 863 483 826 c 0
 483 787 458 758 425 758 c 0
 392 758 369 785 369 824 c 0
 369 862 394 890 427 890 c 0
EndSplineSet
Validated: 1
EndChar

StartChar: Iacute
Encoding: 205 205 162
Width: 387
Flags: MW
HStem: -5 36 654 40
LayerCount: 2
Fore
SplineSet
106 132 m 2
 228 557 l 2
 237 588 241 606 241 617 c 0
 241 642 225 651 181 654 c 0
 158 655 156 656 156 662 c 0
 156 664 156 667 157 670 c 2
 159 680 l 2
 162 693 164 694 177 694 c 0
 185 694 187 694 234 691 c 0
 265 690 296 689 328 689 c 0
 370 689 383 689 442 693 c 0
 449 694 457 694 461 694 c 0
 468 694 470 692 470 686 c 2
 470 681 l 1
 468 669 l 2
 467 661 467 660 464 658 c 0
 462 656 460 656 439 655 c 0
 386 650 376 638 352 557 c 2
 230 132 l 2
 221 101 217 83 217 71 c 0
 217 47 234 37 277 35 c 0
 300 34 302 33 302 27 c 2
 301 19 l 1
 299 9 l 2
 296 -3 294 -5 282 -5 c 0
 273 -5 271 -5 224 -2 c 0
 193 -1 162 0 131 0 c 0
 92 0 62 -1 16 -4 c 0
 9 -5 2 -5 -1 -5 c 0
 -8 -5 -10 -3 -10 3 c 2
 -10 8 l 1
 -8 20 l 2
 -7 28 -6 29 -4 31 c 0
 -1 33 -1 33 21 34 c 0
 72 39 83 52 106 132 c 2
258 799 m 2
 351 902 l 2
 378 932 398 943 424 943 c 0
 452 943 472 927 472 904 c 0
 472 884 444 857 389 824 c 2
 291 766 l 2
 277 758 277 758 273 758 c 0
 271 758 268 760 265 763 c 2
 253 780 l 2
 251 783 250 785 250 786 c 0
 250 790 250 790 258 799 c 2
EndSplineSet
Validated: 1
EndChar

StartChar: Igrave
Encoding: 204 204 163
Width: 387
Flags: MW
HStem: -5 36 654 40
LayerCount: 2
Fore
SplineSet
107 132 m 2
 229 557 l 2
 238 588 242 606 242 617 c 0
 242 642 226 651 182 654 c 0
 159 655 157 656 157 662 c 0
 157 664 157 667 158 670 c 2
 160 680 l 2
 163 693 165 694 178 694 c 0
 186 694 188 694 235 691 c 0
 266 690 297 689 329 689 c 0
 371 689 384 689 443 693 c 0
 450 694 458 694 462 694 c 0
 469 694 471 692 471 686 c 2
 471 681 l 1
 469 669 l 2
 468 661 468 660 465 658 c 0
 463 656 461 656 440 655 c 0
 387 650 377 638 353 557 c 2
 231 132 l 2
 222 101 218 83 218 71 c 0
 218 47 235 37 278 35 c 0
 301 34 303 33 303 27 c 2
 302 19 l 1
 300 9 l 2
 297 -3 295 -5 283 -5 c 0
 274 -5 272 -5 225 -2 c 0
 194 -1 163 0 132 0 c 0
 93 0 63 -1 17 -4 c 0
 10 -5 3 -5 0 -5 c 0
 -7 -5 -9 -3 -9 3 c 2
 -9 8 l 1
 -7 20 l 2
 -6 28 -5 29 -3 31 c 0
 0 33 0 33 22 34 c 0
 73 39 84 52 107 132 c 2
371 766 m 2
 273 824 l 2
 218 857 190 884 190 904 c 0
 190 927 210 943 238 943 c 0
 264 943 283 932 310 902 c 2
 403 799 l 2
 409 792 411 789 411 786 c 0
 411 784 410 782 409 780 c 2
 396 763 l 2
 394 760 391 758 388 758 c 0
 385 758 385 758 371 766 c 2
EndSplineSet
Validated: 1
EndChar

StartChar: Icircumflex
Encoding: 206 206 164
Width: 387
Flags: MW
HStem: -5 36 654 40
LayerCount: 2
Fore
SplineSet
106 132 m 2
 228 557 l 2
 237 588 241 606 241 617 c 0
 241 642 225 651 181 654 c 0
 158 655 156 656 156 662 c 0
 156 664 156 667 157 670 c 2
 159 680 l 2
 162 693 164 694 177 694 c 0
 185 694 187 694 234 691 c 0
 265 690 296 689 328 689 c 0
 370 689 383 689 442 693 c 0
 449 694 457 694 461 694 c 0
 468 694 470 692 470 686 c 2
 470 681 l 1
 468 669 l 2
 467 661 467 660 464 658 c 0
 462 656 460 656 439 655 c 0
 386 650 376 638 352 557 c 2
 230 132 l 2
 221 101 217 83 217 71 c 0
 217 47 234 37 277 35 c 0
 300 34 302 33 302 27 c 2
 301 19 l 1
 299 9 l 2
 296 -3 294 -5 282 -5 c 0
 273 -5 271 -5 224 -2 c 0
 193 -1 162 0 131 0 c 0
 92 0 62 -1 16 -4 c 0
 9 -5 2 -5 -1 -5 c 0
 -8 -5 -10 -3 -10 3 c 2
 -10 8 l 1
 -8 20 l 2
 -7 28 -6 29 -4 31 c 0
 -1 33 -1 33 21 34 c 0
 72 39 83 52 106 132 c 2
462 763 m 2
 396 815 l 2
 358 846 355 849 345 874 c 1
 331 856 326 852 299 831 c 2
 205 761 l 2
 203 759 200 758 199 758 c 0
 198 758 195 760 191 764 c 2
 175 780 l 2
 172 784 170 787 170 788 c 0
 170 791 170 791 207 827 c 0
 220 841 232 853 241 865 c 2
 290 924 l 2
 307 946 327 956 351 956 c 0
 379 956 396 945 413 917 c 2
 455 852 l 1
 477 821 l 1
 499 794 l 2
 502 791 503 789 503 787 c 0
 503 786 502 785 498 779 c 2
 482 760 l 2
 480 758 477 756 475 756 c 0
 472 756 469 757 462 763 c 2
EndSplineSet
Validated: 1
EndChar

StartChar: Ntilde
Encoding: 209 209 165
Width: 793
Flags: W
HStem: -5 39<0.5 10> 655 39<129 130 672 673> 758 82<591 632.5> 839 82<490 494.5>
LayerCount: 2
Fore
SplineSet
377 767 m 2xd0
 365 778 l 2
 363 780 361 782 361 784 c 0
 361 788 373 808 387 828 c 0
 430 888 473 921 507 921 c 0xd0
 521 921 536 914 552 900 c 0
 556 897 556 897 590 859 c 0
 601 847 613 840 623 840 c 0
 642 840 656 850 693 892 c 0
 708 909 714 914 718 914 c 0
 720 914 722 913 724 912 c 2
 731 906 l 2
 740 900 741 899 741 896 c 0
 741 888 716 848 697 823 c 0
 663 782 628 758 600 758 c 0xe0
 582 758 569 767 538 801 c 0
 507 834 501 839 488 839 c 0
 466 839 435 819 410 786 c 0
 392 764 391 763 386 763 c 0
 383 763 382 764 377 767 c 2xd0
570 -5 m 1
 274 531 l 1
 175 190 l 2
 162 144 151 91 151 71 c 0
 151 43 165 36 216 34 c 0
 235 33 238 33 238 28 c 0
 238 26 237 20 236 18 c 2
 233 7 l 2
 230 -4 229 -5 220 -5 c 0
 213 -5 213 -5 117 0 c 1
 70 -2 l 2
 52 -4 16 -5 4 -5 c 0
 -3 -5 -5 -4 -5 2 c 0
 -5 5 -5 7 -4 9 c 2
 -1 22 l 2
 0 30 1 31 5 33 c 2
 10 34 l 1
 34 35 l 2
 69 40 78 52 98 123 c 2
 242 600 l 1
 215 641 189 654 130 655 c 0
 121 655 117 657 117 662 c 0
 117 664 117 664 118 671 c 2
 120 680 l 2
 122 692 124 694 134 694 c 0
 143 694 161 693 177 692 c 0
 198 690 212 689 223 689 c 0
 230 689 258 690 296 693 c 2
 327 694 l 1
 615 160 l 1
 716 517 l 2
 728 558 737 603 737 619 c 0
 737 644 719 656 682 655 c 0
 662 655 658 656 658 664 c 2
 659 673 l 1
 661 681 l 2
 663 691 665 694 673 694 c 2
 702 693 l 2
 728 691 767 689 779 689 c 0
 789 689 837 691 854 693 c 2
 878 694 l 2
 887 694 889 691 889 682 c 2
 888 669 l 2
 888 659 886 657 879 656 c 0
 820 650 804 633 781 548 c 2
 648 93 l 1
 693 6 l 2
 695 3 695 3 695 2 c 0
 695 -2 690 -5 683 -5 c 2
 570 -5 l 1
EndSplineSet
Validated: 33
EndChar

StartChar: Odieresis
Encoding: 214 214 166
Width: 830
Flags: W
HStem: -20 44<334 429.5 334 516> 667 44<456 551.5> 758 132<440.5 470.5 631.5 662.5>
VStem: 75 131<204.5 338.5 199 421> 399 113<806.5 843> 590 114<806.5 843> 682 131<364 487.5 270.5 500>
LayerCount: 2
Fore
SplineSet
492 711 m 0xfa
 687 711 813 585 813 390 c 0
 813 151 638 -20 394 -20 c 0
 195 -20 75 103 75 306 c 0
 75 536 256 711 492 711 c 0xfa
490 667 m 0
 422 667 364 640 317 587 c 0
 248 511 206 395 206 282 c 0
 206 116 273 24 395 24 c 0
 464 24 529 55 575 110 c 0
 642 190 682 306 682 422 c 0
 682 578 613 667 490 667 c 0
457 890 m 0
 489 890 512 863 512 826 c 0
 512 787 487 758 454 758 c 0
 422 758 399 786 399 824 c 0
 399 862 424 890 457 890 c 0
648 890 m 0
 681 890 704 863 704 826 c 0
 704 787 679 758 646 758 c 0
 613 758 590 786 590 824 c 0xfc
 590 862 615 890 648 890 c 0
EndSplineSet
Validated: 1
EndChar

StartChar: Oacute
Encoding: 211 211 167
Width: 830
Flags: MW
HStem: -20 44<334 429.5 334 516> 667 44<456 551.5>
VStem: 75 131<204.5 338.5 199 421> 682 131<364 487.5 270.5 500>
LayerCount: 2
Fore
SplineSet
492 711 m 0
 687 711 813 585 813 390 c 0
 813 151 638 -20 394 -20 c 0
 195 -20 75 103 75 306 c 0
 75 536 256 711 492 711 c 0
490 667 m 0
 422 667 364 640 317 587 c 0
 248 511 206 395 206 282 c 0
 206 116 273 24 395 24 c 0
 464 24 529 55 575 110 c 0
 642 190 682 306 682 422 c 0
 682 578 613 667 490 667 c 0
481 799 m 2
 574 902 l 2
 600 932 620 943 646 943 c 0
 674 943 694 927 694 904 c 0
 694 884 666 857 611 824 c 2
 513 766 l 2
 499 758 499 758 495 758 c 0
 493 758 490 760 488 763 c 2
 475 780 l 2
 474 782 473 784 473 786 c 0
 473 790 475 792 481 799 c 2
EndSplineSet
Validated: 1
EndChar

StartChar: Ograve
Encoding: 210 210 168
Width: 830
Flags: MW
HStem: -20 44<334 429.5 334 516> 667 44<456 551.5>
VStem: 75 131<204.5 338.5 199 421> 682 131<364 487.5 270.5 500>
LayerCount: 2
Fore
SplineSet
492 711 m 0
 687 711 813 585 813 390 c 0
 813 151 638 -20 394 -20 c 0
 195 -20 75 103 75 306 c 0
 75 536 256 711 492 711 c 0
490 667 m 0
 422 667 364 640 317 587 c 0
 248 511 206 395 206 282 c 0
 206 116 273 24 395 24 c 0
 464 24 529 55 575 110 c 0
 642 190 682 306 682 422 c 0
 682 578 613 667 490 667 c 0
592 766 m 2
 494 824 l 2
 439 857 411 884 411 904 c 0
 411 927 430 943 459 943 c 0
 485 943 505 932 531 902 c 2
 624 799 l 2
 630 792 632 789 632 786 c 0
 632 785 631 782 630 780 c 2
 617 763 l 2
 615 760 612 758 609 758 c 0
 606 758 606 758 592 766 c 2
EndSplineSet
Validated: 1
EndChar

StartChar: Ocircumflex
Encoding: 212 212 169
Width: 830
Flags: MW
HStem: -20 44<334 429.5 334 516> 667 44<456 551.5>
VStem: 75 131<204.5 338.5 199 421> 682 131<364 487.5 270.5 500>
LayerCount: 2
Fore
SplineSet
492 711 m 0
 687 711 813 585 813 390 c 0
 813 151 638 -20 394 -20 c 0
 195 -20 75 103 75 306 c 0
 75 536 256 711 492 711 c 0
490 667 m 0
 422 667 364 640 317 587 c 0
 248 511 206 395 206 282 c 0
 206 116 273 24 395 24 c 0
 464 24 529 55 575 110 c 0
 642 190 682 306 682 422 c 0
 682 578 613 667 490 667 c 0
684 763 m 2
 618 815 l 2
 580 846 577 849 567 874 c 1
 553 856 548 851 521 831 c 2
 427 761 l 2
 425 759 423 758 421 758 c 0
 420 758 417 760 413 764 c 2
 398 780 l 2
 394 784 392 787 392 788 c 0
 392 791 392 791 429 827 c 0
 442 841 453 853 463 865 c 2
 512 924 l 2
 529 946 549 956 573 956 c 0
 601 956 618 945 635 917 c 2
 677 852 l 2
 691 831 691 830 721 794 c 0
 724 791 725 789 725 787 c 0
 725 786 724 784 720 779 c 2
 704 760 l 2
 702 758 699 756 697 756 c 0
 694 756 691 757 684 763 c 2
EndSplineSet
Validated: 1
EndChar

StartChar: Otilde
Encoding: 213 213 170
Width: 830
Flags: W
HStem: -20 44<334 429.5 334 516> 667 44<456 551.5> 758 82<610 652> 839 82<509 513.5>
VStem: 75 131<204.5 338.5 199 421> 682 131<364 487.5 270.5 500>
LayerCount: 2
Fore
SplineSet
492 711 m 0xcc
 687 711 813 585 813 390 c 0
 813 151 638 -20 394 -20 c 0
 195 -20 75 103 75 306 c 0
 75 536 256 711 492 711 c 0xcc
490 667 m 0
 422 667 364 640 317 587 c 0
 248 511 206 395 206 282 c 0
 206 116 273 24 395 24 c 0
 464 24 529 55 575 110 c 0
 642 190 682 306 682 422 c 0
 682 578 613 667 490 667 c 0
396 767 m 2
 384 778 l 2
 382 780 380 782 380 784 c 0
 380 788 392 808 406 828 c 0
 449 887 492 921 526 921 c 0xdc
 540 921 555 914 571 900 c 0
 575 897 575 897 609 859 c 0
 620 847 632 840 642 840 c 0
 662 840 674 849 712 892 c 0
 728 909 733 914 737 914 c 0
 739 914 741 913 743 912 c 2
 751 906 l 2
 759 900 760 899 760 896 c 0
 760 888 735 847 716 823 c 0
 683 782 647 758 619 758 c 0xec
 601 758 588 767 557 801 c 0
 527 834 520 839 507 839 c 0xdc
 485 839 453 818 429 786 c 0
 411 764 410 763 405 763 c 0
 402 763 401 763 396 767 c 2
EndSplineSet
Validated: 1
EndChar

StartChar: Scaron
Encoding: 352 352 171
Width: 498
Flags: W
HStem: -20 44<192.5 243 174.5 288> 667 44<322.5 385.5>
VStem: 21 72<33.5 117> 57 42 130 109<527 532> 333 115<113.5 161.5> 449 43 457 70<578 652>
LayerCount: 2
Fore
SplineSet
479 530 m 2xce
 460 535 l 2
 452 538 449 540 449 544 c 2xce
 450 550 l 2
 455 563 457 573 457 583 c 0
 457 632 415 667 356 667 c 0
 288 667 239 620 239 554 c 0
 239 500 260 462 332 388 c 0
 422 294 448 246 448 171 c 0
 448 56 357 -20 219 -20 c 0
 166 -20 93 -5 43 16 c 0
 27 23 21 29 21 38 c 0xed
 21 43 22 45 27 59 c 0
 29 67 31 74 33 80 c 2
 48 126 l 2
 50 134 55 155 57 165 c 0
 58 170 60 172 64 172 c 0
 66 172 66 172 72 171 c 2
 88 169 l 2
 98 167 100 166 100 162 c 2
 99 153 l 2xdc
 95 136 93 122 93 112 c 0
 93 62 142 24 207 24 c 0
 279 24 333 72 333 134 c 0
 333 189 310 228 227 317 c 0
 153 395 130 439 130 505 c 0
 130 559 152 611 191 650 c 0
 233 691 287 711 358 711 c 0
 416 711 472 695 511 666 c 0
 522 659 527 654 527 650 c 0xed
 527 647 525 641 520 629 c 0
 505 589 495 555 492 534 c 0
 491 529 490 528 487 528 c 0
 486 528 484 528 479 530 c 2xce
305 928 m 2
 370 878 l 2
 408 848 411 845 422 820 c 1
 436 838 440 842 468 863 c 2
 561 931 l 2
 564 933 566 934 567 934 c 0
 569 934 571 932 575 928 c 2
 591 912 l 2
 594 908 596 905 596 903 c 0
 596 901 596 901 559 866 c 0
 550 858 543 850 536 841 c 0
 529 833 532 837 525 828 c 2
 475 767 l 2
 459 747 441 738 418 738 c 0
 388 738 372 748 353 777 c 2
 312 841 l 2
 305 852 299 858 271 894 c 0
 265 902 264 903 264 905 c 0
 264 906 266 910 268 913 c 2
 284 932 l 2
 287 935 289 936 291 936 c 0
 294 936 296 935 305 928 c 2
EndSplineSet
Validated: 1
EndChar

StartChar: Udieresis
Encoding: 220 220 172
Width: 812
Flags: MW
HStem: -21 50<351.5 435.5> 654 40<671 677.5> 758 132<430.5 461.5 621.5 652.5>
VStem: 114 123<123.5 180> 389 114<806.5 843> 580 114<806.5 843>
LayerCount: 2
Fore
SplineSet
332 556 m 2
 266 328 l 2
 246 257 237 208 237 166 c 0
 237 81 300 29 403 29 c 0
 540 29 610 100 659 289 c 2
 712 494 l 2
 736 601 736 601 736 618 c 0
 736 641 716 654 680 654 c 0
 659 654 657 655 657 659 c 0
 657 661 658 664 659 668 c 2
 663 683 l 2
 665 692 667 694 675 694 c 0
 680 694 695 693 709 692 c 0
 734 691 771 689 781 689 c 2
 856 692 l 2
 869 693 879 694 885 694 c 0
 891 694 895 691 895 686 c 0
 895 685 895 681 894 677 c 2
 893 672 l 2
 890 657 888 655 878 654 c 0
 827 654 808 634 789 562 c 2
 711 270 l 2
 680 154 647 87 600 45 c 0
 553 1 482 -21 389 -21 c 0
 220 -21 114 49 114 162 c 0
 114 198 129 267 165 394 c 2
 212 556 l 2
 223 594 225 604 225 617 c 0
 225 641 210 652 170 654 c 0
 148 655 146 655 146 661 c 0
 146 663 147 665 149 671 c 2
 154 681 l 2
 159 692 161 694 170 694 c 0
 176 694 183 694 191 693 c 0
 222 691 289 689 315 689 c 0
 345 689 354 689 420 693 c 0
 429 694 439 694 447 694 c 0
 453 694 456 692 456 689 c 0
 456 688 455 685 454 681 c 2
 451 669 l 2
 449 663 447 659 445 658 c 0
 443 656 438 655 420 655 c 0
 367 651 355 638 332 556 c 2
447 890 m 0
 480 890 503 863 503 826 c 0
 503 787 478 758 445 758 c 0
 412 758 389 786 389 824 c 0
 389 862 414 890 447 890 c 0
638 890 m 0
 671 890 694 863 694 826 c 0
 694 787 669 758 636 758 c 0
 603 758 580 785 580 824 c 0
 580 862 605 890 638 890 c 0
EndSplineSet
Validated: 1
EndChar

StartChar: Uacute
Encoding: 218 218 173
Width: 812
Flags: MW
HStem: -21 50<351.5 435.5> 654 40<671 677.5>
VStem: 114 123<123.5 180>
LayerCount: 2
Fore
SplineSet
332 556 m 2
 266 328 l 2
 246 257 237 208 237 166 c 0
 237 81 300 29 403 29 c 0
 540 29 610 100 659 289 c 2
 712 494 l 2
 736 601 736 601 736 618 c 0
 736 641 716 654 680 654 c 0
 659 654 657 655 657 659 c 0
 657 661 658 664 659 668 c 2
 663 683 l 2
 665 692 667 694 675 694 c 0
 680 694 695 693 709 692 c 0
 734 691 771 689 781 689 c 2
 856 692 l 2
 869 693 879 694 885 694 c 0
 891 694 895 691 895 686 c 0
 895 685 895 681 894 677 c 2
 893 672 l 2
 890 657 888 655 878 654 c 0
 827 654 808 634 789 562 c 2
 711 270 l 2
 680 154 647 87 600 45 c 0
 553 1 482 -21 389 -21 c 0
 220 -21 114 49 114 162 c 0
 114 198 129 267 165 394 c 2
 212 556 l 2
 223 594 225 604 225 617 c 0
 225 641 210 652 170 654 c 0
 148 655 146 655 146 661 c 0
 146 663 147 665 149 671 c 2
 154 681 l 2
 159 692 161 694 170 694 c 0
 176 694 183 694 191 693 c 0
 222 691 289 689 315 689 c 0
 345 689 354 689 420 693 c 0
 429 694 439 694 447 694 c 0
 453 694 456 692 456 689 c 0
 456 688 455 685 454 681 c 2
 451 669 l 2
 449 663 447 659 445 658 c 0
 443 656 438 655 420 655 c 0
 367 651 355 638 332 556 c 2
471 799 m 2
 564 902 l 2
 590 932 610 943 636 943 c 0
 665 943 684 927 684 904 c 0
 684 884 656 857 601 824 c 2
 503 766 l 2
 489 758 489 758 486 758 c 0
 483 758 480 760 478 763 c 2
 465 780 l 2
 464 782 463 784 463 787 c 0
 463 790 464 791 471 799 c 2
EndSplineSet
Validated: 1
EndChar

StartChar: Ugrave
Encoding: 217 217 174
Width: 812
Flags: MW
HStem: -21 50<351.5 435.5> 654 40<671 677.5>
VStem: 114 123<123.5 180>
LayerCount: 2
Fore
SplineSet
332 556 m 2
 266 328 l 2
 246 257 237 208 237 166 c 0
 237 81 300 29 403 29 c 0
 540 29 610 100 659 289 c 2
 712 494 l 2
 736 601 736 601 736 618 c 0
 736 641 716 654 680 654 c 0
 659 654 657 655 657 659 c 0
 657 661 658 664 659 668 c 2
 663 683 l 2
 665 692 667 694 675 694 c 0
 680 694 695 693 709 692 c 0
 734 691 771 689 781 689 c 2
 856 692 l 2
 869 693 879 694 885 694 c 0
 891 694 895 691 895 686 c 0
 895 685 895 681 894 677 c 2
 893 672 l 2
 890 657 888 655 878 654 c 0
 827 654 808 634 789 562 c 2
 711 270 l 2
 680 154 647 87 600 45 c 0
 553 1 482 -21 389 -21 c 0
 220 -21 114 49 114 162 c 0
 114 198 129 267 165 394 c 2
 212 556 l 2
 223 594 225 604 225 617 c 0
 225 641 210 652 170 654 c 0
 148 655 146 655 146 661 c 0
 146 663 147 665 149 671 c 2
 154 681 l 2
 159 692 161 694 170 694 c 0
 176 694 183 694 191 693 c 0
 222 691 289 689 315 689 c 0
 345 689 354 689 420 693 c 0
 429 694 439 694 447 694 c 0
 453 694 456 692 456 689 c 0
 456 688 455 685 454 681 c 2
 451 669 l 2
 449 663 447 659 445 658 c 0
 443 656 438 655 420 655 c 0
 367 651 355 638 332 556 c 2
582 766 m 2
 484 824 l 2
 429 857 401 884 401 904 c 0
 401 927 421 943 449 943 c 0
 475 943 495 932 522 902 c 2
 615 799 l 2
 623 790 623 789 623 787 c 0
 623 785 622 783 620 780 c 2
 607 763 l 2
 605 760 602 758 600 758 c 0
 597 758 596 758 582 766 c 2
EndSplineSet
Validated: 1
EndChar

StartChar: Ucircumflex
Encoding: 219 219 175
Width: 812
Flags: MW
HStem: -21 50<351.5 435.5> 654 40<671 677.5>
VStem: 114 123<123.5 180>
LayerCount: 2
Fore
SplineSet
332 556 m 2
 266 328 l 2
 246 257 237 208 237 166 c 0
 237 81 300 29 403 29 c 0
 540 29 610 100 659 289 c 2
 712 494 l 2
 736 601 736 601 736 618 c 0
 736 641 716 654 680 654 c 0
 659 654 657 655 657 659 c 0
 657 661 658 664 659 668 c 2
 663 683 l 2
 665 692 667 694 675 694 c 0
 680 694 695 693 709 692 c 0
 734 691 771 689 781 689 c 2
 856 692 l 2
 869 693 879 694 885 694 c 0
 891 694 895 691 895 686 c 0
 895 685 895 681 894 677 c 2
 893 672 l 2
 890 657 888 655 878 654 c 0
 827 654 808 634 789 562 c 2
 711 270 l 2
 680 154 647 87 600 45 c 0
 553 1 482 -21 389 -21 c 0
 220 -21 114 49 114 162 c 0
 114 198 129 267 165 394 c 2
 212 556 l 2
 223 594 225 604 225 617 c 0
 225 641 210 652 170 654 c 0
 148 655 146 655 146 661 c 0
 146 663 147 665 149 671 c 2
 154 681 l 2
 159 692 161 694 170 694 c 0
 176 694 183 694 191 693 c 0
 222 691 289 689 315 689 c 0
 345 689 354 689 420 693 c 0
 429 694 439 694 447 694 c 0
 453 694 456 692 456 689 c 0
 456 688 455 685 454 681 c 2
 451 669 l 2
 449 663 447 659 445 658 c 0
 443 656 438 655 420 655 c 0
 367 651 355 638 332 556 c 2
674 763 m 2
 608 815 l 2
 570 846 568 849 557 874 c 1
 543 856 538 851 511 831 c 2
 418 761 l 2
 415 759 413 758 412 758 c 0
 410 758 408 759 404 764 c 2
 388 780 l 2
 385 783 383 786 383 788 c 0
 383 791 383 791 420 827 c 0
 429 834 436 842 443 852 c 2
 454 865 l 1
 502 924 l 2
 520 946 540 956 564 956 c 0
 591 956 608 945 626 917 c 2
 667 852 l 2
 673 842 680 831 689 821 c 2
 711 794 l 2
 714 791 715 789 715 787 c 0
 715 786 713 783 710 779 c 2
 694 760 l 2
 692 758 690 756 687 756 c 0
 684 756 681 758 674 763 c 2
EndSplineSet
Validated: 1
EndChar

StartChar: Yacute
Encoding: 221 221 176
Width: 738
Flags: MW
HStem: -5 38<149.5 152 149.5 167.5> 654 40
LayerCount: 2
Fore
SplineSet
422 371 m 1
 596 556 l 2
 633 595 646 614 646 630 c 0
 646 646 629 654 596 655 c 0
 574 656 572 657 572 664 c 0
 572 666 572 666 574 671 c 2
 576 684 l 2
 577 692 579 694 587 694 c 2
 652 692 l 2
 676 690 694 689 696 689 c 0
 758 693 788 694 805 694 c 0
 811 694 813 693 813 689 c 2
 813 689 813 688 812 679 c 2
 810 665 l 2
 808 657 807 655 799 654 c 0
 755 644 726 625 683 576 c 2
 447 322 l 1
 395 132 l 2
 384 95 382 84 382 72 c 0
 382 46 396 39 450 34 c 0
 457 34 460 31 460 27 c 0
 460 26 459 23 458 19 c 2
 456 9 l 2
 454 -3 451 -5 442 -5 c 0
 437 -5 432 -5 425 -4 c 0
 393 -2 323 0 299 0 c 0
 277 0 252 -1 225 -3 c 0
 187 -5 184 -5 151 -5 c 0
 144 -5 142 -3 142 3 c 2
 142 8 l 1
 144 20 l 2
 145 31 147 33 152 33 c 2
 171 34 l 1
 196 36 l 2
 250 39 259 49 280 132 c 2
 323 307 l 1
 218 594 l 2
 202 641 192 651 158 653 c 0
 129 654 129 654 129 659 c 0
 129 661 130 664 131 670 c 2
 134 683 l 2
 137 692 139 694 149 694 c 2
 237 692 l 2
 265 690 285 689 289 689 c 0
 294 689 314 690 341 692 c 0
 362 693 400 695 412 695 c 0
 419 695 422 693 422 688 c 0
 422 686 422 683 421 679 c 2
 418 667 l 2
 415 654 414 654 387 654 c 0
 356 654 340 644 340 624 c 0
 340 618 340 618 356 563 c 2
 422 371 l 1
434 799 m 2
 527 902 l 2
 554 932 574 943 600 943 c 0
 628 943 648 927 648 904 c 0
 648 884 621 857 564 824 c 2
 466 766 l 2
 452 758 452 758 449 758 c 0
 446 758 443 760 441 763 c 2
 429 780 l 2
 427 782 426 785 426 786 c 0
 426 790 426 790 434 799 c 2
EndSplineSet
Validated: 1
EndChar

StartChar: Zcaron
Encoding: 381 381 177
Width: 664
Flags: MW
HStem: 0 48 651 45<246 661 318 517>
VStem: 118 40
LayerCount: 2
Fore
SplineSet
517 651 m 1
 280 651 l 2
 212 651 181 633 158 580 c 0
 155 573 153 571 147 571 c 0
 145 571 140 572 138 573 c 2
 126 578 l 2
 120 581 118 583 118 587 c 0
 118 589 118 590 120 594 c 2
 172 740 l 1
 204 740 l 1
 240 700 250 696 318 696 c 2
 661 696 l 2
 672 696 675 695 675 690 c 0
 675 687 671 680 664 670 c 2
 213 67 l 2
 204 57 204 57 204 54 c 0
 204 50 210 48 226 48 c 2
 398 49 l 2
 465 50 485 52 500 59 c 0
 510 65 520 73 528 82 c 0
 537 94 543 103 548 112 c 2
 566 141 l 2
 575 155 580 160 584 160 c 2
 591 159 l 1
 603 154 l 2
 610 152 614 148 614 143 c 0
 614 141 613 137 611 132 c 0
 596 95 581 45 572 9 c 0
 570 -3 567 -5 559 -5 c 2
 499 -4 l 2
 459 -2 331 0 301 0 c 2
 123 -3 l 2
 96 -4 74 -5 60 -5 c 0
 45 -5 38 0 38 9 c 0
 38 14 43 22 54 37 c 2
 517 651 l 1
388 928 m 2
 454 878 l 2
 492 848 494 845 505 820 c 1
 519 838 524 843 551 863 c 2
 644 931 l 2
 647 933 649 934 650 934 c 0
 652 934 654 932 658 928 c 2
 674 912 l 2
 677 908 679 905 679 904 c 0
 679 901 679 901 642 866 c 0
 629 855 618 842 608 828 c 2
 558 767 l 2
 542 747 524 738 501 738 c 0
 471 738 455 748 436 777 c 2
 395 841 l 2
 388 851 383 858 354 894 c 0
 347 902 347 903 347 905 c 0
 347 906 349 909 352 913 c 2
 368 932 l 2
 370 935 372 936 375 936 c 0
 378 936 379 935 388 928 c 2
EndSplineSet
Validated: 1
EndChar

StartChar: Thorn
Encoding: 222 222 178
Width: 627
Flags: W
HStem: -6 38<11 28 292 301.5> 146 47<372.5 392.5 349.5 450> 501 50<341 413.5> 654 28 669 20G<361 367 367 369.5>
VStem: 493 122<328 403 305.5 416.5>
LayerCount: 2
Fore
SplineSet
374 677 m 1xec
 341 551 l 1
 430 548 462 544 506 528 c 0
 572 504 615 440 615 366 c 0
 615 245 513 146 387 146 c 0
 358 146 321 152 294 161 c 0
 289 163 287 164 287 169 c 2
 287 173 l 1
 292 189 l 2
 294 195 297 197 302 197 c 0
 304 197 310 196 325 195 c 0
 335 194 345 193 354 193 c 0
 431 193 493 276 493 380 c 0
 493 453 448 501 379 501 c 0
 339 501 322 486 310 442 c 2
 232 153 l 2
 216 81 216 81 216 71 c 0
 216 42 239 32 306 32 c 0
 315 32 319 29 318 24 c 2
 318 23 l 1
 313 5 l 2
 312 -3 307 -6 296 -6 c 0
 288 -6 245 -4 221 -3 c 0
 191 -1 168 0 157 0 c 0
 146 0 122 -1 90 -3 c 0
 65 -4 24 -6 15 -6 c 0
 7 -6 2 -4 2 1 c 2
 3 8 l 1
 8 23 l 2
 11 30 15 32 28 32 c 0
 85 35 92 47 127 179 c 2
 212 487 l 2
 227 546 227 546 233 572 c 0
 239 594 240 599 240 613 c 0
 240 646 227 655 177 654 c 0
 157 654 157 654 157 658 c 2
 157 662 l 1
 160 673 l 2
 162 679 163 681 166 682 c 0xf4
 168 683 172 684 196 684 c 2
 231 685 l 1
 309 688 l 1
 331 688 l 1
 361 689 l 1
 367 689 l 2
 372 689 375 687 375 684 c 2
 374 677 l 1xec
EndSplineSet
Validated: 33
EndChar

StartChar: Ydieresis
Encoding: 376 376 179
Width: 738
Flags: MW
HStem: -5 38<149.5 152 149.5 167.5> 654 40 758 132<393.5 424.5 584.5 615.5>
VStem: 352 114<806.5 843> 543 114<806.5 843>
LayerCount: 2
Fore
SplineSet
422 371 m 1
 596 556 l 2
 633 595 646 614 646 630 c 0
 646 646 629 654 596 655 c 0
 574 656 572 657 572 664 c 0
 572 666 572 666 574 671 c 2
 576 684 l 2
 577 692 579 694 587 694 c 2
 652 692 l 2
 676 690 694 689 696 689 c 0
 758 693 788 694 805 694 c 0
 811 694 813 693 813 689 c 2
 813 689 813 688 812 679 c 2
 810 665 l 2
 808 657 807 655 799 654 c 0
 755 644 726 625 683 576 c 2
 447 322 l 1
 395 132 l 2
 384 95 382 84 382 72 c 0
 382 46 396 39 450 34 c 0
 457 34 460 31 460 27 c 0
 460 26 459 23 458 19 c 2
 456 9 l 2
 454 -3 451 -5 442 -5 c 0
 437 -5 432 -5 425 -4 c 0
 393 -2 323 0 299 0 c 0
 277 0 252 -1 225 -3 c 0
 187 -5 184 -5 151 -5 c 0
 144 -5 142 -3 142 3 c 2
 142 8 l 1
 144 20 l 2
 145 31 147 33 152 33 c 2
 171 34 l 1
 196 36 l 2
 250 39 259 49 280 132 c 2
 323 307 l 1
 218 594 l 2
 202 641 192 651 158 653 c 0
 129 654 129 654 129 659 c 0
 129 661 130 664 131 670 c 2
 134 683 l 2
 137 692 139 694 149 694 c 2
 237 692 l 2
 265 690 285 689 289 689 c 0
 294 689 314 690 341 692 c 0
 362 693 400 695 412 695 c 0
 419 695 422 693 422 688 c 0
 422 686 422 683 421 679 c 2
 418 667 l 2
 415 654 414 654 387 654 c 0
 356 654 340 644 340 624 c 0
 340 618 340 618 356 563 c 2
 422 371 l 1
410 890 m 0
 443 890 466 863 466 826 c 0
 466 787 441 758 408 758 c 0
 375 758 352 786 352 824 c 0
 352 862 377 890 410 890 c 0
601 890 m 0
 634 890 657 863 657 826 c 0
 657 787 632 758 599 758 c 0
 566 758 543 786 543 824 c 0
 543 862 568 890 601 890 c 0
EndSplineSet
Validated: 1
EndChar

StartChar: adieresis
Encoding: 228 228 180
Width: 516
Flags: W
HStem: -19 89<73 179.5> 363 64 553 132<232.5 263 423 453.5>
VStem: 28 102<101 139.5> 190 114<600.5 637> 282 100<16 113.5> 381 113<600.5 637>
LayerCount: 2
Fore
SplineSet
471 146 m 1xf4
 494 126 l 1xf2
 430 30 376 -19 333 -19 c 0
 303 -19 282 1 282 31 c 0
 282 58 282 58 318 166 c 0
 321 174 324 184 326 193 c 1
 285 134 274 118 249 87 c 0
 198 22 138 -19 93 -19 c 0
 53 -19 28 13 28 63 c 0
 28 216 228 427 373 427 c 0
 383 427 393 426 415 422 c 1
 445 464 448 466 473 466 c 0
 496 466 509 462 509 456 c 0
 509 454 508 448 506 445 c 2
 440 281 l 2
 401 183 382 125 382 102 c 0
 382 87 390 76 400 76 c 0
 414 76 424 85 471 146 c 1xf4
330 363 m 0
 295 365 242 331 198 280 c 0
 157 230 130 167 130 117 c 0
 130 85 141 70 163 70 c 0
 196 70 227 100 284 187 c 0
 331 256 366 321 366 337 c 0
 366 352 352 362 330 363 c 0
249 685 m 0
 281 685 304 658 304 620 c 0
 304 581 280 553 246 553 c 0
 213 553 190 580 190 618 c 0xf8
 190 656 216 685 249 685 c 0
439 685 m 0
 471 685 494 658 494 620 c 0
 494 581 470 553 437 553 c 0
 404 553 381 580 381 618 c 0xf2
 381 656 407 685 439 685 c 0
EndSplineSet
Validated: 33
Substitution2: "'smcp' Lowercase to Small Capitals lookup 4-1" adieresis.smcp
EndChar

StartChar: aacute
Encoding: 225 225 181
Width: 516
Flags: MW
HStem: -19 89<73 179.5> 363 64
VStem: 28 102<101 139.5> 282 100<16 113.5>
LayerCount: 2
Fore
SplineSet
471 146 m 1
 494 126 l 1
 430 30 376 -19 333 -19 c 0
 303 -19 282 1 282 31 c 0
 282 58 282 58 318 166 c 0
 321 174 324 184 326 193 c 1
 285 134 274 118 249 87 c 0
 198 22 138 -19 93 -19 c 0
 53 -19 28 13 28 63 c 0
 28 216 228 427 373 427 c 0
 383 427 393 426 415 422 c 1
 445 464 448 466 473 466 c 0
 496 466 509 462 509 456 c 0
 509 454 508 448 506 445 c 2
 440 281 l 2
 401 183 382 125 382 102 c 0
 382 87 390 76 400 76 c 0
 414 76 424 85 471 146 c 1
330 363 m 0
 295 365 242 331 198 280 c 0
 157 230 130 167 130 117 c 0
 130 85 141 70 163 70 c 0
 196 70 227 100 284 187 c 0
 331 256 366 321 366 337 c 0
 366 352 352 362 330 363 c 0
304 524 m 2
 291 536 l 2
 289 537 288 539 288 541 c 0
 288 542 288 543 298 557 c 0
 342 618 343 620 387 694 c 0
 410 733 430 747 460 747 c 0
 487 747 508 732 508 711 c 0
 508 693 492 671 458 643 c 0
 406 599 361 559 328 526 c 0
 322 521 319 519 315 519 c 0
 312 519 307 521 304 524 c 2
EndSplineSet
Validated: 33
Substitution2: "'smcp' Lowercase to Small Capitals lookup 4-1" aacute.smcp
EndChar

StartChar: agrave
Encoding: 224 224 182
Width: 516
Flags: MW
HStem: -19 89<73 179.5> 363 64
VStem: 28 102<101 139.5> 282 100<16 113.5>
LayerCount: 2
Fore
SplineSet
471 146 m 1
 494 126 l 1
 430 30 376 -19 333 -19 c 0
 303 -19 282 1 282 31 c 0
 282 58 282 58 318 166 c 0
 321 174 324 184 326 193 c 1
 285 134 274 118 249 87 c 0
 198 22 138 -19 93 -19 c 0
 53 -19 28 13 28 63 c 0
 28 216 228 427 373 427 c 0
 383 427 393 426 415 422 c 1
 445 464 448 466 473 466 c 0
 496 466 509 462 509 456 c 0
 509 454 508 448 506 445 c 2
 440 281 l 2
 401 183 382 125 382 102 c 0
 382 87 390 76 400 76 c 0
 414 76 424 85 471 146 c 1
330 363 m 0
 295 365 242 331 198 280 c 0
 157 230 130 167 130 117 c 0
 130 85 141 70 163 70 c 0
 196 70 227 100 284 187 c 0
 331 256 366 321 366 337 c 0
 366 352 352 362 330 363 c 0
389 536 m 2
 376 524 l 2
 373 521 368 519 364 519 c 0
 361 519 358 521 352 526 c 0
 321 556 266 606 222 643 c 0
 187 671 172 693 172 712 c 0
 172 732 193 747 220 747 c 0
 250 747 270 733 293 694 c 0
 307 668 323 642 339 618 c 0
 353 598 367 577 382 557 c 0
 384 553 387 549 390 545 c 0
 392 543 392 541 392 540 c 0
 392 539 391 537 389 536 c 2
EndSplineSet
Validated: 33
Substitution2: "'smcp' Lowercase to Small Capitals lookup 4-1" agrave.smcp
EndChar

StartChar: acircumflex
Encoding: 226 226 183
Width: 516
Flags: MW
HStem: -19 89<73 179.5> 363 64
VStem: 28 102<101 139.5> 282 100<16 113.5> 424 33<530 536>
LayerCount: 2
Fore
SplineSet
471 146 m 1
 494 126 l 1
 430 30 376 -19 333 -19 c 0
 303 -19 282 1 282 31 c 0
 282 58 282 58 318 166 c 0
 321 174 324 184 326 193 c 1
 285 134 274 118 249 87 c 0
 198 22 138 -19 93 -19 c 0
 53 -19 28 13 28 63 c 0
 28 216 228 427 373 427 c 0
 383 427 393 426 415 422 c 1
 445 464 448 466 473 466 c 0
 496 466 509 462 509 456 c 0
 509 454 508 448 506 445 c 2
 440 281 l 2
 401 183 382 125 382 102 c 0
 382 87 390 76 400 76 c 0
 414 76 424 85 471 146 c 1
330 363 m 0
 295 365 242 331 198 280 c 0
 157 230 130 167 130 117 c 0
 130 85 141 70 163 70 c 0
 196 70 227 100 284 187 c 0
 331 256 366 321 366 337 c 0
 366 352 352 362 330 363 c 0
424 530 m 2
 392 593 l 2
 373 632 371 636 366 654 c 0
 366 656 363 668 360 684 c 1
 339 658 325 641 314 629 c 2
 233 550 l 1
 211 528 l 2
 205 521 202 519 199 519 c 0
 197 519 195 520 193 521 c 2
 181 531 l 2
 179 533 178 535 178 537 c 0
 178 539 179 542 181 545 c 2
 186 552 l 1
 287 712 l 2
 320 764 338 779 367 779 c 0
 405 779 428 749 436 687 c 2
 457 538 l 1
 457 536 l 2
 457 532 455 529 451 527 c 2
 441 521 l 2
 438 520 436 519 434 519 c 0
 431 519 427 523 424 530 c 2
EndSplineSet
Validated: 33
Substitution2: "'smcp' Lowercase to Small Capitals lookup 4-1" acircumflex.smcp
EndChar

StartChar: atilde
Encoding: 227 227 184
Width: 516
Flags: W
HStem: -19 89<73 179.5> 363 64 534 84<381.5 382.5> 616 84<269.5 274> 673 20G<455.5 458.5>
VStem: 28 102<101 139.5> 282 100<16 113.5>
LayerCount: 2
Fore
SplineSet
471 146 m 1xc6
 494 126 l 1
 430 30 376 -19 333 -19 c 0
 303 -19 282 1 282 31 c 0
 282 58 282 58 318 166 c 0
 321 174 324 184 326 193 c 1
 285 134 274 118 249 87 c 0
 198 22 138 -19 93 -19 c 0
 53 -19 28 13 28 63 c 0
 28 216 228 427 373 427 c 0
 383 427 393 426 415 422 c 1
 445 464 448 466 473 466 c 0
 496 466 509 462 509 456 c 0
 509 454 508 448 506 445 c 2
 440 281 l 2
 401 183 382 125 382 102 c 0
 382 87 390 76 400 76 c 0
 414 76 424 85 471 146 c 1xc6
330 363 m 0
 295 365 242 331 198 280 c 0
 157 230 130 167 130 117 c 0
 130 85 141 70 163 70 c 0
 196 70 227 100 284 187 c 0
 331 256 366 321 366 337 c 0
 366 352 352 362 330 363 c 0
196 544 m 1
 181 550 l 2
 179 551 177 554 177 558 c 0
 177 570 192 610 209 641 c 0
 228 677 257 700 282 700 c 0xd6
 307 700 325 685 356 642 c 0
 367 625 377 618 386 618 c 0
 405 618 420 634 447 684 c 0
 451 690 454 693 457 693 c 0
 460 693 463 692 465 691 c 2
 477 686 l 2
 480 685 481 683 481 679 c 0
 481 666 463 622 446 593 c 0
 424 557 395 534 370 534 c 0xee
 347 534 329 548 306 586 c 0
 292 608 281 616 267 616 c 0xd6
 249 616 231 598 219 568 c 0
 210 548 208 545 196 544 c 1
EndSplineSet
Validated: 33
Substitution2: "'smcp' Lowercase to Small Capitals lookup 4-1" atilde.smcp
EndChar

StartChar: aring
Encoding: 229 229 185
Width: 516
Flags: W
HStem: -19 89<69 175.5> 363 64 507 47<399 431 399 444> 669 47<400 431.5>
VStem: 24 102<101 139.5> 278 100<16 113.5> 311 47<596 627.5 596 641> 473 47<595.5 627.5>
LayerCount: 2
Fore
SplineSet
467 146 m 1xfd
 490 126 l 1
 426 30 372 -19 329 -19 c 0
 299 -19 278 1 278 31 c 0
 278 58 278 58 314 166 c 0
 317 174 320 184 322 193 c 1
 281 134 270 118 245 87 c 0
 194 22 134 -19 89 -19 c 0
 49 -19 24 13 24 63 c 0
 24 216 224 427 369 427 c 0
 379 427 389 426 411 422 c 1
 441 464 444 466 469 466 c 0
 492 466 505 462 505 456 c 0
 505 454 504 448 502 445 c 2
 436 281 l 2
 397 183 378 125 378 102 c 0
 378 87 386 76 396 76 c 0
 410 76 420 85 467 146 c 1xfd
326 363 m 0
 291 365 238 331 194 280 c 0
 153 230 126 167 126 117 c 0
 126 85 137 70 159 70 c 0
 192 70 223 100 280 187 c 0
 327 256 362 321 362 337 c 0
 362 352 348 362 326 363 c 0
415 716 m 0
 473 716 520 669 520 612 c 0
 520 553 473 507 415 507 c 0
 357 507 311 554 311 613 c 0xfb
 311 669 359 716 415 716 c 0
416 669 m 0
 384 669 358 643 358 612 c 0
 358 580 383 554 415 554 c 0
 447 554 473 579 473 612 c 0
 473 643 447 669 416 669 c 0
EndSplineSet
Validated: 33
Substitution2: "'smcp' Lowercase to Small Capitals lookup 4-1" aring.smcp
EndChar

StartChar: ccedilla
Encoding: 231 231 186
Width: 424
Flags: MW
HStem: -182 38<150.5 168.5 150.5 168.5> 412 39<256.5 299>
VStem: 34 108<126.5 223 126.5 223.5> 201 63<-118 -98> 328 109<344 375>
LayerCount: 2
Fore
SplineSet
196 -18 m 1
 187 -32 l 1
 236 -35 264 -58 264 -93 c 0
 264 -143 206 -182 131 -182 c 0
 95 -182 76 -171 76 -152 c 0
 76 -138 87 -126 100 -126 c 0
 107 -126 107 -126 129 -138 c 0
 135 -142 145 -144 156 -144 c 0
 181 -144 201 -128 201 -108 c 0
 201 -88 184 -77 151 -77 c 0
 146 -77 142 -77 139 -78 c 2
 126 -79 l 2
 119 -79 111 -76 111 -73 c 0
 111 -70 114 -67 123 -56 c 2
 157 -18 l 1
 78 -6 34 51 34 142 c 0
 34 305 165 451 310 451 c 0
 385 451 437 414 437 361 c 0
 437 327 414 304 380 304 c 0
 344 304 328 322 328 364 c 0
 328 386 327 393 323 399 c 0
 318 406 305 412 293 412 c 0
 220 412 142 284 142 162 c 0
 142 91 173 52 229 52 c 0
 271 52 300 66 348 112 c 1
 371 94 l 1
 319 21 266 -13 196 -18 c 1
EndSplineSet
Validated: 1
Substitution2: "'smcp' Lowercase to Small Capitals lookup 4-1" ccedilla.smcp
EndChar

StartChar: edieresis
Encoding: 235 235 187
Width: 424
Flags: W
HStem: -19 64<199.5 219> 412 39<276.5 302.5> 553 132<194.5 225 384.5 415>
VStem: 33 109<115.5 154 115.5 175> 152 114<600.5 637> 336 91<341 366> 342 114<600.5 637>
LayerCount: 2
Fore
SplineSet
342 104 m 1xfa
 363 86 l 1
 303 8 257 -19 181 -19 c 0
 88 -19 33 37 33 132 c 0
 33 218 70 306 134 372 c 0
 185 425 243 451 310 451 c 0
 381 451 427 415 427 359 c 0xfc
 427 310 392 266 328 236 c 0
 287 217 226 204 148 197 c 1
 143 173 142 162 142 146 c 0
 142 85 175 45 224 45 c 0
 263 45 298 62 342 104 c 1xfa
153 237 m 1
 187 239 213 244 236 252 c 0
 293 273 336 320 336 362 c 0
 336 370 333 380 325 396 c 0
 319 406 309 412 296 412 c 0
 249 412 192 343 153 237 c 1
211 685 m 0
 243 685 266 658 266 620 c 0
 266 581 242 553 208 553 c 0
 175 553 152 580 152 618 c 0
 152 656 178 685 211 685 c 0
401 685 m 0
 433 685 456 658 456 620 c 0
 456 581 432 553 398 553 c 0
 365 553 342 580 342 618 c 0xfa
 342 656 368 685 401 685 c 0
EndSplineSet
Validated: 1
Substitution2: "'smcp' Lowercase to Small Capitals lookup 4-1" edieresis.smcp
EndChar

StartChar: eacute
Encoding: 233 233 188
Width: 424
Flags: MW
HStem: -19 64<199.5 219> 412 39<276.5 302.5>
VStem: 33 109<115.5 154 115.5 175> 336 91<341 366>
LayerCount: 2
Fore
SplineSet
342 104 m 1
 363 86 l 1
 303 8 257 -19 181 -19 c 0
 88 -19 33 37 33 132 c 0
 33 218 70 306 134 372 c 0
 185 425 243 451 310 451 c 0
 381 451 427 415 427 359 c 0
 427 310 392 266 328 236 c 0
 287 217 226 204 148 197 c 1
 143 173 142 162 142 146 c 0
 142 85 175 45 224 45 c 0
 263 45 298 62 342 104 c 1
153 237 m 1
 187 239 213 244 236 252 c 0
 293 273 336 320 336 362 c 0
 336 370 333 380 325 396 c 0
 319 406 309 412 296 412 c 0
 249 412 192 343 153 237 c 1
258 524 m 2
 245 536 l 2
 243 537 242 539 242 541 c 0
 242 542 242 543 252 557 c 0
 296 619 299 623 341 694 c 0
 364 733 384 747 414 747 c 0
 441 747 462 732 462 712 c 0
 462 693 446 671 412 643 c 0
 360 599 316 560 282 526 c 0
 277 521 273 519 270 519 c 0
 266 519 262 521 258 524 c 2
EndSplineSet
Validated: 1
Substitution2: "'smcp' Lowercase to Small Capitals lookup 4-1" eacute.smcp
EndChar

StartChar: egrave
Encoding: 232 232 189
Width: 424
Flags: MW
HStem: -19 64<199.5 219> 412 39<276.5 302.5>
VStem: 33 109<115.5 154 115.5 175> 336 91<341 366>
LayerCount: 2
Fore
SplineSet
342 104 m 1
 363 86 l 1
 303 8 257 -19 181 -19 c 0
 88 -19 33 37 33 132 c 0
 33 218 70 306 134 372 c 0
 185 425 243 451 310 451 c 0
 381 451 427 415 427 359 c 0
 427 310 392 266 328 236 c 0
 287 217 226 204 148 197 c 1
 143 173 142 162 142 146 c 0
 142 85 175 45 224 45 c 0
 263 45 298 62 342 104 c 1
153 237 m 1
 187 239 213 244 236 252 c 0
 293 273 336 320 336 362 c 0
 336 370 333 380 325 396 c 0
 319 406 309 412 296 412 c 0
 249 412 192 343 153 237 c 1
343 536 m 2
 330 524 l 2
 327 521 322 519 319 519 c 0
 315 519 312 521 307 526 c 0
 274 558 223 604 176 643 c 0
 142 671 126 693 126 712 c 0
 126 732 147 747 174 747 c 0
 205 747 224 733 247 694 c 0
 288 626 294 616 337 557 c 0
 346 543 347 542 347 541 c 0
 347 539 346 538 343 536 c 2
EndSplineSet
Validated: 1
Substitution2: "'smcp' Lowercase to Small Capitals lookup 4-1" egrave.smcp
EndChar

StartChar: ecircumflex
Encoding: 234 234 190
Width: 424
Flags: W
HStem: -19 64<199.5 219> 412 39<276.5 302.5>
VStem: 33 109<115.5 154 115.5 175> 336 91<341 366> 378 33<530 538>
LayerCount: 2
Fore
SplineSet
342 104 m 1xf0
 363 86 l 1
 303 8 257 -19 181 -19 c 0
 88 -19 33 37 33 132 c 0
 33 218 70 306 134 372 c 0
 185 425 243 451 310 451 c 0
 381 451 427 415 427 359 c 0
 427 310 392 266 328 236 c 0
 287 217 226 204 148 197 c 1
 143 173 142 162 142 146 c 0
 142 85 175 45 224 45 c 0
 263 45 298 62 342 104 c 1xf0
153 237 m 1
 187 239 213 244 236 252 c 0
 293 273 336 320 336 362 c 0
 336 370 333 380 325 396 c 0
 319 406 309 412 296 412 c 0
 249 412 192 343 153 237 c 1
378 530 m 2xe8
 346 593 l 2
 327 632 325 637 321 654 c 0
 320 658 317 669 314 684 c 1
 296 661 279 640 268 629 c 2
 187 550 l 2
 180 543 173 535 165 528 c 0
 160 521 156 519 153 519 c 0
 151 519 149 520 148 521 c 2
 135 531 l 2
 133 533 132 535 132 537 c 0
 132 539 133 542 136 545 c 2
 140 552 l 1
 241 712 l 2
 274 764 292 779 322 779 c 0
 360 779 382 749 391 687 c 2
 411 538 l 2
 411 531 410 530 405 527 c 2
 395 521 l 2
 392 520 390 519 389 519 c 0
 386 519 382 523 378 530 c 2xe8
EndSplineSet
Validated: 1
Substitution2: "'smcp' Lowercase to Small Capitals lookup 4-1" ecircumflex.smcp
EndChar

StartChar: idieresis
Encoding: 239 239 191
Width: 313
Flags: W
HStem: -19 83<92 188> 361 90<126.5 229.5> 553 132<138.5 169 329.5 360>
VStem: 96 114<600.5 637> 152 113<337 414.5> 287 114<600.5 637>
LayerCount: 2
Fore
SplineSet
262 140 m 1xec
 287 120 l 1
 219 28 159 -19 109 -19 c 0
 75 -19 51 3 51 33 c 0
 51 56 59 82 109 213 c 0
 139 291 152 332 152 342 c 0
 152 353 144 361 134 361 c 0
 119 361 102 349 67 312 c 0
 65 310 63 309 61 309 c 0
 60 309 59 310 55 313 c 2
 46 322 l 2
 43 325 42 327 42 329 c 0
 42 331 45 336 54 347 c 0
 106 408 171 451 213 451 c 0
 246 451 265 431 265 398 c 0
 265 363 245 304 183 156 c 0
 168 120 160 96 160 87 c 0
 160 74 169 64 180 64 c 0
 196 64 211 78 262 140 c 1xec
155 685 m 0
 187 685 210 658 210 620 c 0xf4
 210 581 186 553 152 553 c 0xec
 119 553 96 580 96 618 c 0xf4
 96 656 122 685 155 685 c 0
346 685 m 0
 378 685 401 658 401 620 c 0
 401 581 377 553 343 553 c 0
 310 553 287 580 287 618 c 0
 287 656 313 685 346 685 c 0
EndSplineSet
Validated: 1
Substitution2: "'smcp' Lowercase to Small Capitals lookup 4-1" idieresis.smcp
EndChar

StartChar: iacute
Encoding: 237 237 192
Width: 313
Flags: MW
HStem: -19 83<92 188> 361 90<126.5 229.5>
VStem: 152 113<337 414.5>
LayerCount: 2
Fore
SplineSet
262 140 m 1
 287 120 l 1
 219 28 159 -19 109 -19 c 0
 75 -19 51 3 51 33 c 0
 51 56 59 82 109 213 c 0
 139 291 152 332 152 342 c 0
 152 353 144 361 134 361 c 0
 119 361 102 349 67 312 c 0
 65 310 63 309 61 309 c 0
 60 309 59 310 55 313 c 2
 46 322 l 2
 43 325 42 327 42 329 c 0
 42 331 45 336 54 347 c 0
 106 408 171 451 213 451 c 0
 246 451 265 431 265 398 c 0
 265 363 245 304 183 156 c 0
 168 120 160 96 160 87 c 0
 160 74 169 64 180 64 c 0
 196 64 211 78 262 140 c 1
203 524 m 2
 190 536 l 2
 188 537 187 539 187 541 c 0
 187 542 187 543 197 557 c 0
 241 619 245 624 286 694 c 0
 309 733 329 747 359 747 c 0
 386 747 407 732 407 712 c 0
 407 693 391 671 357 643 c 0
 308 601 259 557 227 526 c 0
 221 521 218 519 215 519 c 0
 211 519 206 521 203 524 c 2
EndSplineSet
Validated: 1
Substitution2: "'smcp' Lowercase to Small Capitals lookup 4-1" iacute.smcp
EndChar

StartChar: igrave
Encoding: 236 236 193
Width: 313
Flags: MW
HStem: -19 83<91 187> 361 90<125.5 228.5>
VStem: 151 113<337 414.5>
LayerCount: 2
Fore
SplineSet
261 140 m 1
 286 120 l 1
 218 28 158 -19 108 -19 c 0
 74 -19 50 3 50 33 c 0
 50 56 58 82 108 213 c 0
 138 291 151 332 151 342 c 0
 151 353 143 361 133 361 c 0
 118 361 101 349 66 312 c 0
 64 310 62 309 60 309 c 0
 59 309 58 310 54 313 c 2
 45 322 l 2
 42 325 41 327 41 329 c 0
 41 331 44 336 53 347 c 0
 105 408 170 451 212 451 c 0
 245 451 264 431 264 398 c 0
 264 363 244 304 182 156 c 0
 167 120 159 96 159 87 c 0
 159 74 168 64 179 64 c 0
 195 64 210 78 261 140 c 1
287 536 m 2
 274 524 l 2
 271 521 266 519 263 519 c 0
 259 519 256 521 251 526 c 0
 220 556 162 608 120 643 c 0
 85 671 70 693 70 712 c 0
 70 732 91 747 118 747 c 0
 148 747 168 733 191 694 c 0
 205 667 220 642 237 618 c 2
 288 545 l 2
 290 543 290 541 290 540 c 0
 290 539 289 537 287 536 c 2
EndSplineSet
Validated: 1
Substitution2: "'smcp' Lowercase to Small Capitals lookup 4-1" igrave.smcp
EndChar

StartChar: icircumflex
Encoding: 238 238 194
Width: 313
Flags: MW
HStem: -19 83<92 188> 361 90<126.5 229.5>
VStem: 152 113<337 414.5> 333 33<530 536>
LayerCount: 2
Fore
SplineSet
262 140 m 1
 287 120 l 1
 219 28 159 -19 109 -19 c 0
 75 -19 51 3 51 33 c 0
 51 56 59 82 109 213 c 0
 139 291 152 332 152 342 c 0
 152 353 144 361 134 361 c 0
 119 361 102 349 67 312 c 0
 65 310 63 309 61 309 c 0
 60 309 59 310 55 313 c 2
 46 322 l 2
 43 325 42 327 42 329 c 0
 42 331 45 336 54 347 c 0
 106 408 171 451 213 451 c 0
 246 451 265 431 265 398 c 0
 265 363 245 304 183 156 c 0
 168 120 160 96 160 87 c 0
 160 74 169 64 180 64 c 0
 196 64 211 78 262 140 c 1
333 530 m 2
 301 593 l 2
 282 632 280 637 275 654 c 0
 275 657 272 669 269 684 c 1
 248 658 233 640 223 629 c 2
 142 550 l 2
 135 542 127 535 120 528 c 0
 114 521 111 519 107 519 c 0
 106 519 103 520 102 521 c 2
 90 531 l 2
 88 533 87 535 87 537 c 0
 87 539 88 542 90 545 c 2
 95 552 l 1
 196 712 l 2
 229 764 247 779 276 779 c 0
 314 779 337 749 345 687 c 2
 366 538 l 1
 366 536 l 2
 366 532 364 529 360 527 c 2
 350 521 l 2
 347 520 345 519 343 519 c 0
 340 519 336 523 333 530 c 2
EndSplineSet
Validated: 1
Substitution2: "'smcp' Lowercase to Small Capitals lookup 4-1" icircumflex.smcp
EndChar

StartChar: ntilde
Encoding: 241 241 195
Width: 553
Flags: W
HStem: -19 89<328.5 434.5> 381 70 534 84<399.5 400.5> 616 84<287.5 292> 673 20G<474 477>
VStem: 153 91<309 413.5> 294 114<19 99> 396 108<351 404>
LayerCount: 2
Fore
SplineSet
75 301 m 1xc5
 53 319 l 1
 85 370 94 383 113 406 c 0
 136 434 166 451 193 451 c 0
 225 451 244 431 244 396 c 0
 244 382 240 355 234 327 c 2
 228 302 l 1
 263 344 275 358 293 377 c 0
 337 423 392 451 441 451 c 0
 475 451 504 421 504 387 c 0xc5
 504 356 498 337 454 228 c 0
 425 158 408 106 408 92 c 0
 408 79 416 70 427 70 c 0
 442 70 453 80 491 123 c 2
 501 136 l 1
 523 115 l 1
 442 14 398 -19 344 -19 c 0
 313 -19 294 2 294 36 c 0xc6
 294 67 310 117 372 279 c 0
 389 322 396 345 396 357 c 0
 396 362 396 362 387 374 c 0
 381 381 381 381 374 381 c 0
 322 381 258 299 204 163 c 2
 153 36 l 2
 149 27 146 18 143 9 c 0
 136 -10 130 -13 106 -13 c 0
 66 -13 46 -6 46 8 c 0
 46 13 48 28 50 31 c 2
 113 186 l 2
 135 240 153 300 153 318 c 0
 153 336 143 348 129 348 c 0
 113 348 100 337 75 301 c 1xc5
214 544 m 1
 199 550 l 2
 197 551 195 554 195 559 c 0
 195 570 210 609 227 641 c 0
 246 677 275 700 300 700 c 0xd4
 325 700 344 685 374 642 c 0
 386 625 395 618 404 618 c 0
 423 618 439 635 466 684 c 0
 469 690 472 693 476 693 c 0
 478 693 481 692 483 691 c 2
 495 686 l 2
 498 685 499 682 499 679 c 0
 499 667 479 618 464 593 c 0
 440 555 413 534 388 534 c 0xec
 365 534 348 548 324 586 c 0
 310 607 299 616 285 616 c 0xd4
 267 616 249 598 237 568 c 0
 229 548 226 545 214 544 c 1
EndSplineSet
Validated: 1
Substitution2: "'smcp' Lowercase to Small Capitals lookup 4-1" ntilde.smcp
EndChar

StartChar: odieresis
Encoding: 246 246 196
Width: 480
Flags: W
HStem: -19 38<179.5 210 179.5 264> 414 37<289 289> 553 132<221.5 252 412.5 443>
VStem: 38 108<111.5 133 71.5 244> 179 114<600.5 637> 338 108<291.5 322 190 357> 370 114<600.5 637>
LayerCount: 2
Fore
SplineSet
289 451 m 0xfc
 382 451 446 376 446 268 c 0
 446 112 332 -19 196 -19 c 0
 100 -19 38 55 38 168 c 0
 38 320 155 451 289 451 c 0xfc
289 414 m 0
 260 415 231 391 206 343 c 0
 174 280 146 168 146 98 c 0
 146 45 163 19 196 19 c 0
 224 19 251 39 274 77 c 0
 308 133 338 253 338 330 c 0
 338 384 321 412 289 414 c 0
238 685 m 0
 270 685 293 658 293 620 c 0
 293 581 269 553 235 553 c 0
 202 553 179 580 179 618 c 0
 179 656 205 685 238 685 c 0
429 685 m 0
 461 685 484 658 484 620 c 0
 484 581 460 553 426 553 c 0
 393 553 370 580 370 618 c 0xfa
 370 656 396 685 429 685 c 0
EndSplineSet
Validated: 33
Substitution2: "'smcp' Lowercase to Small Capitals lookup 4-1" odieresis.smcp
EndChar

StartChar: oacute
Encoding: 243 243 197
Width: 480
Flags: MW
HStem: -19 38<178.5 209 178.5 263> 414 37<288 288>
VStem: 37 108<111.5 133 71.5 244> 337 108<291.5 322 190 357>
LayerCount: 2
Fore
SplineSet
288 451 m 0
 381 451 445 376 445 268 c 0
 445 112 331 -19 195 -19 c 0
 99 -19 37 55 37 168 c 0
 37 320 154 451 288 451 c 0
288 414 m 0
 259 415 230 391 205 343 c 0
 173 280 145 168 145 98 c 0
 145 45 162 19 195 19 c 0
 223 19 250 39 273 77 c 0
 307 133 337 253 337 330 c 0
 337 384 320 412 288 414 c 0
285 524 m 2
 272 536 l 2
 270 538 269 539 269 541 c 0
 269 542 269 543 279 557 c 0
 324 619 324 619 368 694 c 0
 391 733 411 747 441 747 c 0
 468 747 489 732 489 712 c 0
 489 693 473 671 439 643 c 0
 390 601 342 558 309 526 c 0
 304 521 300 519 297 519 c 0
 294 519 289 521 285 524 c 2
EndSplineSet
Validated: 33
Substitution2: "'smcp' Lowercase to Small Capitals lookup 4-1" oacute.smcp
EndChar

StartChar: ograve
Encoding: 242 242 198
Width: 479
Flags: MW
HStem: -19 38<178.5 209 178.5 263> 414 37<288 288>
VStem: 37 108<111.5 133 71.5 244> 337 108<291.5 322 190 357>
LayerCount: 2
Fore
SplineSet
288 451 m 0
 381 451 445 376 445 268 c 0
 445 112 331 -19 195 -19 c 0
 99 -19 37 55 37 168 c 0
 37 320 154 451 288 451 c 0
288 414 m 0
 259 415 230 391 205 343 c 0
 173 280 145 168 145 98 c 0
 145 45 162 19 195 19 c 0
 223 19 250 39 273 77 c 0
 307 133 337 253 337 330 c 0
 337 384 320 412 288 414 c 0
371 536 m 2
 358 524 l 2
 354 521 349 519 346 519 c 0
 343 519 339 521 334 526 c 0
 304 555 244 609 204 643 c 0
 169 671 154 693 154 712 c 0
 154 732 175 747 202 747 c 0
 232 747 252 733 275 694 c 0
 297 657 313 629 321 618 c 2
 372 545 l 2
 373 543 374 542 374 541 c 0
 374 539 373 538 371 536 c 2
EndSplineSet
Validated: 33
Substitution2: "'smcp' Lowercase to Small Capitals lookup 4-1" ograve.smcp
EndChar

StartChar: ocircumflex
Encoding: 244 244 199
Width: 479
Flags: MW
HStem: -19 38<178.5 209 178.5 263> 414 37<288 288>
VStem: 37 108<111.5 133 71.5 244> 337 108<291.5 322 190 357>
LayerCount: 2
Fore
SplineSet
288 451 m 0
 381 451 445 376 445 268 c 0
 445 112 331 -19 195 -19 c 0
 99 -19 37 55 37 168 c 0
 37 320 154 451 288 451 c 0
288 414 m 0
 259 415 230 391 205 343 c 0
 173 280 145 168 145 98 c 0
 145 45 162 19 195 19 c 0
 223 19 250 39 273 77 c 0
 307 133 337 253 337 330 c 0
 337 384 320 412 288 414 c 0
405 530 m 2
 374 593 l 2
 354 632 352 637 348 654 c 0
 347 657 345 669 341 684 c 1
 322 659 306 641 295 629 c 2
 215 550 l 2
 207 543 200 535 193 528 c 0
 187 521 183 519 180 519 c 0
 178 519 176 520 175 521 c 2
 162 531 l 2
 161 532 160 535 160 537 c 0
 160 540 160 540 167 552 c 2
 269 712 l 2
 301 763 320 779 349 779 c 0
 387 779 409 749 418 687 c 2
 438 538 l 1
 439 536 l 2
 440 533 437 529 432 527 c 2
 422 521 l 2
 420 520 417 519 416 519 c 0
 413 519 409 523 405 530 c 2
EndSplineSet
Validated: 33
Substitution2: "'smcp' Lowercase to Small Capitals lookup 4-1" ocircumflex.smcp
EndChar

StartChar: otilde
Encoding: 245 245 200
Width: 480
Flags: W
HStem: -19 38<179.5 210 179.5 264> 414 37<289 289> 534 84<380.5 382> 616 84<268.5 273.5> 673 20G<455 458>
VStem: 38 108<111.5 133 71.5 244> 338 108<291.5 322 190 357>
LayerCount: 2
Fore
SplineSet
289 451 m 0xc6
 382 451 446 376 446 268 c 0
 446 112 332 -19 196 -19 c 0
 100 -19 38 55 38 168 c 0
 38 320 155 451 289 451 c 0xc6
289 414 m 0
 260 415 231 391 206 343 c 0
 174 280 146 168 146 98 c 0
 146 45 163 19 196 19 c 0
 224 19 251 39 274 77 c 0
 308 133 338 253 338 330 c 0
 338 384 321 412 289 414 c 0
195 544 m 1
 180 550 l 2
 178 551 176 555 176 560 c 0
 176 570 191 608 208 641 c 0
 226 676 256 700 281 700 c 0xd6
 306 700 324 686 355 642 c 0
 367 625 376 618 385 618 c 0
 404 618 421 635 447 684 c 0
 450 690 453 693 457 693 c 0
 459 693 462 692 465 691 c 2
 477 686 l 2
 480 684 481 682 481 679 c 0
 481 667 461 618 446 593 c 0
 422 555 395 534 369 534 c 0xee
 347 534 329 548 305 586 c 0
 291 608 281 616 266 616 c 0xd6
 249 616 231 598 218 568 c 0
 210 548 207 545 195 544 c 1
EndSplineSet
Validated: 33
Substitution2: "'smcp' Lowercase to Small Capitals lookup 4-1" otilde.smcp
EndChar

